G04*
G04 #@! TF.GenerationSoftware,Altium Limited,Altium Designer,19.1.5 (86)*
G04*
G04 Layer_Color=2752767*
%FSLAX24Y24*%
%MOIN*%
G70*
G01*
G75*
%ADD74C,0.0020*%
%ADD75C,0.0027*%
D74*
X11731Y14077D02*
Y14237D01*
X11891D01*
Y14077D01*
X11731D01*
X30481D02*
Y14237D01*
X30641D01*
Y14077D01*
X30481D01*
Y15077D02*
Y15237D01*
X30641D01*
Y15077D01*
X30481D01*
Y16077D02*
Y16237D01*
X30641D01*
Y16077D01*
X30481D01*
Y17077D02*
Y17237D01*
X30641D01*
Y17077D01*
X30481D01*
Y18077D02*
Y18237D01*
X30641D01*
Y18077D01*
X30481D01*
Y19077D02*
Y19237D01*
X30641D01*
Y19077D01*
X30481D01*
Y20077D02*
Y20237D01*
X30641D01*
Y20077D01*
X30481D01*
Y21077D02*
Y21237D01*
X30641D01*
Y21077D01*
X30481D01*
Y22077D02*
Y22237D01*
X30641D01*
Y22077D01*
X30481D01*
Y23077D02*
Y23237D01*
X30641D01*
Y23077D01*
X30481D01*
Y24077D02*
Y24237D01*
X30641D01*
Y24077D01*
X30481D01*
Y25077D02*
Y25237D01*
X30641D01*
Y25077D01*
X30481D01*
X11731D02*
Y25237D01*
X11891D01*
Y25077D01*
X11731D01*
Y24077D02*
Y24237D01*
X11891D01*
Y24077D01*
X11731D01*
Y23077D02*
Y23237D01*
X11891D01*
Y23077D01*
X11731D01*
Y22077D02*
Y22237D01*
X11891D01*
Y22077D01*
X11731D01*
Y21077D02*
Y21237D01*
X11891D01*
Y21077D01*
X11731D01*
Y20077D02*
Y20237D01*
X11891D01*
Y20077D01*
X11731D01*
Y19077D02*
Y19237D01*
X11891D01*
Y19077D01*
X11731D01*
Y18077D02*
Y18237D01*
X11891D01*
Y18077D01*
X11731D01*
Y17077D02*
Y17237D01*
X11891D01*
Y17077D01*
X11731D01*
Y16077D02*
Y16237D01*
X11891D01*
Y16077D01*
X11731D01*
Y15077D02*
Y15237D01*
X11891D01*
Y15077D01*
X11731D01*
X22260Y29251D02*
X22180Y29411D01*
X22340D01*
X22260Y29251D01*
X21260D02*
X21180Y29411D01*
X21340D01*
X21260Y29251D01*
X20260D02*
X20180Y29411D01*
X20340D01*
X20260Y29251D01*
X19260D02*
X19180Y29411D01*
X19340D01*
X19260Y29251D01*
X9055Y10731D02*
X8975Y10891D01*
X9135D01*
X9055Y10731D01*
Y11731D02*
X8975Y11891D01*
X9135D01*
X9055Y11731D01*
Y27479D02*
X8975Y27639D01*
X9135D01*
X9055Y27479D01*
Y28479D02*
X8975Y28639D01*
X9135D01*
X9055Y28479D01*
X22070Y23484D02*
X22110Y23524D01*
X22150D01*
X22110Y23564D01*
X22150Y23604D01*
X22110D01*
X22070Y23644D01*
X22030Y23604D01*
X21990D01*
X22030Y23564D01*
X21990Y23524D01*
X22030D01*
X22070Y23484D01*
X21717Y23838D02*
X21757Y23878D01*
X21797D01*
X21757Y23918D01*
X21797Y23958D01*
X21757D01*
X21717Y23998D01*
X21677Y23958D01*
X21637D01*
X21677Y23918D01*
X21637Y23878D01*
X21677D01*
X21717Y23838D01*
X8975Y17605D02*
Y17765D01*
X9135D01*
Y17605D01*
X8975D01*
Y19605D02*
Y19765D01*
X9135D01*
Y19605D01*
X8975D01*
Y18605D02*
Y18765D01*
X9135D01*
Y18605D01*
X8975D01*
Y20605D02*
Y20765D01*
X9135D01*
Y20605D01*
X8975D01*
Y21605D02*
Y21765D01*
X9135D01*
Y21605D01*
X8975D01*
X22008Y18297D02*
X22048Y18377D01*
X22008Y18457D01*
X22088Y18417D01*
X22168Y18457D01*
X22128Y18377D01*
X22168Y18297D01*
X22088Y18337D01*
X22008Y18297D01*
X21682Y18099D02*
X21722Y18179D01*
X21682Y18259D01*
X21762Y18219D01*
X21842Y18259D01*
X21802Y18179D01*
X21842Y18099D01*
X21762Y18139D01*
X21682Y18099D01*
X22459Y22263D02*
X22499Y22343D01*
X22459Y22423D01*
X22539Y22383D01*
X22619Y22423D01*
X22579Y22343D01*
X22619Y22263D01*
X22539Y22303D01*
X22459Y22263D01*
X22164Y22656D02*
X22204Y22736D01*
X22164Y22816D01*
X22244Y22776D01*
X22324Y22816D01*
X22284Y22736D01*
X22324Y22656D01*
X22244Y22696D01*
X22164Y22656D01*
X15009Y22016D02*
X15049Y22096D01*
X15009Y22176D01*
X15089Y22136D01*
X15169Y22176D01*
X15129Y22096D01*
X15169Y22016D01*
X15089Y22056D01*
X15009Y22016D01*
X16574Y22736D02*
X16614Y22816D01*
X16574Y22896D01*
X16654Y22856D01*
X16734Y22896D01*
X16694Y22816D01*
X16734Y22736D01*
X16654Y22776D01*
X16574Y22736D01*
X15297Y21695D02*
X15337Y21775D01*
X15297Y21855D01*
X15377Y21815D01*
X15457Y21855D01*
X15417Y21775D01*
X15457Y21695D01*
X15377Y21735D01*
X15297Y21695D01*
X15471Y23050D02*
X15511Y23130D01*
X15471Y23210D01*
X15551Y23170D01*
X15631Y23210D01*
X15591Y23130D01*
X15631Y23050D01*
X15551Y23090D01*
X15471Y23050D01*
X22361Y15865D02*
X22401Y15945D01*
X22361Y16025D01*
X22441Y15985D01*
X22521Y16025D01*
X22481Y15945D01*
X22521Y15865D01*
X22441Y15905D01*
X22361Y15865D01*
X22264Y18494D02*
X22304Y18574D01*
X22264Y18654D01*
X22344Y18614D01*
X22424Y18654D01*
X22384Y18574D01*
X22424Y18494D01*
X22344Y18534D01*
X22264Y18494D01*
X18129Y17341D02*
X18169Y17421D01*
X18129Y17501D01*
X18209Y17461D01*
X18289Y17501D01*
X18249Y17421D01*
X18289Y17341D01*
X18209Y17381D01*
X18129Y17341D01*
X17440Y17833D02*
X17480Y17913D01*
X17440Y17993D01*
X17520Y17953D01*
X17600Y17993D01*
X17560Y17913D01*
X17600Y17833D01*
X17520Y17873D01*
X17440Y17833D01*
X10550Y10058D02*
X10590Y10138D01*
X10550Y10218D01*
X10630Y10178D01*
X10710Y10218D01*
X10670Y10138D01*
X10710Y10058D01*
X10630Y10098D01*
X10550Y10058D01*
Y12420D02*
X10590Y12500D01*
X10550Y12580D01*
X10630Y12540D01*
X10710Y12580D01*
X10670Y12500D01*
X10710Y12420D01*
X10630Y12460D01*
X10550Y12420D01*
X11140Y26593D02*
X11180Y26673D01*
X11140Y26753D01*
X11220Y26713D01*
X11300Y26753D01*
X11260Y26673D01*
X11300Y26593D01*
X11220Y26633D01*
X11140Y26593D01*
X14487Y28562D02*
X14527Y28642D01*
X14487Y28722D01*
X14567Y28682D01*
X14647Y28722D01*
X14607Y28642D01*
X14647Y28562D01*
X14567Y28602D01*
X14487Y28562D01*
X14585Y28070D02*
X14625Y28150D01*
X14585Y28230D01*
X14665Y28190D01*
X14745Y28230D01*
X14705Y28150D01*
X14745Y28070D01*
X14665Y28110D01*
X14585Y28070D01*
X14585Y28955D02*
X14625Y29035D01*
X14585Y29115D01*
X14665Y29075D01*
X14745Y29115D01*
X14705Y29035D01*
X14745Y28955D01*
X14665Y28995D01*
X14585Y28955D01*
X14192Y27184D02*
X14232Y27264D01*
X14192Y27344D01*
X14272Y27304D01*
X14352Y27344D01*
X14312Y27264D01*
X14352Y27184D01*
X14272Y27224D01*
X14192Y27184D01*
X12617Y26790D02*
X12657Y26870D01*
X12617Y26950D01*
X12697Y26910D01*
X12777Y26950D01*
X12737Y26870D01*
X12777Y26790D01*
X12697Y26830D01*
X12617Y26790D01*
X14192Y27577D02*
X14232Y27657D01*
X14192Y27737D01*
X14272Y27697D01*
X14352Y27737D01*
X14312Y27657D01*
X14352Y27577D01*
X14272Y27617D01*
X14192Y27577D01*
X19605Y23859D02*
X19645Y23939D01*
X19605Y24019D01*
X19685Y23979D01*
X19765Y24019D01*
X19725Y23939D01*
X19765Y23859D01*
X19685Y23899D01*
X19605Y23859D01*
X16652Y24329D02*
X16692Y24409D01*
X16652Y24489D01*
X16732Y24449D01*
X16812Y24489D01*
X16772Y24409D01*
X16812Y24329D01*
X16732Y24369D01*
X16652Y24329D01*
X18522Y23837D02*
X18562Y23917D01*
X18522Y23997D01*
X18602Y23957D01*
X18682Y23997D01*
X18642Y23917D01*
X18682Y23837D01*
X18602Y23877D01*
X18522Y23837D01*
X16259Y15176D02*
X16299Y15256D01*
X16259Y15336D01*
X16339Y15296D01*
X16419Y15336D01*
X16379Y15256D01*
X16419Y15176D01*
X16339Y15216D01*
X16259Y15176D01*
X17538D02*
X17578Y15256D01*
X17538Y15336D01*
X17618Y15296D01*
X17698Y15336D01*
X17658Y15256D01*
X17698Y15176D01*
X17618Y15216D01*
X17538Y15176D01*
X17144D02*
X17184Y15256D01*
X17144Y15336D01*
X17224Y15296D01*
X17304Y15336D01*
X17264Y15256D01*
X17304Y15176D01*
X17224Y15216D01*
X17144Y15176D01*
X16652D02*
X16692Y15256D01*
X16652Y15336D01*
X16732Y15296D01*
X16812Y15336D01*
X16772Y15256D01*
X16812Y15176D01*
X16732Y15216D01*
X16652Y15176D01*
X16357Y16652D02*
X16397Y16732D01*
X16357Y16812D01*
X16437Y16772D01*
X16517Y16812D01*
X16477Y16732D01*
X16517Y16652D01*
X16437Y16692D01*
X16357Y16652D01*
X16948Y16849D02*
X16988Y16929D01*
X16948Y17009D01*
X17028Y16969D01*
X17108Y17009D01*
X17068Y16929D01*
X17108Y16849D01*
X17028Y16889D01*
X16948Y16849D01*
X17440Y16357D02*
X17480Y16437D01*
X17440Y16517D01*
X17520Y16477D01*
X17600Y16517D01*
X17560Y16437D01*
X17600Y16357D01*
X17520Y16397D01*
X17440Y16357D01*
X15524Y21430D02*
X15564Y21510D01*
X15524Y21590D01*
X15604Y21550D01*
X15684Y21590D01*
X15644Y21510D01*
X15684Y21430D01*
X15604Y21470D01*
X15524Y21430D01*
X14192Y19999D02*
X14232Y20079D01*
X14192Y20159D01*
X14272Y20119D01*
X14352Y20159D01*
X14312Y20079D01*
X14352Y19999D01*
X14272Y20039D01*
X14192Y19999D01*
X15865Y21180D02*
X15905Y21260D01*
X15865Y21340D01*
X15945Y21300D01*
X16025Y21340D01*
X15985Y21260D01*
X16025Y21180D01*
X15945Y21220D01*
X15865Y21180D01*
X18326Y16751D02*
X18366Y16831D01*
X18326Y16911D01*
X18406Y16871D01*
X18486Y16911D01*
X18446Y16831D01*
X18486Y16751D01*
X18406Y16791D01*
X18326Y16751D01*
X12322Y12420D02*
X12362Y12500D01*
X12322Y12580D01*
X12402Y12540D01*
X12482Y12580D01*
X12442Y12500D01*
X12482Y12420D01*
X12402Y12460D01*
X12322Y12420D01*
Y10058D02*
X12362Y10138D01*
X12322Y10218D01*
X12402Y10178D01*
X12482Y10218D01*
X12442Y10138D01*
X12482Y10058D01*
X12402Y10098D01*
X12322Y10058D01*
X22558Y18719D02*
X22598Y18799D01*
X22558Y18879D01*
X22638Y18839D01*
X22718Y18879D01*
X22678Y18799D01*
X22718Y18719D01*
X22638Y18759D01*
X22558Y18719D01*
X13896Y20294D02*
X13936Y20374D01*
X13896Y20454D01*
X13976Y20414D01*
X14056Y20454D01*
X14016Y20374D01*
X14056Y20294D01*
X13976Y20334D01*
X13896Y20294D01*
X14585Y19507D02*
X14625Y19587D01*
X14585Y19667D01*
X14665Y19627D01*
X14745Y19667D01*
X14705Y19587D01*
X14745Y19507D01*
X14665Y19547D01*
X14585Y19507D01*
X21278Y16062D02*
X21318Y16142D01*
X21278Y16222D01*
X21358Y16182D01*
X21438Y16222D01*
X21398Y16142D01*
X21438Y16062D01*
X21358Y16102D01*
X21278Y16062D01*
X21672D02*
X21712Y16142D01*
X21672Y16222D01*
X21752Y16182D01*
X21832Y16222D01*
X21792Y16142D01*
X21832Y16062D01*
X21752Y16102D01*
X21672Y16062D01*
X22066Y15963D02*
X22106Y16043D01*
X22066Y16123D01*
X22146Y16083D01*
X22226Y16123D01*
X22186Y16043D01*
X22226Y15963D01*
X22146Y16003D01*
X22066Y15963D01*
D75*
X9529Y7480D02*
G03*
X9529Y7480I-80J0D01*
G01*
Y31890D02*
G03*
X9529Y31890I-80J0D01*
G01*
M02*
