G04*
G04 #@! TF.GenerationSoftware,Altium Limited,Altium Designer,19.1.5 (86)*
G04*
G04 Layer_Color=8421504*
%FSLAX24Y24*%
%MOIN*%
G70*
G01*
G75*
%ADD14C,0.0039*%
%ADD15C,0.0047*%
%ADD16R,0.0098X0.0157*%
%ADD17R,0.0157X0.0098*%
%ADD18R,0.0085X0.0189*%
%ADD19R,0.0189X0.0085*%
G04:AMPARAMS|DCode=20|XSize=9.8mil|YSize=15.7mil|CornerRadius=0mil|HoleSize=0mil|Usage=FLASHONLY|Rotation=45.000|XOffset=0mil|YOffset=0mil|HoleType=Round|Shape=Rectangle|*
%AMROTATEDRECTD20*
4,1,4,0.0021,-0.0090,-0.0090,0.0021,-0.0021,0.0090,0.0090,-0.0021,0.0021,-0.0090,0.0*
%
%ADD20ROTATEDRECTD20*%

G04:AMPARAMS|DCode=21|XSize=9.8mil|YSize=15.7mil|CornerRadius=0mil|HoleSize=0mil|Usage=FLASHONLY|Rotation=135.000|XOffset=0mil|YOffset=0mil|HoleType=Round|Shape=Rectangle|*
%AMROTATEDRECTD21*
4,1,4,0.0090,0.0021,-0.0021,-0.0090,-0.0090,-0.0021,0.0021,0.0090,0.0090,0.0021,0.0*
%
%ADD21ROTATEDRECTD21*%

G04:AMPARAMS|DCode=22|XSize=27.2mil|YSize=39mil|CornerRadius=0.3mil|HoleSize=0mil|Usage=FLASHONLY|Rotation=270.000|XOffset=0mil|YOffset=0mil|HoleType=Round|Shape=RoundedRectangle|*
%AMROUNDEDRECTD22*
21,1,0.0272,0.0384,0,0,270.0*
21,1,0.0266,0.0390,0,0,270.0*
1,1,0.0005,-0.0192,-0.0133*
1,1,0.0005,-0.0192,0.0133*
1,1,0.0005,0.0192,0.0133*
1,1,0.0005,0.0192,-0.0133*
%
%ADD22ROUNDEDRECTD22*%
%ADD23R,0.0315X0.0394*%
%ADD24R,0.0394X0.0315*%
G04:AMPARAMS|DCode=25|XSize=55.1mil|YSize=7.9mil|CornerRadius=0mil|HoleSize=0mil|Usage=FLASHONLY|Rotation=45.000|XOffset=0mil|YOffset=0mil|HoleType=Round|Shape=RoundedRectangle|*
%AMROUNDEDRECTD25*
21,1,0.0551,0.0079,0,0,45.0*
21,1,0.0551,0.0079,0,0,45.0*
1,1,0.0000,0.0223,0.0167*
1,1,0.0000,-0.0167,-0.0223*
1,1,0.0000,-0.0223,-0.0167*
1,1,0.0000,0.0167,0.0223*
%
%ADD25ROUNDEDRECTD25*%
G04:AMPARAMS|DCode=26|XSize=55.1mil|YSize=7.9mil|CornerRadius=0mil|HoleSize=0mil|Usage=FLASHONLY|Rotation=315.000|XOffset=0mil|YOffset=0mil|HoleType=Round|Shape=RoundedRectangle|*
%AMROUNDEDRECTD26*
21,1,0.0551,0.0079,0,0,315.0*
21,1,0.0551,0.0079,0,0,315.0*
1,1,0.0000,0.0167,-0.0223*
1,1,0.0000,-0.0223,0.0167*
1,1,0.0000,-0.0167,0.0223*
1,1,0.0000,0.0223,-0.0167*
%
%ADD26ROUNDEDRECTD26*%
G04:AMPARAMS|DCode=27|XSize=24.4mil|YSize=19.7mil|CornerRadius=0mil|HoleSize=0mil|Usage=FLASHONLY|Rotation=315.000|XOffset=0mil|YOffset=0mil|HoleType=Round|Shape=Rectangle|*
%AMROTATEDRECTD27*
4,1,4,-0.0156,0.0017,-0.0017,0.0156,0.0156,-0.0017,0.0017,-0.0156,-0.0156,0.0017,0.0*
%
%ADD27ROTATEDRECTD27*%

D14*
X10020Y21732D02*
G03*
X10020Y21575I14J-79D01*
G01*
X10256D02*
G03*
X10256Y21732I-14J79D01*
G01*
X10020Y20748D02*
G03*
X10020Y20591I14J-79D01*
G01*
X10256D02*
G03*
X10256Y20748I-14J79D01*
G01*
X10020Y19764D02*
G03*
X10020Y19606I14J-79D01*
G01*
X10256D02*
G03*
X10256Y19764I-14J79D01*
G01*
X17146Y24882D02*
G03*
X17303Y24882I79J14D01*
G01*
Y25118D02*
G03*
X17146Y25118I-79J-14D01*
G01*
X17795Y23996D02*
G03*
X17795Y23839I14J-79D01*
G01*
X18032D02*
G03*
X18032Y23996I-14J79D01*
G01*
X11929Y26791D02*
G03*
X11929Y26949I-14J79D01*
G01*
X11693D02*
G03*
X11693Y26791I14J-79D01*
G01*
X10551Y11201D02*
G03*
X10709Y11201I79J14D01*
G01*
Y11437D02*
G03*
X10551Y11437I-79J-14D01*
G01*
X14547Y24232D02*
G03*
X14390Y24232I-79J-14D01*
G01*
Y23996D02*
G03*
X14547Y23996I79J14D01*
G01*
X15472Y23346D02*
G03*
X15472Y23504I-14J79D01*
G01*
X15236D02*
G03*
X15236Y23346I14J-79D01*
G01*
X21653Y24427D02*
G03*
X21541Y24539I-66J45D01*
G01*
X21374Y24372D02*
G03*
X21485Y24260I66J-45D01*
G01*
X22696Y23383D02*
G03*
X22585Y23495I-66J45D01*
G01*
X22418Y23328D02*
G03*
X22529Y23216I66J-45D01*
G01*
X17487Y22225D02*
G03*
X17598Y22114I66J-45D01*
G01*
X17765Y22281D02*
G03*
X17654Y22392I-66J45D01*
G01*
X17208Y22504D02*
G03*
X17320Y22392I66J-45D01*
G01*
X17487Y22559D02*
G03*
X17375Y22671I-66J45D01*
G01*
X16930Y22003D02*
G03*
X16819Y22114I-66J45D01*
G01*
X16652Y21947D02*
G03*
X16763Y21836I66J-45D01*
G01*
X17208Y21724D02*
G03*
X17097Y21836I-66J45D01*
G01*
X16930Y21669D02*
G03*
X17041Y21557I66J-45D01*
G01*
X16294Y20268D02*
G03*
X16452Y20268I79J14D01*
G01*
Y20504D02*
G03*
X16294Y20504I-79J-14D01*
G01*
X21913Y22532D02*
G03*
X21802Y22420I-45J-66D01*
G01*
X21969Y22253D02*
G03*
X22080Y22364I45J66D01*
G01*
X18532Y17085D02*
G03*
X18643Y17197I45J66D01*
G01*
X18476Y17364D02*
G03*
X18365Y17252I-45J-66D01*
G01*
X9862Y21575D02*
Y21732D01*
X10020D01*
X9862Y21575D02*
X10020D01*
X10256D02*
X10413D01*
X10256Y21732D02*
X10413D01*
Y21575D02*
Y21732D01*
X9862Y20591D02*
Y20748D01*
X10020D01*
X9862Y20591D02*
X10020D01*
X10256D02*
X10413D01*
X10256Y20748D02*
X10413D01*
Y20591D02*
Y20748D01*
X9862Y19606D02*
Y19764D01*
X10020D01*
X9862Y19606D02*
X10020D01*
X10256D02*
X10413D01*
X10256Y19764D02*
X10413D01*
Y19606D02*
Y19764D01*
X17146Y24724D02*
X17303D01*
X17146D02*
Y24882D01*
X17303Y24724D02*
Y24882D01*
Y25118D02*
Y25276D01*
X17146Y25118D02*
Y25276D01*
X17303D01*
X17638Y23839D02*
Y23996D01*
X17795D01*
X17638Y23839D02*
X17795D01*
X18032D02*
X18189D01*
X18032Y23996D02*
X18189D01*
Y23839D02*
Y23996D01*
X12087Y26791D02*
Y26949D01*
X11929D02*
X12087D01*
X11929Y26791D02*
X12087D01*
X11535D02*
X11693D01*
X11535Y26949D02*
X11693D01*
X11535Y26791D02*
Y26949D01*
X10551Y11043D02*
X10709D01*
X10551D02*
Y11201D01*
X10709Y11043D02*
Y11201D01*
Y11437D02*
Y11594D01*
X10551Y11437D02*
Y11594D01*
X10709D01*
X14390Y24390D02*
X14547D01*
X14390Y24232D02*
Y24390D01*
X14547Y24232D02*
X14547Y24390D01*
X14547Y23839D02*
Y23996D01*
X14390Y23839D02*
Y23996D01*
Y23839D02*
X14547D01*
X15630Y23346D02*
Y23504D01*
X15472D02*
X15630D01*
X15472Y23346D02*
X15630D01*
X15079D02*
X15236D01*
X15079Y23504D02*
X15236D01*
X15079Y23346D02*
Y23504D01*
X21653Y24650D02*
X21764Y24539D01*
X21541Y24539D02*
X21653Y24650D01*
X21653Y24427D02*
X21764Y24539D01*
X21374Y24149D02*
X21486Y24260D01*
X21263Y24260D02*
X21374Y24372D01*
X21263Y24260D02*
X21374Y24149D01*
X22696Y23606D02*
X22808Y23495D01*
X22585Y23495D02*
X22696Y23606D01*
X22696Y23383D02*
X22808Y23495D01*
X22418Y23105D02*
X22529Y23216D01*
X22307Y23216D02*
X22418Y23328D01*
X22307Y23216D02*
X22418Y23105D01*
X17375Y22114D02*
X17487Y22003D01*
X17598Y22114D01*
X17375Y22114D02*
X17487Y22225D01*
X17654Y22392D02*
X17765Y22504D01*
X17765Y22281D02*
X17876Y22392D01*
X17765Y22504D02*
X17876Y22392D01*
X17097Y22392D02*
X17208Y22281D01*
X17320Y22392D01*
X17097Y22392D02*
X17208Y22504D01*
X17375Y22671D02*
X17487Y22782D01*
Y22559D02*
X17598Y22671D01*
X17487Y22782D02*
X17598Y22671D01*
X16930Y22225D02*
X17041Y22114D01*
X16819Y22114D02*
X16930Y22225D01*
X16930Y22003D02*
X17041Y22114D01*
X16652Y21724D02*
X16763Y21836D01*
X16540Y21836D02*
X16652Y21947D01*
X16540Y21836D02*
X16652Y21724D01*
X17208Y21947D02*
X17320Y21836D01*
X17097D02*
X17208Y21947D01*
X17208Y21724D02*
X17320Y21836D01*
X16930Y21446D02*
X17041Y21557D01*
X16819Y21557D02*
X16930Y21669D01*
X16819Y21557D02*
X16930Y21446D01*
X16294Y20110D02*
X16452D01*
Y20268D01*
X16294Y20110D02*
Y20268D01*
Y20504D02*
Y20662D01*
X16452Y20504D02*
Y20662D01*
X16294D02*
X16452D01*
X21690Y22532D02*
X21802Y22643D01*
X21690Y22532D02*
X21802Y22420D01*
X21802Y22643D02*
X21913Y22532D01*
X22080Y22364D02*
X22192Y22253D01*
X21969Y22253D02*
X22080Y22142D01*
X22192Y22253D01*
X18643Y16974D02*
X18754Y17085D01*
X18643Y17197D02*
X18754Y17085D01*
X18532Y17085D02*
X18643Y16974D01*
X18253Y17364D02*
X18365Y17252D01*
X18365Y17475D02*
X18476Y17364D01*
X18253Y17364D02*
X18365Y17475D01*
D15*
X16165Y25299D02*
G03*
X16165Y25488I-17J94D01*
G01*
X15921D02*
G03*
X15921Y25299I17J-94D01*
G01*
X16638Y24878D02*
G03*
X16827Y24878I94J17D01*
G01*
Y25122D02*
G03*
X16638Y25122I-94J-17D01*
G01*
X13087Y10555D02*
G03*
X12898Y10555I-94J-17D01*
G01*
Y10311D02*
G03*
X13087Y10311I94J17D01*
G01*
X13803Y10535D02*
G03*
X13803Y10724I-17J94D01*
G01*
X13559D02*
G03*
X13559Y10535I17J-94D01*
G01*
Y13087D02*
G03*
X13559Y12898I17J-94D01*
G01*
X13803D02*
G03*
X13803Y13087I-17J94D01*
G01*
X12898Y12673D02*
G03*
X13087Y12673I94J17D01*
G01*
Y12917D02*
G03*
X12898Y12917I-94J-17D01*
G01*
X13409Y9650D02*
G03*
X13409Y9839I-17J94D01*
G01*
X13165D02*
G03*
X13165Y9650I17J-94D01*
G01*
X12693Y9669D02*
G03*
X12504Y9669I-94J-17D01*
G01*
Y9425D02*
G03*
X12693Y9425I94J17D01*
G01*
X13165Y12201D02*
G03*
X13165Y12012I17J-94D01*
G01*
X13409D02*
G03*
X13409Y12201I-17J94D01*
G01*
X12504Y11787D02*
G03*
X12693Y11787I94J17D01*
G01*
Y12032D02*
G03*
X12504Y12032I-94J-17D01*
G01*
X11047Y27465D02*
G03*
X11047Y27654I-17J94D01*
G01*
X10803D02*
G03*
X10803Y27465I17J-94D01*
G01*
X16165Y25488D02*
X16315D01*
X16165Y25299D02*
X16315D01*
Y25488D01*
X15772Y25299D02*
Y25488D01*
Y25299D02*
X15921D01*
X15772Y25488D02*
X15921D01*
X16827Y24728D02*
Y24878D01*
X16638Y24728D02*
Y24878D01*
Y24728D02*
X16827D01*
X16638Y25272D02*
X16827D01*
X16638Y25122D02*
Y25272D01*
X16827Y25122D02*
Y25272D01*
X12898Y10555D02*
Y10705D01*
X13087Y10555D02*
Y10705D01*
X12898D02*
X13087D01*
X12898Y10161D02*
X13087D01*
Y10311D01*
X12898Y10161D02*
Y10311D01*
X13803Y10724D02*
X13953D01*
X13803Y10535D02*
X13953D01*
Y10724D01*
X13409Y10535D02*
Y10724D01*
Y10535D02*
X13559D01*
X13409Y10724D02*
X13559D01*
X13409Y12898D02*
X13559D01*
X13409Y13087D02*
X13559D01*
X13409Y12898D02*
Y13087D01*
X13953Y12898D02*
Y13087D01*
X13803D02*
X13953D01*
X13803Y12898D02*
X13953D01*
X13087Y12524D02*
Y12673D01*
X12898Y12524D02*
Y12673D01*
Y12524D02*
X13087D01*
X12898Y13067D02*
X13087D01*
X12898Y12917D02*
Y13067D01*
X13087Y12917D02*
Y13067D01*
X13409Y9839D02*
X13559D01*
X13409Y9650D02*
X13559D01*
Y9839D01*
X13016Y9650D02*
Y9839D01*
Y9650D02*
X13165D01*
X13016Y9839D02*
X13165D01*
X12504Y9669D02*
Y9819D01*
X12693Y9669D02*
Y9819D01*
X12504D02*
X12693D01*
X12504Y9276D02*
X12693D01*
Y9425D01*
X12504Y9276D02*
Y9425D01*
X13016Y12012D02*
X13165D01*
X13016Y12201D02*
X13165D01*
X13016Y12012D02*
Y12201D01*
X13559Y12012D02*
Y12201D01*
X13409D02*
X13559D01*
X13409Y12012D02*
X13559D01*
X12693Y11638D02*
Y11787D01*
X12504Y11638D02*
Y11787D01*
Y11638D02*
X12693D01*
X12504Y12181D02*
X12693D01*
X12504Y12032D02*
Y12181D01*
X12693Y12032D02*
Y12181D01*
X11047Y27465D02*
X11197Y27465D01*
X11047Y27654D02*
X11197D01*
X11197Y27465D02*
X11197Y27654D01*
X10654Y27465D02*
Y27654D01*
X10803D01*
X10654Y27465D02*
X10803Y27465D01*
D16*
X9911Y21654D02*
D03*
X10364Y21654D02*
D03*
X9911Y20669D02*
D03*
X10364D02*
D03*
X9911Y19685D02*
D03*
X10364Y19685D02*
D03*
X17687Y23917D02*
D03*
X18140D02*
D03*
X12037Y26870D02*
D03*
X11585Y26870D02*
D03*
X15581Y23425D02*
D03*
X15128D02*
D03*
D17*
X17224Y24774D02*
D03*
X17224Y25226D02*
D03*
X10630Y11093D02*
D03*
X10630Y11545D02*
D03*
X14468Y24341D02*
D03*
X14469Y23888D02*
D03*
X16373Y20160D02*
D03*
X16373Y20612D02*
D03*
D18*
X16273Y25394D02*
D03*
X15814D02*
D03*
X13910Y10630D02*
D03*
X13452Y10630D02*
D03*
X13452Y12992D02*
D03*
X13910D02*
D03*
X13517Y9744D02*
D03*
X13058Y9744D02*
D03*
Y12106D02*
D03*
X13517Y12106D02*
D03*
X11155Y27559D02*
D03*
X10696Y27559D02*
D03*
D19*
X16732Y24771D02*
D03*
X16732Y25229D02*
D03*
X12992Y10662D02*
D03*
Y10204D02*
D03*
X12992Y12566D02*
D03*
X12992Y13025D02*
D03*
X12598Y9777D02*
D03*
X12598Y9318D02*
D03*
X12598Y11680D02*
D03*
X12598Y12139D02*
D03*
D20*
X21673Y24560D02*
D03*
X21353Y24239D02*
D03*
X22717Y23516D02*
D03*
X22397Y23195D02*
D03*
X17466Y22093D02*
D03*
X17786Y22413D02*
D03*
X17187Y22371D02*
D03*
X17508Y22692D02*
D03*
X16951Y22135D02*
D03*
X16631Y21815D02*
D03*
X17229Y21856D02*
D03*
X16909Y21536D02*
D03*
D21*
X21781Y22552D02*
D03*
X22101Y22232D02*
D03*
X18664Y17064D02*
D03*
X18344Y17384D02*
D03*
D22*
X11006Y12126D02*
D03*
Y12500D02*
D03*
Y12874D02*
D03*
X12026D02*
D03*
Y12500D02*
D03*
Y12126D02*
D03*
X11006Y9764D02*
D03*
Y10138D02*
D03*
Y10512D02*
D03*
X12026D02*
D03*
Y10138D02*
D03*
Y9764D02*
D03*
D23*
X15354Y24705D02*
D03*
X15728Y23927D02*
D03*
X14980D02*
D03*
D24*
X11604Y28169D02*
D03*
Y28917D02*
D03*
X10827Y28543D02*
D03*
D25*
X21141Y22149D02*
D03*
X18009Y19017D02*
D03*
X22393Y20896D02*
D03*
X21976Y21314D02*
D03*
X22115Y21174D02*
D03*
X22254Y21035D02*
D03*
X21280Y22010D02*
D03*
X21419Y21870D02*
D03*
X21558Y21731D02*
D03*
X21697Y21592D02*
D03*
X21837Y21453D02*
D03*
X18844Y18182D02*
D03*
X19261Y17764D02*
D03*
X19122Y17903D02*
D03*
X18983Y18043D02*
D03*
X18148Y18878D02*
D03*
X18705Y18321D02*
D03*
X18566Y18460D02*
D03*
X18426Y18599D02*
D03*
X18287Y18738D02*
D03*
X20862Y22427D02*
D03*
X21001Y22288D02*
D03*
X20305Y22984D02*
D03*
X20445Y22845D02*
D03*
X20584Y22706D02*
D03*
X20723Y22566D02*
D03*
X17730Y19295D02*
D03*
X17870Y19156D02*
D03*
X17174Y19852D02*
D03*
X17591Y19434D02*
D03*
X17452Y19574D02*
D03*
X17313Y19713D02*
D03*
D26*
X21697Y19156D02*
D03*
X18566Y22288D02*
D03*
X22393Y19852D02*
D03*
X22254Y19713D02*
D03*
X22115Y19574D02*
D03*
X21976Y19434D02*
D03*
X21837Y19295D02*
D03*
X21280Y18738D02*
D03*
X21558Y19017D02*
D03*
X21419Y18878D02*
D03*
X21141Y18599D02*
D03*
X21001Y18460D02*
D03*
X20862Y18321D02*
D03*
X20723Y18182D02*
D03*
X20584Y18043D02*
D03*
X20445Y17903D02*
D03*
X20305Y17764D02*
D03*
X19261Y22984D02*
D03*
X18705Y22427D02*
D03*
X18844Y22566D02*
D03*
X18983Y22706D02*
D03*
X19122Y22845D02*
D03*
X18148Y21870D02*
D03*
X18287Y22010D02*
D03*
X18426Y22149D02*
D03*
X17174Y20896D02*
D03*
X17313Y21035D02*
D03*
X17452Y21174D02*
D03*
X17591Y21314D02*
D03*
X17730Y21453D02*
D03*
X17870Y21592D02*
D03*
X18009Y21731D02*
D03*
D27*
X16916Y22657D02*
D03*
X16666Y22406D02*
D03*
M02*
