G04*
G04 #@! TF.GenerationSoftware,Altium Limited,Altium Designer,19.1.5 (86)*
G04*
G04 Layer_Color=16711935*
%FSLAX44Y44*%
%MOMM*%
G71*
G01*
G75*
%ADD41O,1.6000X2.0000*%
G04:AMPARAMS|DCode=42|XSize=2mm|YSize=1.6mm|CornerRadius=0.2375mm|HoleSize=0mm|Usage=FLASHONLY|Rotation=90.000|XOffset=0mm|YOffset=0mm|HoleType=Round|Shape=RoundedRectangle|*
%AMROUNDEDRECTD42*
21,1,2.0000,1.1250,0,0,90.0*
21,1,1.5250,1.6000,0,0,90.0*
1,1,0.4750,0.5625,0.7625*
1,1,0.4750,0.5625,-0.7625*
1,1,0.4750,-0.5625,-0.7625*
1,1,0.4750,-0.5625,0.7625*
%
%ADD42ROUNDEDRECTD42*%
%ADD43C,0.1000*%
%ADD44R,1.8000X1.8000*%
%ADD45C,1.8000*%
%ADD46R,1.8000X1.8000*%
G04:AMPARAMS|DCode=47|XSize=1.9mm|YSize=1.1mm|CornerRadius=0.3mm|HoleSize=0mm|Usage=FLASHONLY|Rotation=45.000|XOffset=0mm|YOffset=0mm|HoleType=Round|Shape=RoundedRectangle|*
%AMROUNDEDRECTD47*
21,1,1.9000,0.5000,0,0,45.0*
21,1,1.3000,1.1000,0,0,45.0*
1,1,0.6000,0.6364,0.2828*
1,1,0.6000,-0.2828,-0.6364*
1,1,0.6000,-0.6364,-0.2828*
1,1,0.6000,0.2828,0.6364*
%
%ADD47ROUNDEDRECTD47*%
G04:AMPARAMS|DCode=48|XSize=1.8mm|YSize=1.8mm|CornerRadius=0.2625mm|HoleSize=0mm|Usage=FLASHONLY|Rotation=270.000|XOffset=0mm|YOffset=0mm|HoleType=Round|Shape=RoundedRectangle|*
%AMROUNDEDRECTD48*
21,1,1.8000,1.2750,0,0,270.0*
21,1,1.2750,1.8000,0,0,270.0*
1,1,0.5250,-0.6375,-0.6375*
1,1,0.5250,-0.6375,0.6375*
1,1,0.5250,0.6375,0.6375*
1,1,0.5250,0.6375,-0.6375*
%
%ADD48ROUNDEDRECTD48*%
%ADD49C,0.7000*%
%ADD50C,0.8000*%
%ADD72C,1.1144*%
D41*
X300000Y385000D02*
D03*
Y410400D02*
D03*
Y435800D02*
D03*
Y461200D02*
D03*
Y486600D02*
D03*
Y512000D02*
D03*
Y537400D02*
D03*
Y562800D02*
D03*
Y588200D02*
D03*
Y613600D02*
D03*
Y639000D02*
D03*
X776250D02*
D03*
Y613600D02*
D03*
Y588200D02*
D03*
Y562800D02*
D03*
Y537400D02*
D03*
Y512000D02*
D03*
Y486600D02*
D03*
Y461200D02*
D03*
Y435800D02*
D03*
Y410400D02*
D03*
Y385000D02*
D03*
Y359600D02*
D03*
D42*
X300000D02*
D03*
D43*
X250000Y190000D02*
D03*
Y810000D02*
D03*
D44*
X565400Y745000D02*
D03*
D45*
X540000D02*
D03*
X514600D02*
D03*
X489200D02*
D03*
X230000Y274600D02*
D03*
Y700000D02*
D03*
Y449200D02*
D03*
Y500000D02*
D03*
Y474600D02*
D03*
Y525400D02*
D03*
D46*
Y300000D02*
D03*
Y725400D02*
D03*
D47*
X560581Y598535D02*
D03*
X551600Y607515D02*
D03*
D48*
X230000Y550800D02*
D03*
D49*
X561027Y466773D02*
D03*
X552750Y461750D02*
D03*
X383250Y561250D02*
D03*
X423021Y579528D02*
D03*
X390578Y553078D02*
D03*
X570000Y405000D02*
D03*
X567528Y471773D02*
D03*
X322500Y682500D02*
D03*
X396348Y546348D02*
D03*
X362500Y510000D02*
D03*
X575000Y477500D02*
D03*
X355000Y517500D02*
D03*
X372500Y497500D02*
D03*
X542500Y410000D02*
D03*
X552500D02*
D03*
X562500Y407500D02*
D03*
D50*
X572500Y567500D02*
D03*
X565000Y577500D02*
D03*
X395000Y587500D02*
D03*
X462499Y442499D02*
D03*
X444999Y454999D02*
D03*
X270000Y257500D02*
D03*
Y317500D02*
D03*
X285000Y677500D02*
D03*
X370000Y727500D02*
D03*
X372500Y715000D02*
D03*
X372500Y737500D02*
D03*
X362500Y692500D02*
D03*
X362499Y702499D02*
D03*
X500000Y608061D02*
D03*
X425000Y620000D02*
D03*
X472500Y607500D02*
D03*
X415000Y387500D02*
D03*
X447500D02*
D03*
X437500D02*
D03*
X425000D02*
D03*
X417499Y424999D02*
D03*
X432500Y430000D02*
D03*
X445000Y417500D02*
D03*
X405000Y540000D02*
D03*
X467500Y427500D02*
D03*
X315000Y317500D02*
D03*
Y257500D02*
D03*
D72*
X461500Y612465D02*
D03*
X430000Y605000D02*
D03*
X430000Y631000D02*
D03*
M02*
