G04*
G04 #@! TF.GenerationSoftware,Altium Limited,Altium Designer,19.1.5 (86)*
G04*
G04 Layer_Color=65535*
%FSLAX24Y24*%
%MOIN*%
G70*
G01*
G75*
%ADD10C,0.0098*%
%ADD11C,0.0197*%
%ADD12C,0.0059*%
%ADD13C,0.0100*%
D10*
X12274Y11673D02*
G03*
X12274Y11673I-49J0D01*
G01*
Y9311D02*
G03*
X12274Y9311I-49J0D01*
G01*
X11211Y13857D02*
Y15657D01*
Y13857D02*
X11411Y13657D01*
X12202D02*
X12411Y13867D01*
X11411Y13657D02*
X12202D01*
X12411Y13867D02*
Y15657D01*
X11420Y25657D02*
X12211D01*
X11211Y25448D02*
X11420Y25657D01*
X12211D02*
X12411Y25457D01*
X30961Y25657D02*
X31161Y25457D01*
X29961Y25448D02*
X30170Y25657D01*
X30961D01*
X31161Y13867D02*
Y15657D01*
X30161Y13657D02*
X30952D01*
X31161Y13867D01*
X29961Y13857D02*
X30161Y13657D01*
X29961Y13857D02*
Y15657D01*
X8455Y17285D02*
X8655Y17085D01*
X9455D01*
X9655Y17285D01*
Y22085D01*
X9455Y22285D02*
X9655Y22085D01*
X8455Y22076D02*
X8665Y22285D01*
X9455D01*
X8455Y17285D02*
Y22076D01*
D11*
X19221Y23819D02*
G03*
X19221Y23819I-98J0D01*
G01*
X9154Y22685D02*
G03*
X9154Y22685I-98J0D01*
G01*
D12*
X16666Y22128D02*
G03*
X16387Y22406I-640J-362D01*
G01*
X16916Y22935D02*
G03*
X17194Y22657I640J362D01*
G01*
X14665Y24213D02*
X14665Y23622D01*
X16043D01*
X15669Y24587D02*
X15945D01*
Y24429D02*
Y24587D01*
X14764D02*
X15039D01*
X14764Y24429D02*
Y24587D01*
X15256Y24016D02*
X15453D01*
X14665Y24705D02*
X15059D01*
Y25000D01*
X15650Y24705D02*
Y25000D01*
Y24705D02*
X16043D01*
Y23622D02*
Y24705D01*
X15059Y25000D02*
X15650D01*
X14665Y24213D02*
X14665Y24705D01*
X8705Y10311D02*
X9405D01*
X8555Y12161D02*
X8705Y12311D01*
X8555Y10461D02*
Y12161D01*
Y10461D02*
X8705Y10311D01*
X9405D02*
X9555Y10461D01*
Y12161D01*
X9405Y12311D02*
X9555Y12161D01*
X8705Y12311D02*
X9405D01*
X8705Y27059D02*
X9405D01*
X8555Y28909D02*
X8705Y29059D01*
X8555Y27209D02*
Y28909D01*
Y27209D02*
X8705Y27059D01*
X9405D02*
X9555Y27209D01*
Y28909D01*
X9405Y29059D02*
X9555Y28909D01*
X8705Y29059D02*
X9405D01*
X10827Y27854D02*
X11319Y27854D01*
X10532Y28248D02*
Y28839D01*
X10827Y29232D02*
X11909D01*
X10827Y28839D02*
Y29232D01*
X10532Y28839D02*
X10827D01*
X10532Y28248D02*
X10827D01*
Y27854D02*
Y28248D01*
X11516Y28642D02*
X11516Y28445D01*
X10945Y27953D02*
X11102D01*
X10945D02*
Y28228D01*
Y29134D02*
X11102D01*
X10945Y28858D02*
Y29134D01*
X11909Y27854D02*
Y29232D01*
X11319Y27854D02*
X11909Y27854D01*
X16666Y22128D02*
X17194Y22657D01*
X16387Y22406D02*
X16916Y22935D01*
D13*
X11211Y15657D02*
Y25448D01*
X12411Y15657D02*
Y25457D01*
X31161Y15657D02*
Y25457D01*
X29961Y15657D02*
Y25448D01*
X10055Y10561D02*
Y11061D01*
Y11561D02*
Y12061D01*
X9805Y11811D02*
X10305D01*
X9955Y27309D02*
Y27809D01*
Y28309D02*
X9955Y28809D01*
X9705Y28559D02*
X10205D01*
X21222Y23847D02*
X21222Y23706D01*
X21222Y23847D02*
X21504Y24130D01*
X21929Y24554D01*
X22282Y23352D02*
X22707Y23776D01*
X21929Y24554D02*
X23696Y26322D01*
X24474Y25544D01*
X22707Y23776D02*
X24474Y25544D01*
X21929Y24554D02*
X22707Y23776D01*
X21999Y23069D02*
X22282Y23352D01*
X21858Y23069D02*
X21999Y23069D01*
X21222Y23706D02*
X21858Y23069D01*
X11256Y32342D02*
Y31742D01*
X11656D01*
X12256Y32242D02*
X12156Y32342D01*
X11956D01*
X11856Y32242D01*
Y31842D01*
X11956Y31742D01*
X12156D01*
X12256Y31842D01*
X12456Y32342D02*
Y31742D01*
X12756D01*
X12856Y31842D01*
Y32242D01*
X12756Y32342D01*
X12456D01*
X13055Y31742D02*
X13255D01*
X13155D01*
Y32342D01*
X13055Y32242D01*
X33071Y21654D02*
X32756D01*
Y21811D01*
X32808Y21863D01*
X32913D01*
X32966Y21811D01*
Y21654D01*
Y21758D02*
X33071Y21863D01*
Y22126D02*
Y22021D01*
X33018Y21968D01*
X32913D01*
X32861Y22021D01*
Y22126D01*
X32913Y22178D01*
X32966D01*
Y21968D01*
X32861Y22283D02*
X33071Y22388D01*
X32861Y22493D01*
X33071Y22598D02*
X33018D01*
Y22651D01*
X33071D01*
Y22598D01*
Y23175D02*
Y23280D01*
Y23228D01*
X32756D01*
X32808Y23175D01*
X33071Y23438D02*
X33018D01*
Y23490D01*
X33071D01*
Y23438D01*
X32808Y23700D02*
X32756Y23753D01*
Y23858D01*
X32808Y23910D01*
X33018D01*
X33071Y23858D01*
Y23753D01*
X33018Y23700D01*
X32808D01*
X33071Y13976D02*
X32756D01*
X32861Y14081D01*
X32756Y14186D01*
X33071D01*
X32861Y14344D02*
Y14449D01*
X32913Y14501D01*
X33071D01*
Y14344D01*
X33018Y14291D01*
X32966Y14344D01*
Y14501D01*
X32756Y14816D02*
X33071D01*
Y14659D01*
X33018Y14606D01*
X32913D01*
X32861Y14659D01*
Y14816D01*
X33071Y15078D02*
Y14973D01*
X33018Y14921D01*
X32913D01*
X32861Y14973D01*
Y15078D01*
X32913Y15131D01*
X32966D01*
Y14921D01*
X33071Y15551D02*
Y15656D01*
Y15603D01*
X32861D01*
Y15551D01*
X33071Y15813D02*
X32861D01*
Y15970D01*
X32913Y16023D01*
X33071D01*
X32756Y16443D02*
Y16548D01*
Y16495D01*
X33071D01*
Y16443D01*
Y16548D01*
Y16705D02*
X32861D01*
Y16863D01*
X32913Y16915D01*
X33071D01*
X32756Y17230D02*
X33071D01*
Y17072D01*
X33018Y17020D01*
X32913D01*
X32861Y17072D01*
Y17230D01*
X33071Y17335D02*
Y17440D01*
Y17387D01*
X32861D01*
Y17335D01*
Y17650D02*
Y17755D01*
X32913Y17807D01*
X33071D01*
Y17650D01*
X33018Y17597D01*
X32966Y17650D01*
Y17807D01*
X8268Y29724D02*
Y29462D01*
X8399Y29331D01*
X8530Y29462D01*
Y29724D01*
X8661D02*
Y29331D01*
X8858D01*
X8924Y29396D01*
Y29462D01*
X8858Y29527D01*
X8661D01*
X8858D01*
X8924Y29593D01*
Y29659D01*
X8858Y29724D01*
X8661D01*
X9055Y29331D02*
Y29593D01*
X9186Y29724D01*
X9317Y29593D01*
Y29331D01*
Y29527D01*
X9055D01*
X9448Y29724D02*
X9711D01*
X9580D01*
Y29331D01*
X12273Y27374D02*
X12231Y27415D01*
X12148D01*
X12106Y27374D01*
Y27207D01*
X12148Y27165D01*
X12231D01*
X12273Y27207D01*
X12523Y27165D02*
X12356D01*
X12523Y27332D01*
Y27374D01*
X12481Y27415D01*
X12398D01*
X12356Y27374D01*
X8630Y12887D02*
Y12721D01*
X8713Y12637D01*
X8797Y12721D01*
Y12887D01*
X8880D02*
Y12637D01*
X9047D01*
X9130D02*
X9213D01*
X9171D01*
Y12887D01*
X9130Y12846D01*
X21754Y24994D02*
X21931Y24817D01*
X22019Y24905D01*
Y24964D01*
X21990Y24994D01*
X21931Y24994D01*
X21843Y24905D01*
X21931Y24994D01*
Y25053D01*
X21901Y25082D01*
X21843D01*
X21754Y24994D01*
X22196Y25141D02*
X22078Y25259D01*
X22019D01*
X21960Y25200D01*
Y25141D01*
X22078Y25023D01*
X22137D01*
X22196Y25082D01*
X22108Y25112D02*
X22225Y25112D01*
X22196Y25082D02*
Y25141D01*
X22284Y25171D02*
X22343Y25229D01*
X22314Y25200D01*
X22137Y25377D01*
Y25318D01*
X10630Y9502D02*
Y9335D01*
X10713Y9252D01*
X10797Y9335D01*
Y9502D01*
X10880D02*
X11046D01*
X10963D01*
Y9252D01*
X11130Y9460D02*
X11171Y9502D01*
X11255D01*
X11296Y9460D01*
Y9419D01*
X11255Y9377D01*
X11213D01*
X11255D01*
X11296Y9335D01*
Y9294D01*
X11255Y9252D01*
X11171D01*
X11130Y9294D01*
X10532Y13439D02*
Y13272D01*
X10615Y13189D01*
X10698Y13272D01*
Y13439D01*
X10781D02*
X10948D01*
X10865D01*
Y13189D01*
X11198D02*
X11031D01*
X11198Y13356D01*
Y13397D01*
X11156Y13439D01*
X11073D01*
X11031Y13397D01*
X10728Y29581D02*
Y29414D01*
X10812Y29331D01*
X10895Y29414D01*
Y29581D01*
X10978D02*
X11145D01*
X11062D01*
Y29331D01*
X11228D02*
X11311D01*
X11270D01*
Y29581D01*
X11228Y29539D01*
X8573Y23389D02*
X8531Y23430D01*
X8448D01*
X8406Y23389D01*
Y23347D01*
X8448Y23305D01*
X8531D01*
X8573Y23264D01*
Y23222D01*
X8531Y23180D01*
X8448D01*
X8406Y23222D01*
X8656Y23430D02*
Y23180D01*
X8781D01*
X8823Y23222D01*
Y23264D01*
X8781Y23305D01*
X8656D01*
X8781D01*
X8823Y23347D01*
Y23389D01*
X8781Y23430D01*
X8656D01*
X8906Y23180D02*
X8989D01*
X8948D01*
Y23430D01*
X8906Y23389D01*
X13780Y9646D02*
Y9896D01*
X13904D01*
X13946Y9854D01*
Y9771D01*
X13904Y9729D01*
X13780D01*
X13863D02*
X13946Y9646D01*
X14029D02*
X14113D01*
X14071D01*
Y9896D01*
X14029Y9854D01*
X14238Y9646D02*
X14321D01*
X14279D01*
Y9896D01*
X14238Y9854D01*
X13386Y10925D02*
Y11175D01*
X13511D01*
X13552Y11133D01*
Y11050D01*
X13511Y11008D01*
X13386D01*
X13469D02*
X13552Y10925D01*
X13636D02*
X13719D01*
X13677D01*
Y11175D01*
X13636Y11133D01*
X13844D02*
X13886Y11175D01*
X13969D01*
X14011Y11133D01*
Y10967D01*
X13969Y10925D01*
X13886D01*
X13844Y10967D01*
Y11133D01*
X11811Y8661D02*
Y8911D01*
X11936D01*
X11978Y8870D01*
Y8786D01*
X11936Y8745D01*
X11811D01*
X11894D02*
X11978Y8661D01*
X12061Y8703D02*
X12103Y8661D01*
X12186D01*
X12228Y8703D01*
Y8870D01*
X12186Y8911D01*
X12103D01*
X12061Y8870D01*
Y8828D01*
X12103Y8786D01*
X12228D01*
X12795Y10925D02*
Y11175D01*
X12920D01*
X12962Y11133D01*
Y11050D01*
X12920Y11008D01*
X12795D01*
X12879D02*
X12962Y10925D01*
X13045Y11133D02*
X13087Y11175D01*
X13170D01*
X13212Y11133D01*
Y11092D01*
X13170Y11050D01*
X13212Y11008D01*
Y10967D01*
X13170Y10925D01*
X13087D01*
X13045Y10967D01*
Y11008D01*
X13087Y11050D01*
X13045Y11092D01*
Y11133D01*
X13087Y11050D02*
X13170D01*
X12894Y11516D02*
Y11766D01*
X13019D01*
X13060Y11724D01*
Y11641D01*
X13019Y11599D01*
X12894D01*
X12977D02*
X13060Y11516D01*
X13144Y11766D02*
X13310D01*
Y11724D01*
X13144Y11557D01*
Y11516D01*
X12697Y13287D02*
Y13537D01*
X12822D01*
X12863Y13496D01*
Y13412D01*
X12822Y13371D01*
X12697D01*
X12780D02*
X12863Y13287D01*
X13113Y13537D02*
X13030Y13496D01*
X12947Y13412D01*
Y13329D01*
X12988Y13287D01*
X13072D01*
X13113Y13329D01*
Y13371D01*
X13072Y13412D01*
X12947D01*
X13780Y12008D02*
Y12258D01*
X13904D01*
X13946Y12216D01*
Y12133D01*
X13904Y12091D01*
X13780D01*
X13863D02*
X13946Y12008D01*
X14196Y12258D02*
X14029D01*
Y12133D01*
X14113Y12174D01*
X14154D01*
X14196Y12133D01*
Y12050D01*
X14154Y12008D01*
X14071D01*
X14029Y12050D01*
X13484Y13287D02*
Y13537D01*
X13609D01*
X13651Y13496D01*
Y13412D01*
X13609Y13371D01*
X13484D01*
X13568D02*
X13651Y13287D01*
X13859D02*
Y13537D01*
X13734Y13412D01*
X13901D01*
X11417Y27461D02*
Y27711D01*
X11542D01*
X11584Y27669D01*
Y27586D01*
X11542Y27544D01*
X11417D01*
X11501D02*
X11584Y27461D01*
X11667Y27669D02*
X11709Y27711D01*
X11792D01*
X11834Y27669D01*
Y27627D01*
X11792Y27586D01*
X11751D01*
X11792D01*
X11834Y27544D01*
Y27502D01*
X11792Y27461D01*
X11709D01*
X11667Y27502D01*
X16831Y25492D02*
X16581D01*
Y25617D01*
X16622Y25659D01*
X16706D01*
X16747Y25617D01*
Y25492D01*
Y25575D02*
X16831Y25659D01*
Y25909D02*
Y25742D01*
X16664Y25909D01*
X16622D01*
X16581Y25867D01*
Y25784D01*
X16622Y25742D01*
X15748Y25689D02*
Y25939D01*
X15873D01*
X15915Y25897D01*
Y25814D01*
X15873Y25772D01*
X15748D01*
X15831D02*
X15915Y25689D01*
X15998D02*
X16081D01*
X16040D01*
Y25939D01*
X15998Y25897D01*
X16416Y23560D02*
Y23311D01*
X16582D01*
X16666D02*
X16749D01*
X16707D01*
Y23560D01*
X16666Y23519D01*
X19537Y20064D02*
X19714Y19887D01*
X19802Y19975D01*
Y20034D01*
X19684Y20152D01*
X19626D01*
X19537Y20064D01*
X19714Y20240D02*
X19891Y20064D01*
X19979Y20152D01*
Y20211D01*
X19861Y20329D01*
X19802D01*
X19714Y20240D01*
X20067D02*
X20126Y20299D01*
X20097Y20270D01*
X19920Y20446D01*
Y20388D01*
X16392Y24606D02*
X16142D01*
Y24481D01*
X16183Y24440D01*
X16350D01*
X16392Y24481D01*
Y24606D01*
X16142Y24356D02*
X16308D01*
X16392Y24273D01*
X16308Y24190D01*
X16142D01*
X16267D01*
Y24356D01*
X16142Y24106D02*
Y24023D01*
Y24065D01*
X16392D01*
X16350Y24106D01*
X10009Y19303D02*
X9967Y19344D01*
X9884D01*
X9843Y19303D01*
Y19136D01*
X9884Y19094D01*
X9967D01*
X10009Y19136D01*
X10092Y19094D02*
X10176D01*
X10134D01*
Y19344D01*
X10092Y19303D01*
X10301D02*
X10342Y19344D01*
X10426D01*
X10467Y19303D01*
Y19261D01*
X10426Y19219D01*
X10467Y19178D01*
Y19136D01*
X10426Y19094D01*
X10342D01*
X10301Y19136D01*
Y19178D01*
X10342Y19219D01*
X10301Y19261D01*
Y19303D01*
X10342Y19219D02*
X10426D01*
X10009Y21173D02*
X9967Y21214D01*
X9884D01*
X9843Y21173D01*
Y21006D01*
X9884Y20965D01*
X9967D01*
X10009Y21006D01*
X10092Y20965D02*
X10176D01*
X10134D01*
Y21214D01*
X10092Y21173D01*
X10301Y21214D02*
X10467D01*
Y21173D01*
X10301Y21006D01*
Y20965D01*
X19163Y16842D02*
X19121Y16884D01*
X19038D01*
X18996Y16842D01*
Y16676D01*
X19038Y16634D01*
X19121D01*
X19163Y16676D01*
X19246Y16634D02*
X19329D01*
X19288D01*
Y16884D01*
X19246Y16842D01*
X19621Y16884D02*
X19538Y16842D01*
X19454Y16759D01*
Y16676D01*
X19496Y16634D01*
X19579D01*
X19621Y16676D01*
Y16717D01*
X19579Y16759D01*
X19454D01*
X10009Y22157D02*
X9967Y22199D01*
X9884D01*
X9843Y22157D01*
Y21990D01*
X9884Y21949D01*
X9967D01*
X10009Y21990D01*
X10092Y21949D02*
X10176D01*
X10134D01*
Y22199D01*
X10092Y22157D01*
X10467Y22199D02*
X10301D01*
Y22074D01*
X10384Y22115D01*
X10426D01*
X10467Y22074D01*
Y21990D01*
X10426Y21949D01*
X10342D01*
X10301Y21990D01*
X22206Y22839D02*
Y22898D01*
X22147Y22957D01*
X22088D01*
X21970Y22839D01*
Y22780D01*
X22029Y22722D01*
X22088D01*
X22118Y22633D02*
X22177Y22574D01*
X22147Y22604D01*
X22324Y22780D01*
X22265D01*
X22353Y22398D02*
X22530Y22574D01*
X22353D01*
X22471Y22456D01*
X22667Y23064D02*
X22608D01*
X22549Y23005D01*
Y22946D01*
X22667Y22828D01*
X22726D01*
X22785Y22887D01*
Y22946D01*
X22873Y22975D02*
X22932Y23034D01*
X22903Y23005D01*
X22726Y23182D01*
Y23123D01*
X22873Y23270D02*
Y23329D01*
X22932Y23388D01*
X22991D01*
X23020Y23358D01*
Y23299D01*
X22991Y23270D01*
X23020Y23299D01*
X23079Y23299D01*
X23109Y23270D01*
Y23211D01*
X23050Y23152D01*
X22991D01*
X21066Y24665D02*
X21007D01*
X20948Y24606D01*
Y24547D01*
X21066Y24429D01*
X21125D01*
X21184Y24488D01*
Y24547D01*
X21272Y24576D02*
X21331Y24635D01*
X21302Y24606D01*
X21125Y24782D01*
Y24723D01*
X21538Y24841D02*
X21420Y24723D01*
Y24959D01*
X21390Y24989D01*
X21331D01*
X21272Y24930D01*
Y24871D01*
X15817Y20262D02*
X15775Y20221D01*
Y20137D01*
X15817Y20096D01*
X15984D01*
X16025Y20137D01*
Y20221D01*
X15984Y20262D01*
X16025Y20346D02*
Y20429D01*
Y20387D01*
X15775D01*
X15817Y20346D01*
X16025Y20554D02*
Y20637D01*
Y20595D01*
X15775D01*
X15817Y20554D01*
X16483Y21265D02*
X16424D01*
X16365Y21207D01*
Y21148D01*
X16483Y21030D01*
X16542D01*
X16601Y21089D01*
Y21148D01*
X16689Y21177D02*
X16748Y21236D01*
X16719Y21207D01*
X16542Y21383D01*
Y21324D01*
X16689Y21472D02*
Y21531D01*
X16748Y21589D01*
X16807D01*
X16925Y21472D01*
Y21413D01*
X16866Y21354D01*
X16807D01*
X16689Y21472D01*
X16205Y21544D02*
X16146D01*
X16087Y21485D01*
Y21426D01*
X16205Y21308D01*
X16263D01*
X16322Y21367D01*
Y21426D01*
X16381Y21485D02*
X16440D01*
X16499Y21544D01*
Y21603D01*
X16381Y21721D01*
X16322D01*
X16263Y21662D01*
Y21603D01*
X16293Y21573D01*
X16352D01*
X16440Y21662D01*
X11092Y11429D02*
X11050Y11470D01*
X10967D01*
X10925Y11429D01*
Y11262D01*
X10967Y11220D01*
X11050D01*
X11092Y11262D01*
X11175Y11429D02*
X11217Y11470D01*
X11300D01*
X11342Y11429D01*
Y11387D01*
X11300Y11345D01*
X11342Y11304D01*
Y11262D01*
X11300Y11220D01*
X11217D01*
X11175Y11262D01*
Y11304D01*
X11217Y11345D01*
X11175Y11387D01*
Y11429D01*
X11217Y11345D02*
X11300D01*
X17736Y23075D02*
X17677D01*
X17618Y23016D01*
Y22957D01*
X17736Y22839D01*
X17795D01*
X17854Y22898D01*
Y22957D01*
X17765Y23163D02*
X17883Y23281D01*
X17912Y23252D01*
Y23016D01*
X17942Y22987D01*
X18014Y22797D02*
X17955D01*
X17896Y22738D01*
Y22679D01*
X18014Y22561D01*
X18073D01*
X18132Y22620D01*
Y22679D01*
X18161Y23003D02*
X18132Y22914D01*
Y22797D01*
X18191Y22738D01*
X18250D01*
X18309Y22797D01*
Y22856D01*
X18279Y22885D01*
X18220Y22885D01*
X18132Y22797D01*
X16055Y23357D02*
X16096Y23399D01*
Y23482D01*
X16055Y23524D01*
X15888D01*
X15846Y23482D01*
Y23399D01*
X15888Y23357D01*
X16096Y23107D02*
Y23274D01*
X15971D01*
X16013Y23190D01*
Y23149D01*
X15971Y23107D01*
X15888D01*
X15846Y23149D01*
Y23232D01*
X15888Y23274D01*
X14086Y24144D02*
X14128Y24186D01*
Y24269D01*
X14086Y24311D01*
X13920D01*
X13878Y24269D01*
Y24186D01*
X13920Y24144D01*
X13878Y23936D02*
X14128D01*
X14003Y24061D01*
Y23894D01*
X17883Y24421D02*
X17841Y24463D01*
X17758D01*
X17717Y24421D01*
Y24254D01*
X17758Y24213D01*
X17841D01*
X17883Y24254D01*
X17966Y24421D02*
X18008Y24463D01*
X18091D01*
X18133Y24421D01*
Y24379D01*
X18091Y24338D01*
X18050D01*
X18091D01*
X18133Y24296D01*
Y24254D01*
X18091Y24213D01*
X18008D01*
X17966Y24254D01*
X17194Y25700D02*
X17153Y25742D01*
X17069D01*
X17028Y25700D01*
Y25534D01*
X17069Y25492D01*
X17153D01*
X17194Y25534D01*
X17277Y25492D02*
X17361D01*
X17319D01*
Y25742D01*
X17277Y25700D01*
M02*
