G04*
G04 #@! TF.GenerationSoftware,Altium Limited,Altium Designer,19.1.5 (86)*
G04*
G04 Layer_Physical_Order=2*
G04 Layer_Color=16711680*
%FSLAX24Y24*%
%MOIN*%
G70*
G01*
G75*
%ADD11C,0.0197*%
%ADD13C,0.0100*%
%ADD59C,0.0118*%
%ADD60C,0.0295*%
G04:AMPARAMS|DCode=62|XSize=74.8mil|YSize=59.1mil|CornerRadius=7.4mil|HoleSize=0mil|Usage=FLASHONLY|Rotation=90.000|XOffset=0mil|YOffset=0mil|HoleType=Round|Shape=RoundedRectangle|*
%AMROUNDEDRECTD62*
21,1,0.0748,0.0443,0,0,90.0*
21,1,0.0600,0.0591,0,0,90.0*
1,1,0.0148,0.0221,0.0300*
1,1,0.0148,0.0221,-0.0300*
1,1,0.0148,-0.0221,-0.0300*
1,1,0.0148,-0.0221,0.0300*
%
%ADD62ROUNDEDRECTD62*%
%ADD63O,0.0591X0.0748*%
%ADD64R,0.0669X0.0669*%
%ADD65C,0.0669*%
%ADD66R,0.0669X0.0669*%
G04:AMPARAMS|DCode=67|XSize=70.9mil|YSize=39.4mil|CornerRadius=9.8mil|HoleSize=0mil|Usage=FLASHONLY|Rotation=45.000|XOffset=0mil|YOffset=0mil|HoleType=Round|Shape=RoundedRectangle|*
%AMROUNDEDRECTD67*
21,1,0.0709,0.0197,0,0,45.0*
21,1,0.0512,0.0394,0,0,45.0*
1,1,0.0197,0.0251,0.0111*
1,1,0.0197,-0.0111,-0.0251*
1,1,0.0197,-0.0251,-0.0111*
1,1,0.0197,0.0111,0.0251*
%
%ADD67ROUNDEDRECTD67*%
G04:AMPARAMS|DCode=68|XSize=66.9mil|YSize=66.9mil|CornerRadius=8.4mil|HoleSize=0mil|Usage=FLASHONLY|Rotation=270.000|XOffset=0mil|YOffset=0mil|HoleType=Round|Shape=RoundedRectangle|*
%AMROUNDEDRECTD68*
21,1,0.0669,0.0502,0,0,270.0*
21,1,0.0502,0.0669,0,0,270.0*
1,1,0.0167,-0.0251,-0.0251*
1,1,0.0167,-0.0251,0.0251*
1,1,0.0167,0.0251,0.0251*
1,1,0.0167,0.0251,-0.0251*
%
%ADD68ROUNDEDRECTD68*%
%ADD69C,0.0236*%
%ADD70C,0.0276*%
%ADD71C,0.0360*%
D11*
X20662Y20465D02*
X22539Y22343D01*
X22835Y21260D02*
Y22192D01*
X22854Y22212D01*
Y22473D01*
X22606Y22721D02*
X22854Y22473D01*
X22244Y22736D02*
X22259Y22721D01*
X19096Y22816D02*
X22024Y25744D01*
X16654Y22816D02*
X19096D01*
X16652D02*
X16654D01*
X16339Y23130D02*
X16652Y22816D01*
X16654D02*
Y22855D01*
X16929Y23130D01*
X15551Y22244D02*
Y23130D01*
X16339D01*
X18406Y16831D02*
X22835Y21260D01*
X22259Y22721D02*
X22606D01*
X22024Y25744D02*
Y29094D01*
X17894Y17291D02*
X18354Y16831D01*
X17894Y17291D02*
Y18091D01*
X18110Y18307D01*
X18354Y16831D02*
X18406D01*
X18209Y17421D02*
Y17618D01*
X18799Y18209D01*
X22024Y29094D02*
X22260Y29331D01*
X18799Y18209D02*
X20662Y20071D01*
Y20465D01*
X16929Y23130D02*
Y23819D01*
X15551Y22244D02*
X18799Y18996D01*
X15945Y21260D02*
X18110Y19094D01*
Y18307D02*
Y19094D01*
X18799Y18209D02*
Y18996D01*
D13*
X11623Y27972D02*
X14440D01*
X8413Y24762D02*
X11623Y27972D01*
X11420Y27264D02*
X14272D01*
X8780Y24623D02*
X11420Y27264D01*
X8780Y21961D02*
Y24623D01*
X11561Y27657D02*
X14272D01*
X8592Y24688D02*
X11561Y27657D01*
X8592Y21346D02*
Y24688D01*
X8413Y20327D02*
Y24762D01*
X12040Y28642D02*
X14567D01*
X8234Y24836D02*
X12040Y28642D01*
X8234Y19506D02*
Y24836D01*
X12181Y29035D02*
X14665D01*
X8056Y24910D02*
X12181Y29035D01*
X8056Y18685D02*
Y24910D01*
X8413Y20327D02*
X9055Y19685D01*
X8234Y19506D02*
X9055Y18685D01*
X8056Y18685D02*
X9055Y17685D01*
X8592Y21346D02*
X8611Y21326D01*
Y21129D02*
Y21326D01*
X8780Y21961D02*
X9055Y21685D01*
X22088Y16477D02*
Y18377D01*
X21752Y16142D02*
X22088Y16477D01*
X21762Y16545D02*
Y18179D01*
X21358Y16142D02*
X21762Y16545D01*
X15089Y21978D02*
Y22096D01*
X13976Y20866D02*
X15089Y21978D01*
X15377Y21184D02*
Y21775D01*
X20148Y29218D02*
X20260Y29331D01*
X20148Y25463D02*
Y29218D01*
X18602Y23917D02*
X20148Y25463D01*
X22441Y15945D02*
X22697Y16201D01*
X22344Y18567D02*
Y18574D01*
X22343Y18565D02*
X22344Y18567D01*
X22638Y18799D02*
X22697Y18740D01*
Y16201D02*
Y18740D01*
X16732Y17126D02*
X17520Y17913D01*
X16732Y15256D02*
Y17126D01*
X14440Y27972D02*
X14618Y28150D01*
X14665D01*
X8611Y21129D02*
X9055Y20685D01*
X20435Y24689D02*
Y28506D01*
X21260Y29331D01*
X19685Y23939D02*
X20435Y24689D01*
X18569Y23951D02*
X18602Y23917D01*
X18401Y23951D02*
X18569D01*
X18240Y24113D02*
X18401Y23951D01*
X18169Y24113D02*
X18240D01*
X16437Y15354D02*
Y16732D01*
X16339Y15256D02*
X16437Y15354D01*
X17618Y15256D02*
Y15453D01*
X17520Y15551D02*
X17618Y15453D01*
X17028Y15453D02*
Y16929D01*
Y15453D02*
X17224Y15256D01*
X17520Y15551D02*
Y16437D01*
X13976Y20374D02*
Y20866D01*
X15604Y20624D02*
Y21510D01*
X14691Y19711D02*
X15604Y20624D01*
X14272Y20079D02*
X15377Y21184D01*
X14665Y19587D02*
X14691Y19613D01*
Y19711D01*
X22471Y16369D02*
Y18437D01*
X22343Y18565D02*
X22471Y18437D01*
X22146Y16043D02*
X22471Y16369D01*
D59*
X16732Y24409D02*
X19260Y26937D01*
Y29331D01*
D60*
X10630Y12500D02*
Y26083D01*
X11220Y26673D01*
X10630Y10138D02*
Y12500D01*
X12500Y26870D02*
X12697D01*
X11122Y25492D02*
X12500Y26870D01*
X11122Y13780D02*
Y25492D01*
Y13780D02*
X12402Y12500D01*
Y10138D02*
Y12500D01*
D62*
X11811Y14157D02*
D03*
D63*
X30561D02*
D03*
Y15157D02*
D03*
Y16157D02*
D03*
Y17157D02*
D03*
Y18157D02*
D03*
Y19157D02*
D03*
Y20157D02*
D03*
Y21157D02*
D03*
Y22157D02*
D03*
Y23157D02*
D03*
Y24157D02*
D03*
Y25157D02*
D03*
X11811D02*
D03*
Y24157D02*
D03*
Y23157D02*
D03*
Y22157D02*
D03*
Y21157D02*
D03*
Y20157D02*
D03*
Y19157D02*
D03*
Y18157D02*
D03*
Y17157D02*
D03*
Y16157D02*
D03*
Y15157D02*
D03*
D64*
X22260Y29331D02*
D03*
D65*
X21260D02*
D03*
X20260D02*
D03*
X19260D02*
D03*
X9055Y10811D02*
D03*
Y27559D02*
D03*
Y17685D02*
D03*
Y19685D02*
D03*
Y18685D02*
D03*
Y20685D02*
D03*
D66*
Y11811D02*
D03*
Y28559D02*
D03*
D67*
X22070Y23564D02*
D03*
X21717Y23918D02*
D03*
D68*
X9055Y21685D02*
D03*
D69*
X22088Y18377D02*
D03*
X21762Y18179D02*
D03*
X15089Y22096D02*
D03*
X16654Y22816D02*
D03*
X15377Y21775D02*
D03*
X22441Y15945D02*
D03*
X22344Y18574D02*
D03*
X12697Y26870D02*
D03*
X15604Y21510D02*
D03*
X14272Y20079D02*
D03*
X22638Y18799D02*
D03*
X13976Y20374D02*
D03*
X14665Y19587D02*
D03*
X21358Y16142D02*
D03*
X21752D02*
D03*
X22146Y16043D02*
D03*
D70*
X22539Y22343D02*
D03*
X22244Y22736D02*
D03*
X15551Y23130D02*
D03*
X18209Y17421D02*
D03*
X17520Y17913D02*
D03*
X10630Y10138D02*
D03*
Y12500D02*
D03*
X11220Y26673D02*
D03*
X14567Y28642D02*
D03*
X14665Y28150D02*
D03*
X14665Y29035D02*
D03*
X14272Y27264D02*
D03*
X14272Y27657D02*
D03*
X19685Y23939D02*
D03*
X16732Y24409D02*
D03*
X18602Y23917D02*
D03*
X16339Y15256D02*
D03*
X17618D02*
D03*
X17224D02*
D03*
X16732D02*
D03*
X16437Y16732D02*
D03*
X17028Y16929D02*
D03*
X17520Y16437D02*
D03*
X15945Y21260D02*
D03*
X18406Y16831D02*
D03*
X12402Y12500D02*
D03*
Y10138D02*
D03*
D71*
X18169Y24113D02*
D03*
X16929Y23819D02*
D03*
X16929Y24843D02*
D03*
M02*
