M48
;Layer_Color=9474304
;FILE_FORMAT=4:4
METRIC,LZ
;TYPE=PLATED
T1F00S00C0.3000
T2F00S00C0.5000
T3F00S00C1.0000
T4F00S00C1.1000
%
T01
X0027Y002575
X00315
Y003175
X0027
X00415Y003875
X00425
X004375
X004475
X00445Y004175
X004325Y0043
X00417499Y00424999
X004675Y004275
X00462499Y00442499
X00444999Y00454999
X0055275Y0046175
X00561027Y00466773
X00567528Y00471773
X00575Y004775
X0057Y00405
X005625Y004075
X005525Y0041
X005425
X005725Y005675
X00565Y005775
X005Y00608061
X004725Y006075
X00425Y0062
X00423021Y00579528
X00405Y0054
X00396348Y00546348
X00390578Y00553078
X0038325Y0056125
X00395Y005875
X003625Y0051
X00355Y005175
X003725Y004975
X003625Y006925
X00362499Y00702499
X003725Y00715
X0037Y007275
X003725Y007375
X003225Y006825
X00285Y006775
T02
X00560581Y00598535
X005516Y00607515
T03
X003Y003596
Y00385
X0077625
Y003596
Y004104
Y004358
Y004612
Y004866
Y00512
Y005374
Y005628
Y005882
Y006136
Y00639
X003
Y006136
Y005882
Y005628
Y005374
Y00512
Y004866
Y004612
Y004358
Y004104
X0023Y004492
Y004746
Y005
Y005254
Y005508
T04
X0023Y002746
Y003
X004892Y00745
X005146
X0054
X005654
X0023Y007254
Y007
M30
