G04*
G04 #@! TF.GenerationSoftware,Altium Limited,Altium Designer,19.1.5 (86)*
G04*
G04 Layer_Color=65535*
%FSLAX44Y44*%
%MOMM*%
G71*
G01*
G75*
%ADD10C,0.2500*%
%ADD11C,0.5000*%
%ADD12C,0.1500*%
%ADD13C,0.2540*%
D10*
X311750Y296500D02*
G03*
X311750Y296500I-1250J0D01*
G01*
Y236500D02*
G03*
X311750Y236500I-1250J0D01*
G01*
X761010Y351980D02*
Y397700D01*
Y351980D02*
X766090Y346900D01*
X786170D02*
X791490Y352220D01*
X766090Y346900D02*
X786170D01*
X791490Y352220D02*
Y397700D01*
X766330Y651700D02*
X786410D01*
X761010Y646380D02*
X766330Y651700D01*
X786410D02*
X791490Y646620D01*
X310160Y651700D02*
X315240Y646620D01*
X284760Y646380D02*
X290080Y651700D01*
X310160D01*
X315240Y352220D02*
Y397700D01*
X289840Y346900D02*
X309920D01*
X315240Y352220D01*
X284760Y351980D02*
X289840Y346900D01*
X284760Y351980D02*
Y397700D01*
X214760Y439040D02*
X219840Y433960D01*
X240160D01*
X245240Y439040D01*
Y560960D01*
X240160Y566040D02*
X245240Y560960D01*
X214760Y560720D02*
X220080Y566040D01*
X240160D01*
X214760Y439040D02*
Y560720D01*
D11*
X488206Y605004D02*
G03*
X488206Y605004I-2500J0D01*
G01*
X232500Y576200D02*
G03*
X232500Y576200I-2500J0D01*
G01*
D12*
X423304Y562048D02*
G03*
X416233Y569119I-16263J-9192D01*
G01*
X429668Y582554D02*
G03*
X436739Y575483I16263J9192D01*
G01*
X372500Y615000D02*
X372500Y600000D01*
X407500D01*
X398000Y624500D02*
X405000D01*
Y620500D02*
Y624500D01*
X375000D02*
X382000D01*
X375000Y620500D02*
Y624500D01*
X387500Y610000D02*
X392500D01*
X372500Y627500D02*
X382500D01*
Y635000D01*
X397500Y627500D02*
Y635000D01*
Y627500D02*
X407500D01*
Y600000D02*
Y627500D01*
X382500Y635000D02*
X397500D01*
X372500Y615000D02*
X372500Y627500D01*
X221110Y261907D02*
X238890D01*
X217300Y308890D02*
X221110Y312700D01*
X217300Y265710D02*
Y308890D01*
Y265710D02*
X221110Y261900D01*
X238890D02*
X242700Y265710D01*
Y308890D01*
X238890Y312700D02*
X242700Y308890D01*
X221110Y312700D02*
X238890D01*
X221110Y687307D02*
X238890D01*
X217300Y734290D02*
X221110Y738100D01*
X217300Y691110D02*
Y734290D01*
Y691110D02*
X221110Y687300D01*
X238890D02*
X242700Y691110D01*
Y734290D01*
X238890Y738100D02*
X242700Y734290D01*
X221110Y738100D02*
X238890D01*
X275000Y707500D02*
X287500Y707500D01*
X267500Y717500D02*
Y732500D01*
X275000Y742500D02*
X302500D01*
X275000Y732500D02*
Y742500D01*
X267500Y732500D02*
X275000D01*
X267500Y717500D02*
X275000D01*
Y707500D02*
Y717500D01*
X292500Y727500D02*
X292500Y722500D01*
X278000Y710000D02*
X282000D01*
X278000D02*
Y717000D01*
Y740000D02*
X282000D01*
X278000Y733000D02*
Y740000D01*
X302500Y707500D02*
Y742500D01*
X287500Y707500D02*
X302500Y707500D01*
X423304Y562048D02*
X436739Y575483D01*
X416233Y569119D02*
X429668Y582554D01*
D13*
X761010Y397700D02*
Y646380D01*
X791490Y397700D02*
Y646620D01*
X315240Y397700D02*
Y646620D01*
X284760Y397700D02*
Y646380D01*
X255400Y268250D02*
Y280950D01*
Y293650D02*
Y306350D01*
X249050Y300000D02*
X261750D01*
X252860Y693650D02*
Y706350D01*
Y719050D02*
X252860Y731750D01*
X246510Y725400D02*
X259210D01*
X539028Y605719D02*
X539028Y602127D01*
X539028Y605719D02*
X546212Y612903D01*
X556989Y623679D01*
X565969Y593146D02*
X576745Y603923D01*
X556989Y623679D02*
X601890Y668580D01*
X621646Y648824D01*
X576745Y603923D02*
X621646Y648824D01*
X556989Y623679D02*
X576745Y603923D01*
X558785Y585962D02*
X565969Y593146D01*
X555193Y585962D02*
X558785Y585962D01*
X539028Y602127D02*
X555193Y585962D01*
X806601Y547540D02*
X798604D01*
X801270Y550206D01*
X798604Y552872D01*
X806601D01*
X801270Y556870D02*
Y559536D01*
X802603Y560869D01*
X806601D01*
Y556870D01*
X805268Y555537D01*
X803935Y556870D01*
Y560869D01*
X798604Y568867D02*
X806601D01*
Y564868D01*
X805268Y563535D01*
X802603D01*
X801270Y564868D01*
Y568867D01*
X806601Y575531D02*
Y572865D01*
X805268Y571532D01*
X802603D01*
X801270Y572865D01*
Y575531D01*
X802603Y576864D01*
X803935D01*
Y571532D01*
X806601Y587527D02*
Y590193D01*
Y588860D01*
X801270D01*
Y587527D01*
X806601Y594192D02*
X801270D01*
Y598190D01*
X802603Y599523D01*
X806601D01*
X814297Y547540D02*
Y550206D01*
Y548873D01*
X822294D01*
Y547540D01*
Y550206D01*
Y554204D02*
X816963D01*
Y558203D01*
X818296Y559536D01*
X822294D01*
X814297Y567534D02*
X822294D01*
Y563535D01*
X820961Y562202D01*
X818296D01*
X816963Y563535D01*
Y567534D01*
X822294Y570199D02*
Y572865D01*
Y571532D01*
X816963D01*
Y570199D01*
Y578197D02*
Y580863D01*
X818296Y582196D01*
X822294D01*
Y578197D01*
X820961Y576864D01*
X819628Y578197D01*
Y582196D01*
X823627Y586194D02*
X822294Y587527D01*
X820961D01*
Y586194D01*
X822294D01*
Y587527D01*
X823627Y586194D01*
X824960Y584861D01*
X822294Y606188D02*
Y600856D01*
X816963Y606188D01*
X815630D01*
X814297Y604855D01*
Y602189D01*
X815630Y600856D01*
Y608854D02*
X814297Y610187D01*
Y612852D01*
X815630Y614185D01*
X820961D01*
X822294Y612852D01*
Y610187D01*
X820961Y608854D01*
X815630D01*
X822294Y622183D02*
Y616851D01*
X816963Y622183D01*
X815630D01*
X814297Y620850D01*
Y618184D01*
X815630Y616851D01*
X822294Y624848D02*
Y627514D01*
Y626181D01*
X814297D01*
X815630Y624848D01*
X420000Y810497D02*
Y802500D01*
X425332D01*
X433329Y809165D02*
X431996Y810497D01*
X429330D01*
X427997Y809165D01*
Y803833D01*
X429330Y802500D01*
X431996D01*
X433329Y803833D01*
X435995Y810497D02*
Y802500D01*
X439994D01*
X441326Y803833D01*
Y809165D01*
X439994Y810497D01*
X435995D01*
X443992Y802500D02*
X446658D01*
X445325D01*
Y810497D01*
X443992Y809165D01*
X247500Y572500D02*
Y580497D01*
X251499D01*
X252832Y579165D01*
Y576499D01*
X251499Y575166D01*
X247500D01*
X250166D02*
X252832Y572500D01*
X255497D02*
X258163D01*
X256830D01*
Y580497D01*
X255497Y579165D01*
X267493Y572500D02*
X262162D01*
X267493Y577832D01*
Y579165D01*
X266161Y580497D01*
X263495D01*
X262162Y579165D01*
X272500Y535000D02*
X266845Y540655D01*
X269673Y543483D01*
X271558D01*
X273442Y541598D01*
X273442Y539712D01*
X270615Y536885D01*
X272500Y538770D02*
X276270D01*
X278155Y540655D02*
X280040Y542540D01*
X279097Y541598D01*
X273442Y547253D01*
X273442Y545368D01*
X278155Y550080D02*
X278155Y551965D01*
X280040Y553850D01*
X281925D01*
X282868Y552908D01*
Y551023D01*
X281925Y550080D01*
X282868Y551023D01*
X284753D01*
X285695Y550080D01*
X285695Y548195D01*
X283810Y546310D01*
X281925D01*
X252500Y470000D02*
Y477997D01*
X256499D01*
X257832Y476665D01*
Y473999D01*
X256499Y472666D01*
X252500D01*
X255166D02*
X257832Y470000D01*
X260497D02*
X263163D01*
X261830D01*
Y477997D01*
X260497Y476665D01*
X271161Y470000D02*
Y477997D01*
X267162Y473999D01*
X272494D01*
X840000Y550000D02*
X832003D01*
Y553999D01*
X833335Y555332D01*
X836001D01*
X837334Y553999D01*
Y550000D01*
Y552666D02*
X840000Y555332D01*
Y561996D02*
Y559330D01*
X838667Y557997D01*
X836001D01*
X834668Y559330D01*
Y561996D01*
X836001Y563329D01*
X837334D01*
Y557997D01*
X834668Y565995D02*
X840000Y568661D01*
X834668Y571326D01*
X840000Y573992D02*
X838667D01*
Y575325D01*
X840000D01*
Y573992D01*
Y588654D02*
Y591320D01*
Y589987D01*
X832003D01*
X833335Y588654D01*
X840000Y595319D02*
X838667D01*
Y596652D01*
X840000D01*
Y595319D01*
Y601983D02*
Y604649D01*
Y603316D01*
X832003D01*
X833335Y601983D01*
X210000Y754997D02*
Y748332D01*
X213332Y745000D01*
X216665Y748332D01*
Y754997D01*
X219997D02*
Y745000D01*
X224995D01*
X226661Y746666D01*
Y748332D01*
X224995Y749998D01*
X219997D01*
X224995D01*
X226661Y751665D01*
Y753331D01*
X224995Y754997D01*
X219997D01*
X229994Y745000D02*
Y751665D01*
X233326Y754997D01*
X236658Y751665D01*
Y745000D01*
Y749998D01*
X229994D01*
X239990Y754997D02*
X246655D01*
X243323D01*
Y745000D01*
X312832Y696665D02*
X311499Y697997D01*
X308833D01*
X307500Y696665D01*
Y691333D01*
X308833Y690000D01*
X311499D01*
X312832Y691333D01*
X320829Y690000D02*
X315497D01*
X320829Y695332D01*
Y696665D01*
X319496Y697997D01*
X316830D01*
X315497Y696665D01*
X219202Y329053D02*
Y323722D01*
X221868Y321056D01*
X224534Y323722D01*
Y329053D01*
X227199D02*
Y321056D01*
X232531D01*
X235197D02*
X237863D01*
X236530D01*
Y329053D01*
X235197Y327720D01*
X551390Y636009D02*
X557045Y630354D01*
X559873Y633182D01*
X559873Y635067D01*
X558930Y636009D01*
X557045Y636009D01*
X554218Y633182D01*
X557045Y636009D01*
Y637894D01*
X556103Y638837D01*
X554218D01*
X551390Y636009D01*
X565528Y640722D02*
X561758Y644492D01*
X559873D01*
X557988Y642607D01*
X557988Y640722D01*
X561758Y636952D01*
X563643D01*
X565528Y638837D01*
X562700Y639779D02*
X566470D01*
X565528Y638837D02*
X565528Y640722D01*
X568355Y641664D02*
X570240Y643549D01*
X569298Y642607D01*
X563643Y648262D01*
X563643Y646377D01*
X270000Y242997D02*
Y237666D01*
X272666Y235000D01*
X275332Y237666D01*
Y242997D01*
X277997D02*
X283329D01*
X280663D01*
Y235000D01*
X285995Y241665D02*
X287328Y242997D01*
X289994D01*
X291326Y241665D01*
Y240332D01*
X289994Y238999D01*
X288661D01*
X289994D01*
X291326Y237666D01*
Y236333D01*
X289994Y235000D01*
X287328D01*
X285995Y236333D01*
X267500Y342997D02*
Y337666D01*
X270166Y335000D01*
X272832Y337666D01*
Y342997D01*
X275497D02*
X280829D01*
X278163D01*
Y335000D01*
X288826D02*
X283495D01*
X288826Y340332D01*
Y341665D01*
X287494Y342997D01*
X284828D01*
X283495Y341665D01*
X272500Y752997D02*
Y747666D01*
X275166Y745000D01*
X277832Y747666D01*
Y752997D01*
X280497D02*
X285829D01*
X283163D01*
Y745000D01*
X288495D02*
X291161D01*
X289828D01*
Y752997D01*
X288495Y751665D01*
X218946Y595437D02*
X217613Y596769D01*
X214947D01*
X213614Y595437D01*
Y594104D01*
X214947Y592771D01*
X217613D01*
X218946Y591438D01*
Y590105D01*
X217613Y588772D01*
X214947D01*
X213614Y590105D01*
X221611Y596769D02*
Y588772D01*
X225610D01*
X226943Y590105D01*
Y591438D01*
X225610Y592771D01*
X221611D01*
X225610D01*
X226943Y594104D01*
Y595437D01*
X225610Y596769D01*
X221611D01*
X229609Y588772D02*
X232275D01*
X230942D01*
Y596769D01*
X229609Y595437D01*
X350000Y245000D02*
Y252997D01*
X353999D01*
X355332Y251665D01*
Y248999D01*
X353999Y247666D01*
X350000D01*
X352666D02*
X355332Y245000D01*
X357997D02*
X360663D01*
X359330D01*
Y252997D01*
X357997Y251665D01*
X364662Y245000D02*
X367328D01*
X365995D01*
Y252997D01*
X364662Y251665D01*
X340000Y277500D02*
Y285497D01*
X343999D01*
X345332Y284165D01*
Y281499D01*
X343999Y280166D01*
X340000D01*
X342666D02*
X345332Y277500D01*
X347997D02*
X350663D01*
X349330D01*
Y285497D01*
X347997Y284165D01*
X354662D02*
X355995Y285497D01*
X358661D01*
X359994Y284165D01*
Y278833D01*
X358661Y277500D01*
X355995D01*
X354662Y278833D01*
Y284165D01*
X300000Y220000D02*
Y227997D01*
X303999D01*
X305332Y226665D01*
Y223999D01*
X303999Y222666D01*
X300000D01*
X302666D02*
X305332Y220000D01*
X307997Y221333D02*
X309330Y220000D01*
X311996D01*
X313329Y221333D01*
Y226665D01*
X311996Y227997D01*
X309330D01*
X307997Y226665D01*
Y225332D01*
X309330Y223999D01*
X313329D01*
X325000Y277500D02*
Y285497D01*
X328999D01*
X330332Y284165D01*
Y281499D01*
X328999Y280166D01*
X325000D01*
X327666D02*
X330332Y277500D01*
X332997Y284165D02*
X334330Y285497D01*
X336996D01*
X338329Y284165D01*
Y282832D01*
X336996Y281499D01*
X338329Y280166D01*
Y278833D01*
X336996Y277500D01*
X334330D01*
X332997Y278833D01*
Y280166D01*
X334330Y281499D01*
X332997Y282832D01*
Y284165D01*
X334330Y281499D02*
X336996D01*
X327500Y292500D02*
Y300497D01*
X331499D01*
X332832Y299165D01*
Y296499D01*
X331499Y295166D01*
X327500D01*
X330166D02*
X332832Y292500D01*
X335497Y300497D02*
X340829D01*
Y299165D01*
X335497Y293833D01*
Y292500D01*
X322500Y337500D02*
Y345497D01*
X326499D01*
X327832Y344165D01*
Y341499D01*
X326499Y340166D01*
X322500D01*
X325166D02*
X327832Y337500D01*
X335829Y345497D02*
X333163Y344165D01*
X330497Y341499D01*
Y338833D01*
X331830Y337500D01*
X334496D01*
X335829Y338833D01*
Y340166D01*
X334496Y341499D01*
X330497D01*
X350000Y305000D02*
Y312997D01*
X353999D01*
X355332Y311665D01*
Y308999D01*
X353999Y307666D01*
X350000D01*
X352666D02*
X355332Y305000D01*
X363329Y312997D02*
X357997D01*
Y308999D01*
X360663Y310332D01*
X361996D01*
X363329Y308999D01*
Y306333D01*
X361996Y305000D01*
X359330D01*
X357997Y306333D01*
X342500Y337500D02*
Y345497D01*
X346499D01*
X347832Y344165D01*
Y341499D01*
X346499Y340166D01*
X342500D01*
X345166D02*
X347832Y337500D01*
X354496D02*
Y345497D01*
X350497Y341499D01*
X355829D01*
X290000Y697500D02*
Y705497D01*
X293999D01*
X295332Y704165D01*
Y701499D01*
X293999Y700166D01*
X290000D01*
X292666D02*
X295332Y697500D01*
X297997Y704165D02*
X299330Y705497D01*
X301996D01*
X303329Y704165D01*
Y702832D01*
X301996Y701499D01*
X300663D01*
X301996D01*
X303329Y700166D01*
Y698833D01*
X301996Y697500D01*
X299330D01*
X297997Y698833D01*
X427500Y647500D02*
X419503D01*
Y651499D01*
X420835Y652832D01*
X423501D01*
X424834Y651499D01*
Y647500D01*
Y650166D02*
X427500Y652832D01*
Y660829D02*
Y655497D01*
X422168Y660829D01*
X420835D01*
X419503Y659496D01*
Y656830D01*
X420835Y655497D01*
X400000Y652500D02*
Y660497D01*
X403999D01*
X405332Y659165D01*
Y656499D01*
X403999Y655166D01*
X400000D01*
X402666D02*
X405332Y652500D01*
X407997D02*
X410663D01*
X409330D01*
Y660497D01*
X407997Y659165D01*
X416814Y600071D02*
Y592074D01*
X422146D01*
X424811D02*
X427477D01*
X426144D01*
Y600071D01*
X424811Y598739D01*
X495077Y510781D02*
X500732Y505126D01*
X503560Y507953D01*
X503560Y509838D01*
X499790Y513608D01*
X497905D01*
X495077Y510781D01*
X500732Y516436D02*
X506387Y510781D01*
X509215Y513608D01*
X509215Y515493D01*
X505445Y519263D01*
X503560D01*
X500732Y516436D01*
X512042D02*
X513927Y518321D01*
X512985Y517378D01*
X507330Y523033D01*
X507330Y521148D01*
X417997Y625000D02*
X410000D01*
Y621001D01*
X411333Y619668D01*
X416665D01*
X417997Y621001D01*
Y625000D01*
X410000Y617003D02*
X415332D01*
X417997Y614337D01*
X415332Y611671D01*
X410000D01*
X413999D01*
Y617003D01*
X410000Y609005D02*
Y606339D01*
Y607672D01*
X417997D01*
X416665Y609005D01*
X257832Y514165D02*
X256499Y515497D01*
X253833D01*
X252500Y514165D01*
Y508833D01*
X253833Y507500D01*
X256499D01*
X257832Y508833D01*
X260497Y507500D02*
X263163D01*
X261830D01*
Y515497D01*
X260497Y514165D01*
X267162D02*
X268495Y515497D01*
X271161D01*
X272494Y514165D01*
Y512832D01*
X271161Y511499D01*
X272494Y510166D01*
Y508833D01*
X271161Y507500D01*
X268495D01*
X267162Y508833D01*
Y510166D01*
X268495Y511499D01*
X267162Y512832D01*
Y514165D01*
X268495Y511499D02*
X271161D01*
X271558Y525983D02*
X269673D01*
X267787Y524098D01*
X267787Y522212D01*
X271558Y518442D01*
X273442D01*
X275327Y520327D01*
X275327Y522212D01*
X278155Y523155D02*
X280040Y525040D01*
X279097Y524098D01*
X273442Y529753D01*
X273442Y527868D01*
X277213Y533523D02*
X280982Y537293D01*
X281925Y536350D01*
Y528810D01*
X282868Y527868D01*
X487832Y429165D02*
X486499Y430497D01*
X483833D01*
X482500Y429165D01*
Y423833D01*
X483833Y422500D01*
X486499D01*
X487832Y423833D01*
X490497Y422500D02*
X493163D01*
X491830D01*
Y430497D01*
X490497Y429165D01*
X502494Y430497D02*
X499828Y429165D01*
X497162Y426499D01*
Y423833D01*
X498495Y422500D01*
X501161D01*
X502494Y423833D01*
Y425166D01*
X501161Y426499D01*
X497162D01*
X269058Y558483D02*
X267173D01*
X265287Y556598D01*
X265287Y554712D01*
X269058Y550942D01*
X270942D01*
X272827Y552827D01*
X272827Y554712D01*
X275655Y555655D02*
X277540Y557540D01*
X276597Y556598D01*
X270942Y562253D01*
X270942Y560368D01*
X278483Y569793D02*
X274713Y566023D01*
X277540Y563195D01*
X278483Y566023D01*
X279425Y566965D01*
X281310D01*
X283195Y565080D01*
X283195Y563195D01*
X281310Y561310D01*
X279425D01*
X565783Y580314D02*
Y582199D01*
X563898Y584084D01*
X562013Y584084D01*
X558243Y580314D01*
Y578429D01*
X560128Y576544D01*
X562013Y576544D01*
X562956Y573717D02*
X564841Y571832D01*
X563898Y572774D01*
X569553Y578429D01*
X567668Y578429D01*
X570496Y566177D02*
X576151Y571832D01*
X570496Y571832D01*
X574266Y568062D01*
X575548Y587572D02*
X573663D01*
X571778Y585687D01*
X571778Y583802D01*
X575548Y580032D01*
X577433D01*
X579318Y581917D01*
X579318Y583802D01*
X582146Y584744D02*
X584031Y586629D01*
X583088Y585687D01*
X577433Y591342D01*
X577433Y589457D01*
X582146Y594169D02*
X582146Y596054D01*
X584031Y597939D01*
X585916D01*
X586858Y596997D01*
Y595112D01*
X585916Y594169D01*
X586858Y595112D01*
X588743D01*
X589686Y594169D01*
X589686Y592284D01*
X587801Y590399D01*
X585916D01*
X534889Y628230D02*
X533004D01*
X531119Y626345D01*
X531119Y624460D01*
X534889Y620690D01*
X536774D01*
X538660Y622575D01*
X538660Y624460D01*
X541487Y625403D02*
X543372Y627288D01*
X542430Y626345D01*
X536774Y632000D01*
X536774Y630115D01*
X549970Y633885D02*
X546200Y630115D01*
Y637655D01*
X545257Y638598D01*
X543372D01*
X541487Y636713D01*
X541487Y634828D01*
X400376Y515760D02*
X399043Y514428D01*
Y511762D01*
X400376Y510429D01*
X405708D01*
X407041Y511762D01*
Y514428D01*
X405708Y515760D01*
X407041Y518426D02*
Y521092D01*
Y519759D01*
X399043D01*
X400376Y518426D01*
X407041Y525091D02*
Y527757D01*
Y526424D01*
X399043D01*
X400376Y525091D01*
X418472Y541893D02*
X416587D01*
X414702Y540008D01*
X414702Y538122D01*
X418472Y534352D01*
X420358D01*
X422243Y536237D01*
X422243Y538122D01*
X425070Y539065D02*
X426955Y540950D01*
X426012Y540008D01*
X420358Y545662D01*
X420358Y543778D01*
X425070Y548490D02*
X425070Y550375D01*
X426955Y552260D01*
X428840D01*
X432610Y548490D01*
X432610Y546605D01*
X430725Y544720D01*
X428840D01*
X425070Y548490D01*
X411401Y548964D02*
X409516D01*
X407631Y547079D01*
X407631Y545193D01*
X411401Y541423D01*
X413286D01*
X415171Y543308D01*
X415171Y545193D01*
X417056Y547079D02*
X418941D01*
X420826Y548964D01*
X420826Y550849D01*
X417056Y554619D01*
X415171D01*
X413286Y552733D01*
X413286Y550849D01*
X414229Y549906D01*
X416114Y549906D01*
X418941Y552733D01*
X282832Y291665D02*
X281499Y292997D01*
X278833D01*
X277500Y291665D01*
Y286333D01*
X278833Y285000D01*
X281499D01*
X282832Y286333D01*
X285497Y291665D02*
X286830Y292997D01*
X289496D01*
X290829Y291665D01*
Y290332D01*
X289496Y288999D01*
X290829Y287666D01*
Y286333D01*
X289496Y285000D01*
X286830D01*
X285497Y286333D01*
Y287666D01*
X286830Y288999D01*
X285497Y290332D01*
Y291665D01*
X286830Y288999D02*
X289496D01*
X450292Y587854D02*
X448407D01*
X446522Y585969D01*
X446522Y584084D01*
X450292Y580314D01*
X452177D01*
X454062Y582199D01*
X454062Y584084D01*
X451235Y590682D02*
X455005Y594452D01*
X455947Y593509D01*
Y585969D01*
X456890Y585027D01*
X457363Y580783D02*
X455478D01*
X453593Y578898D01*
X453593Y577013D01*
X457363Y573243D01*
X459248D01*
X461133Y575128D01*
X461133Y577013D01*
X462076Y587381D02*
X461133Y584553D01*
Y580783D01*
X463018Y578898D01*
X464903D01*
X466788Y580783D01*
X466788Y582668D01*
X465846Y583611D01*
X463961Y583611D01*
X461133Y580783D01*
X409165Y592168D02*
X410498Y593501D01*
Y596167D01*
X409165Y597500D01*
X403833D01*
X402500Y596167D01*
Y593501D01*
X403833Y592168D01*
X410498Y584171D02*
Y589503D01*
X406499D01*
X407832Y586837D01*
Y585504D01*
X406499Y584171D01*
X403833D01*
X402500Y585504D01*
Y588170D01*
X403833Y589503D01*
X359165Y612168D02*
X360498Y613501D01*
Y616167D01*
X359165Y617500D01*
X353833D01*
X352500Y616167D01*
Y613501D01*
X353833Y612168D01*
X352500Y605504D02*
X360498D01*
X356499Y609503D01*
Y604171D01*
X455332Y621665D02*
X453999Y622997D01*
X451333D01*
X450000Y621665D01*
Y616333D01*
X451333Y615000D01*
X453999D01*
X455332Y616333D01*
X457997Y621665D02*
X459330Y622997D01*
X461996D01*
X463329Y621665D01*
Y620332D01*
X461996Y618999D01*
X460663D01*
X461996D01*
X463329Y617666D01*
Y616333D01*
X461996Y615000D01*
X459330D01*
X457997Y616333D01*
X437832Y654165D02*
X436499Y655497D01*
X433833D01*
X432500Y654165D01*
Y648833D01*
X433833Y647500D01*
X436499D01*
X437832Y648833D01*
X440497Y647500D02*
X443163D01*
X441830D01*
Y655497D01*
X440497Y654165D01*
M02*
