G04*
G04 #@! TF.GenerationSoftware,Altium Limited,Altium Designer,19.1.5 (86)*
G04*
G04 Layer_Physical_Order=1*
G04 Layer_Color=255*
%FSLAX44Y44*%
%MOMM*%
G71*
G01*
G75*
%ADD11C,0.5000*%
%ADD13C,0.2540*%
G04:AMPARAMS|DCode=22|XSize=0.69mm|YSize=0.99mm|CornerRadius=0.0069mm|HoleSize=0mm|Usage=FLASHONLY|Rotation=270.000|XOffset=0mm|YOffset=0mm|HoleType=Round|Shape=RoundedRectangle|*
%AMROUNDEDRECTD22*
21,1,0.6900,0.9762,0,0,270.0*
21,1,0.6762,0.9900,0,0,270.0*
1,1,0.0138,-0.4881,-0.3381*
1,1,0.0138,-0.4881,0.3381*
1,1,0.0138,0.4881,0.3381*
1,1,0.0138,0.4881,-0.3381*
%
%ADD22ROUNDEDRECTD22*%
%ADD23R,0.8000X1.0000*%
%ADD24R,1.0000X0.8000*%
G04:AMPARAMS|DCode=27|XSize=0.62mm|YSize=0.5mm|CornerRadius=0mm|HoleSize=0mm|Usage=FLASHONLY|Rotation=315.000|XOffset=0mm|YOffset=0mm|HoleType=Round|Shape=Rectangle|*
%AMROTATEDRECTD27*
4,1,4,-0.3960,0.0424,-0.0424,0.3960,0.3960,-0.0424,0.0424,-0.3960,-0.3960,0.0424,0.0*
%
%ADD27ROTATEDRECTD27*%

G04:AMPARAMS|DCode=51|XSize=0.5mm|YSize=0.6mm|CornerRadius=0.005mm|HoleSize=0mm|Usage=FLASHONLY|Rotation=0.000|XOffset=0mm|YOffset=0mm|HoleType=Round|Shape=RoundedRectangle|*
%AMROUNDEDRECTD51*
21,1,0.5000,0.5900,0,0,0.0*
21,1,0.4900,0.6000,0,0,0.0*
1,1,0.0100,0.2450,-0.2950*
1,1,0.0100,-0.2450,-0.2950*
1,1,0.0100,-0.2450,0.2950*
1,1,0.0100,0.2450,0.2950*
%
%ADD51ROUNDEDRECTD51*%
G04:AMPARAMS|DCode=52|XSize=0.5mm|YSize=0.5mm|CornerRadius=0.005mm|HoleSize=0mm|Usage=FLASHONLY|Rotation=180.000|XOffset=0mm|YOffset=0mm|HoleType=Round|Shape=RoundedRectangle|*
%AMROUNDEDRECTD52*
21,1,0.5000,0.4900,0,0,180.0*
21,1,0.4900,0.5000,0,0,180.0*
1,1,0.0100,-0.2450,0.2450*
1,1,0.0100,0.2450,0.2450*
1,1,0.0100,0.2450,-0.2450*
1,1,0.0100,-0.2450,-0.2450*
%
%ADD52ROUNDEDRECTD52*%
G04:AMPARAMS|DCode=53|XSize=0.5mm|YSize=0.5mm|CornerRadius=0.005mm|HoleSize=0mm|Usage=FLASHONLY|Rotation=270.000|XOffset=0mm|YOffset=0mm|HoleType=Round|Shape=RoundedRectangle|*
%AMROUNDEDRECTD53*
21,1,0.5000,0.4900,0,0,270.0*
21,1,0.4900,0.5000,0,0,270.0*
1,1,0.0100,-0.2450,-0.2450*
1,1,0.0100,-0.2450,0.2450*
1,1,0.0100,0.2450,0.2450*
1,1,0.0100,0.2450,-0.2450*
%
%ADD53ROUNDEDRECTD53*%
G04:AMPARAMS|DCode=54|XSize=0.5mm|YSize=0.6mm|CornerRadius=0.005mm|HoleSize=0mm|Usage=FLASHONLY|Rotation=270.000|XOffset=0mm|YOffset=0mm|HoleType=Round|Shape=RoundedRectangle|*
%AMROUNDEDRECTD54*
21,1,0.5000,0.5900,0,0,270.0*
21,1,0.4900,0.6000,0,0,270.0*
1,1,0.0100,-0.2950,-0.2450*
1,1,0.0100,-0.2950,0.2450*
1,1,0.0100,0.2950,0.2450*
1,1,0.0100,0.2950,-0.2450*
%
%ADD54ROUNDEDRECTD54*%
G04:AMPARAMS|DCode=55|XSize=0.5mm|YSize=0.5mm|CornerRadius=0.005mm|HoleSize=0mm|Usage=FLASHONLY|Rotation=225.000|XOffset=0mm|YOffset=0mm|HoleType=Round|Shape=RoundedRectangle|*
%AMROUNDEDRECTD55*
21,1,0.5000,0.4900,0,0,225.0*
21,1,0.4900,0.5000,0,0,225.0*
1,1,0.0100,-0.3465,0.0000*
1,1,0.0100,0.0000,0.3465*
1,1,0.0100,0.3465,0.0000*
1,1,0.0100,0.0000,-0.3465*
%
%ADD55ROUNDEDRECTD55*%
G04:AMPARAMS|DCode=56|XSize=0.5mm|YSize=0.5mm|CornerRadius=0.005mm|HoleSize=0mm|Usage=FLASHONLY|Rotation=315.000|XOffset=0mm|YOffset=0mm|HoleType=Round|Shape=RoundedRectangle|*
%AMROUNDEDRECTD56*
21,1,0.5000,0.4900,0,0,315.0*
21,1,0.4900,0.5000,0,0,315.0*
1,1,0.0100,0.0000,-0.3465*
1,1,0.0100,-0.3465,0.0000*
1,1,0.0100,0.0000,0.3465*
1,1,0.0100,0.3465,0.0000*
%
%ADD56ROUNDEDRECTD56*%
G04:AMPARAMS|DCode=57|XSize=1.45mm|YSize=0.25mm|CornerRadius=0.0025mm|HoleSize=0mm|Usage=FLASHONLY|Rotation=45.000|XOffset=0mm|YOffset=0mm|HoleType=Round|Shape=RoundedRectangle|*
%AMROUNDEDRECTD57*
21,1,1.4500,0.2450,0,0,45.0*
21,1,1.4450,0.2500,0,0,45.0*
1,1,0.0050,0.5975,0.4243*
1,1,0.0050,-0.4243,-0.5975*
1,1,0.0050,-0.5975,-0.4243*
1,1,0.0050,0.4243,0.5975*
%
%ADD57ROUNDEDRECTD57*%
G04:AMPARAMS|DCode=58|XSize=1.45mm|YSize=0.25mm|CornerRadius=0.0025mm|HoleSize=0mm|Usage=FLASHONLY|Rotation=315.000|XOffset=0mm|YOffset=0mm|HoleType=Round|Shape=RoundedRectangle|*
%AMROUNDEDRECTD58*
21,1,1.4500,0.2450,0,0,315.0*
21,1,1.4450,0.2500,0,0,315.0*
1,1,0.0050,0.4243,-0.5975*
1,1,0.0050,-0.5975,0.4243*
1,1,0.0050,-0.4243,0.5975*
1,1,0.0050,0.5975,-0.4243*
%
%ADD58ROUNDEDRECTD58*%
%ADD59C,0.3000*%
%ADD60C,0.7500*%
G04:AMPARAMS|DCode=61|XSize=2.794mm|YSize=3.556mm|CornerRadius=0mm|HoleSize=0mm|Usage=FLASHONLY|Rotation=315.000|XOffset=0mm|YOffset=0mm|HoleType=Round|Shape=Rectangle|*
%AMROTATEDRECTD61*
4,1,4,-2.2451,-0.2694,0.2694,2.2451,2.2451,0.2694,-0.2694,-2.2451,-2.2451,-0.2694,0.0*
%
%ADD61ROTATEDRECTD61*%

%ADD62O,1.5000X1.9000*%
G04:AMPARAMS|DCode=63|XSize=1.9mm|YSize=1.5mm|CornerRadius=0.1875mm|HoleSize=0mm|Usage=FLASHONLY|Rotation=90.000|XOffset=0mm|YOffset=0mm|HoleType=Round|Shape=RoundedRectangle|*
%AMROUNDEDRECTD63*
21,1,1.9000,1.1250,0,0,90.0*
21,1,1.5250,1.5000,0,0,90.0*
1,1,0.3750,0.5625,0.7625*
1,1,0.3750,0.5625,-0.7625*
1,1,0.3750,-0.5625,-0.7625*
1,1,0.3750,-0.5625,0.7625*
%
%ADD63ROUNDEDRECTD63*%
%ADD64R,1.7000X1.7000*%
%ADD65C,1.7000*%
%ADD66R,1.7000X1.7000*%
G04:AMPARAMS|DCode=67|XSize=1.8mm|YSize=1mm|CornerRadius=0.25mm|HoleSize=0mm|Usage=FLASHONLY|Rotation=45.000|XOffset=0mm|YOffset=0mm|HoleType=Round|Shape=RoundedRectangle|*
%AMROUNDEDRECTD67*
21,1,1.8000,0.5000,0,0,45.0*
21,1,1.3000,1.0000,0,0,45.0*
1,1,0.5000,0.6364,0.2828*
1,1,0.5000,-0.2828,-0.6364*
1,1,0.5000,-0.6364,-0.2828*
1,1,0.5000,0.2828,0.6364*
%
%ADD67ROUNDEDRECTD67*%
G04:AMPARAMS|DCode=68|XSize=1.7mm|YSize=1.7mm|CornerRadius=0.2125mm|HoleSize=0mm|Usage=FLASHONLY|Rotation=270.000|XOffset=0mm|YOffset=0mm|HoleType=Round|Shape=RoundedRectangle|*
%AMROUNDEDRECTD68*
21,1,1.7000,1.2750,0,0,270.0*
21,1,1.2750,1.7000,0,0,270.0*
1,1,0.4250,-0.6375,-0.6375*
1,1,0.4250,-0.6375,0.6375*
1,1,0.4250,0.6375,0.6375*
1,1,0.4250,0.6375,-0.6375*
%
%ADD68ROUNDEDRECTD68*%
%ADD69C,0.6000*%
%ADD70C,0.7000*%
G36*
X361452Y611432D02*
X361664Y611122D01*
X361431Y609950D01*
Y609250D01*
X367500D01*
Y607500D01*
X369250D01*
Y601431D01*
X369950D01*
X371335Y601706D01*
X371730Y601970D01*
X373000Y601291D01*
Y599250D01*
X378072D01*
X379036Y597980D01*
X378931Y597450D01*
Y596750D01*
X385000D01*
Y595000D01*
X386750D01*
Y588931D01*
X387450D01*
X387500Y588890D01*
Y587500D01*
X367500D01*
X360000Y595000D01*
Y612076D01*
X360612Y612160D01*
X361452Y611432D01*
D02*
G37*
%LPC*%
G36*
X365750Y605750D02*
X361431D01*
Y605050D01*
X361706Y603665D01*
X362491Y602491D01*
X363665Y601706D01*
X365050Y601431D01*
X365750D01*
Y605750D01*
D02*
G37*
G36*
X383250Y593250D02*
X378931D01*
Y592550D01*
X379206Y591165D01*
X379991Y589991D01*
X381165Y589206D01*
X382550Y588931D01*
X383250D01*
Y593250D01*
D02*
G37*
%LPD*%
D11*
X461633Y443365D02*
X462884Y444616D01*
X462884D02*
X466464Y441035D01*
X462884Y444616D02*
X462884D01*
X466464Y441035D02*
X466465D01*
X461633Y443365D02*
X462499Y442499D01*
X565000Y577500D02*
X565541D01*
X564617Y577117D02*
X565000Y577500D01*
X395000Y587500D02*
Y595000D01*
X566620Y612630D02*
X576491Y602759D01*
Y596767D02*
Y602759D01*
X571304Y581681D02*
X585000Y595377D01*
X569722Y581681D02*
X571304D01*
X565541Y577500D02*
X569722Y581681D01*
X585000Y595377D02*
Y603991D01*
X566620Y612630D02*
X569420Y615429D01*
X556750Y622500D02*
X566620Y612630D01*
X550757Y622500D02*
X556750D01*
X380000Y617500D02*
X390000Y627500D01*
X367500Y617500D02*
X380000D01*
X266772Y267000D02*
X279550D01*
X292500Y243479D02*
Y252500D01*
X288450Y256550D02*
X292500Y252500D01*
X280500Y256550D02*
X288450D01*
X270000Y257500D02*
X279550D01*
X270000Y317500D02*
X279550D01*
X264200Y308300D02*
X267700D01*
X264200Y326700D02*
X266472D01*
X573562Y615429D02*
X585000Y603991D01*
X569420Y615429D02*
X573562D01*
X310000Y682500D02*
X322500D01*
X310000D02*
X367500Y625000D01*
X380500Y606750D02*
Y607750D01*
X558582Y577117D02*
X564617D01*
X553765Y572301D02*
X558582Y577117D01*
X553765Y572301D02*
X553765D01*
X398000Y598000D02*
Y606250D01*
X395000Y595000D02*
X398000Y598000D01*
X315000Y257500D02*
X315541D01*
X318041Y260000D01*
X330000D01*
Y270000D02*
X342500D01*
X329500D02*
X330000D01*
X326500Y267000D02*
X329500Y270000D01*
X305450Y267000D02*
X326500D01*
X330000Y330000D02*
X342500D01*
X318041Y320000D02*
X330000D01*
X322500Y330000D02*
X330000D01*
X319500Y327000D02*
X322500Y330000D01*
X305450Y327000D02*
X319500D01*
X279550Y317500D02*
X287521D01*
X292500Y312521D01*
Y305000D02*
Y312521D01*
Y305000D02*
X300000Y297500D01*
X320000D01*
Y307500D02*
X332500D01*
X305950D02*
X320000D01*
X305450Y308000D02*
X305950Y307500D01*
X320000Y247500D02*
X332500D01*
X305950D02*
X320000D01*
X305450Y248000D02*
X305950Y247500D01*
X292500Y243479D02*
X298479Y237500D01*
X320000D01*
X279550Y257500D02*
X280500Y256550D01*
X367500Y617500D02*
Y625000D01*
X380500Y606750D02*
X385000Y602250D01*
X398000Y606250D02*
X399500Y607750D01*
X367500Y607500D02*
X380250D01*
X380500Y607750D01*
X385000Y595000D02*
Y600000D01*
X385000Y600000D02*
X385000Y600000D01*
X385000Y600000D02*
Y602250D01*
X549974Y623283D02*
X550757Y622500D01*
X560581Y598535D02*
X569420Y589696D01*
X560581Y598535D02*
X560581D01*
X551600Y607515D02*
X551600Y607515D01*
X542903Y616212D02*
X551600Y607515D01*
D13*
X252300Y525200D02*
X252500Y525400D01*
Y537500D01*
X576622Y468790D02*
X709240D01*
X776250Y535800D01*
Y537800D01*
X561812Y453980D02*
X576622Y468790D01*
X561027Y466773D02*
Y469579D01*
X547578Y483029D02*
X561027Y469579D01*
X552750Y461750D02*
Y470786D01*
X544043Y479493D02*
X552750Y470786D01*
X563441Y449189D02*
X578502Y464250D01*
X565322Y444649D02*
X580332Y459660D01*
X567202Y440109D02*
X582213Y455120D01*
X584094Y450580D02*
X764420D01*
X569083Y435569D02*
X584094Y450580D01*
X709887Y446540D02*
X745627Y410800D01*
X585767Y446540D02*
X709887D01*
X570756Y431529D02*
X585767Y446540D01*
X535438Y431529D02*
X570756D01*
X708213Y442500D02*
X765313Y385400D01*
X587440Y442500D02*
X708213D01*
X572430Y427489D02*
X587440Y442500D01*
X512962Y427489D02*
X572430D01*
X701104Y437146D02*
X776250Y362000D01*
X589896Y437146D02*
X701104D01*
X575699Y422949D02*
X589896Y437146D01*
X511081Y422949D02*
X575699D01*
X538469Y435569D02*
X569083D01*
X519294Y454744D02*
X538469Y435569D01*
X548342Y453980D02*
X561812D01*
X745627Y410800D02*
X776250D01*
X533436Y468886D02*
X548342Y453980D01*
X546062Y449189D02*
X563441D01*
X543531Y444649D02*
X565322D01*
X541000Y440109D02*
X567202D01*
X738750Y464250D02*
X756308Y481808D01*
Y490458D01*
X776250Y510400D01*
Y512400D01*
X578502Y464250D02*
X738750D01*
X529900Y465351D02*
X546062Y449189D01*
X744590Y459660D02*
X756068Y471138D01*
X762388D01*
X776250Y485000D01*
Y487000D01*
X580332Y459660D02*
X744590D01*
X526365Y461815D02*
X543531Y444649D01*
X748750Y455120D02*
X755230Y461600D01*
X776250D01*
X582213Y455120D02*
X748750D01*
X522829Y458280D02*
X541000Y440109D01*
X586108Y692460D02*
X633909Y644659D01*
Y619334D02*
Y644659D01*
X574323Y559749D02*
X633909Y619334D01*
X362540Y692460D02*
X586108D01*
X638449Y617454D02*
Y646540D01*
X587989Y697000D02*
X638449Y646540D01*
X367998Y697000D02*
X587989D01*
X644567Y617152D02*
Y646842D01*
X589869Y701540D02*
X644567Y646842D01*
X385960Y701540D02*
X589869D01*
X649107Y615272D02*
Y648722D01*
X591749Y706080D02*
X649107Y648722D01*
X391420Y706080D02*
X591749D01*
X653647Y612397D02*
Y650603D01*
X593630Y710620D02*
X653647Y650603D01*
X399380Y710620D02*
X593630D01*
X362500Y692500D02*
X362540Y692460D01*
X569756Y545865D02*
X579701D01*
X567225Y550405D02*
X577820D01*
X563728Y559749D02*
X574323D01*
X562424Y558445D02*
X563728Y559749D01*
X561123Y558445D02*
X562424D01*
X551114Y548436D02*
X561123Y558445D01*
X576204Y555209D02*
X638449Y617454D01*
X565608Y555209D02*
X576204D01*
X564304Y553905D02*
X565608Y555209D01*
X563654Y553905D02*
X564304D01*
X577820Y550405D02*
X644567Y617152D01*
X579701Y545865D02*
X649107Y615272D01*
X554649Y544900D02*
X563654Y553905D01*
X362499Y702499D02*
X367998Y697000D01*
X582575Y541325D02*
X653647Y612397D01*
X572315Y541325D02*
X582575D01*
X565284Y534294D02*
X572315Y541325D01*
X565256Y534294D02*
X565284D01*
X372500Y737500D02*
X399380Y710620D01*
X561720Y537829D02*
X569756Y545865D01*
X370000Y727500D02*
X391420Y706080D01*
X372500Y715000D02*
X385960Y701540D01*
X383250Y566176D02*
X401770Y584696D01*
X383250Y561250D02*
Y566176D01*
X422951Y554623D02*
Y559300D01*
X416074Y566176D02*
X422951Y559300D01*
X416074Y566176D02*
Y581449D01*
X414782Y599418D02*
X444680D01*
X401770Y586406D02*
X414782Y599418D01*
X401770Y584696D02*
Y586406D01*
X390770Y567275D02*
X406310Y582815D01*
X416662Y594878D02*
X442799D01*
X406310Y584526D02*
X416662Y594878D01*
X406310Y582815D02*
Y584526D01*
X390770Y553270D02*
Y567275D01*
X418543Y590338D02*
X440269D01*
X410850Y582645D02*
X418543Y590338D01*
X410850Y580935D02*
Y582645D01*
X416074Y581449D02*
X420424Y585798D01*
X434202D02*
X437093Y582907D01*
X420424Y585798D02*
X434202D01*
X440269Y590338D02*
X468029Y562578D01*
X396847Y546847D02*
Y566932D01*
X396348Y546348D02*
X396847Y546847D01*
Y566932D02*
X410850Y580935D01*
X442799Y594878D02*
X471564Y566114D01*
X444680Y599418D02*
X474449Y569649D01*
X475100D01*
X390578Y553078D02*
X390770Y553270D01*
X460958Y555507D02*
X466500Y549965D01*
Y545750D02*
Y549965D01*
X441940Y521189D02*
X466500Y545750D01*
X438706Y521189D02*
X441940D01*
X426250Y536655D02*
X430022Y540426D01*
X426250Y533646D02*
Y536655D01*
Y533646D02*
X438706Y521189D01*
X430022Y540426D02*
Y547552D01*
X421000Y552673D02*
X422951Y554623D01*
X421000Y527924D02*
Y552673D01*
X415879Y522803D02*
X421000Y527924D01*
X331300Y563200D02*
X417688Y476812D01*
X300000Y563200D02*
X331300D01*
X417688Y476812D02*
X444134D01*
X453886Y486564D01*
X312400Y588600D02*
X419648Y481352D01*
X441603D01*
X300000Y588600D02*
X312400D01*
X441603Y481352D02*
X450351Y490100D01*
X428028Y494972D02*
X433656D01*
X415879Y507121D02*
X428028Y494972D01*
X433656D02*
X439391Y500706D01*
X436187Y490432D02*
X442926Y497171D01*
X426148Y490432D02*
X436187D01*
X326250Y590330D02*
X426148Y490432D01*
X424267Y485892D02*
X439044D01*
X320000Y590159D02*
X424267Y485892D01*
X320000Y590159D02*
Y594000D01*
X439044Y485892D02*
X446787Y493635D01*
X415879Y507121D02*
Y512803D01*
X326250Y590330D02*
Y611150D01*
X300000Y637400D02*
X326250Y611150D01*
X300000Y637400D02*
Y639400D01*
X442926Y497171D02*
X443280D01*
X439391Y500706D02*
X439744D01*
X558185Y541365D02*
X567225Y550405D01*
X466465Y441035D02*
Y449645D01*
X776250Y360000D02*
Y362000D01*
X510581Y423449D02*
X511081Y422949D01*
X499051Y423449D02*
X510581D01*
X765313Y385400D02*
X776250D01*
X621862Y484301D02*
X717560Y580000D01*
X567519Y484301D02*
X621862D01*
X620188Y488341D02*
X720447Y588600D01*
X570550Y488341D02*
X620188D01*
X561720Y497171D02*
X570550Y488341D01*
X618515Y492381D02*
X740134Y614000D01*
X573581Y492381D02*
X618515D01*
X565256Y500706D02*
X573581Y492381D01*
X616841Y496421D02*
X759820Y639400D01*
X576612Y496421D02*
X616841D01*
X568791Y504242D02*
X576612Y496421D01*
X478436Y444064D02*
X499051Y423449D01*
X559650Y394650D02*
X570000Y405000D01*
X567528Y471773D02*
Y472472D01*
X566838Y473162D02*
X567528Y472472D01*
X554649Y490100D02*
X566587Y478162D01*
X478436Y447446D02*
X485706Y454716D01*
X478436Y444064D02*
Y447446D01*
X306983Y403730D02*
X545097D01*
X300000Y410713D02*
X306983Y403730D01*
X554190Y399190D02*
X562500Y407500D01*
X332770Y399190D02*
X554190D01*
X318979Y385400D02*
X332770Y399190D01*
X545097Y403730D02*
X551367Y410000D01*
X552500D01*
X334650Y394650D02*
X559650D01*
X300000Y360000D02*
X334650Y394650D01*
X300000Y385400D02*
X318979D01*
X324200Y410000D02*
X542500D01*
X300000Y434200D02*
X324200Y410000D01*
X440460Y428386D02*
Y429593D01*
X430303Y418229D02*
X440460Y428386D01*
X359271Y418229D02*
X430303D01*
X315900Y461600D02*
X359271Y418229D01*
X417499Y443494D02*
X457034Y483029D01*
X457422D01*
X417499Y424999D02*
Y443494D01*
X445426Y465000D02*
X446465D01*
X432500Y452074D02*
X445426Y465000D01*
X432500Y430000D02*
Y452074D01*
X444999Y456464D02*
X464493Y475958D01*
X444999Y454999D02*
Y456464D01*
X440960Y441386D02*
X451769Y452195D01*
X440960Y429593D02*
Y441386D01*
X445500Y418000D02*
Y439505D01*
X445000Y417500D02*
X445500Y418000D01*
Y439505D02*
X456309Y450314D01*
Y453632D02*
X471564Y468886D01*
X456309Y450314D02*
Y453632D01*
X451769Y456163D02*
X468029Y472422D01*
X451769Y452195D02*
Y456163D01*
X447500Y352500D02*
Y387500D01*
X342500Y247500D02*
X447500Y352500D01*
X230000Y525400D02*
X230200Y525200D01*
X252300D01*
X483552Y591613D02*
X500000Y608061D01*
X483552Y589509D02*
Y591613D01*
Y589509D02*
X489242Y583820D01*
Y583791D02*
Y583820D01*
X522829Y576720D02*
X532500Y586391D01*
Y597500D01*
X490000Y640000D02*
X532500Y597500D01*
X437500Y640000D02*
X490000D01*
X412500Y644500D02*
Y645000D01*
Y644500D02*
X417000Y640000D01*
X425000D01*
X437500D01*
X460000Y607500D02*
X472500D01*
X460000D02*
X461230Y606270D01*
Y604732D02*
Y606270D01*
Y604732D02*
X485706Y580256D01*
X345000Y307500D02*
X425000Y387500D01*
X342500Y307500D02*
X345000D01*
X415000Y385000D02*
Y387500D01*
X360000Y330000D02*
X415000Y385000D01*
X352500Y330000D02*
X360000D01*
X352500Y270500D02*
X437500Y355500D01*
Y387500D01*
X417499Y424999D02*
X417499Y424999D01*
X352500Y270000D02*
Y270500D01*
X446465Y465000D02*
X460958Y479493D01*
X438995Y549185D02*
X446815Y541365D01*
X438995Y549185D02*
Y550981D01*
X437093Y552884D02*
X438995Y550981D01*
X442530Y552721D02*
X450351Y544900D01*
X440734Y552721D02*
X442530D01*
X438832Y554623D02*
X440734Y552721D01*
X437093Y554623D02*
X438832D01*
X361838Y510662D02*
X362500Y510000D01*
X301738Y510662D02*
X361838D01*
X300000Y512400D02*
X301738Y510662D01*
X467500Y427500D02*
Y427715D01*
X473535Y433750D01*
Y433965D01*
Y449645D02*
X482171Y458280D01*
X473535Y433965D02*
Y449645D01*
X466465D02*
X478635Y461815D01*
X529900Y569649D02*
X529929D01*
X558814Y598535D01*
X560581D01*
X548301Y604216D02*
X551600Y607515D01*
X548301Y595121D02*
Y604216D01*
X526365Y573185D02*
X548301Y595121D01*
X764420Y450580D02*
X776250Y438750D01*
X515758Y451209D02*
X535438Y431529D01*
X489242Y451209D02*
X512962Y427489D01*
X776250Y436200D02*
Y438750D01*
X574338Y478162D02*
X575000Y477500D01*
X551114Y486564D02*
X564516Y473162D01*
X558185Y493635D02*
X567519Y484301D01*
X564516Y473162D02*
X566838D01*
X300000Y535800D02*
X318300Y517500D01*
X300000Y535800D02*
Y537800D01*
X318300Y517500D02*
X355000D01*
X300000Y487000D02*
X362000D01*
X372500Y497500D01*
X451235Y558187D02*
Y568765D01*
X300000Y461600D02*
X315900D01*
X437093Y582907D02*
X444164Y575836D01*
X300000Y614000D02*
X320000Y594000D01*
X446787Y493635D02*
X446815D01*
X300000Y434200D02*
Y436200D01*
Y410713D02*
Y410800D01*
X566587Y478162D02*
X574338D01*
X720447Y588600D02*
X776250D01*
X759450Y580000D02*
X776250Y563200D01*
X717560Y580000D02*
X759450D01*
X485706Y454716D02*
Y454744D01*
X759820Y639400D02*
X776250D01*
X740134Y614000D02*
X776250D01*
X457422Y551972D02*
Y552000D01*
X444164Y559955D02*
Y561694D01*
Y559955D02*
X446080Y558038D01*
Y556271D02*
Y558038D01*
Y556271D02*
X453886Y548464D01*
Y548436D02*
Y548464D01*
X451235Y558187D02*
X457422Y552000D01*
X437093Y552884D02*
Y554623D01*
X422951D02*
X430022Y547552D01*
X547578Y551972D02*
X560836Y565230D01*
X553765Y565230D02*
Y572301D01*
X544043Y555507D02*
X553765Y565230D01*
D22*
X279550Y308000D02*
D03*
Y317500D02*
D03*
Y327000D02*
D03*
X305450D02*
D03*
Y317500D02*
D03*
Y308000D02*
D03*
X279550Y248000D02*
D03*
Y257500D02*
D03*
Y267000D02*
D03*
X305450D02*
D03*
Y257500D02*
D03*
Y248000D02*
D03*
D23*
X390000Y627500D02*
D03*
X399500Y607750D02*
D03*
X380500D02*
D03*
D24*
X294750Y715500D02*
D03*
Y734500D02*
D03*
X275000Y725000D02*
D03*
D27*
X429668Y575483D02*
D03*
X423304Y569119D02*
D03*
D51*
X252500Y562500D02*
D03*
X262500D02*
D03*
X252500Y537500D02*
D03*
X262500D02*
D03*
X252500Y487500D02*
D03*
X262500D02*
D03*
X412500Y645000D02*
D03*
X402500D02*
D03*
X352500Y270000D02*
D03*
X342500D02*
D03*
Y330000D02*
D03*
X352500D02*
D03*
X342500Y247500D02*
D03*
X332500D02*
D03*
Y307500D02*
D03*
X342500D02*
D03*
X282500Y700000D02*
D03*
X272500D02*
D03*
D52*
X252500Y550000D02*
D03*
X262500D02*
D03*
X252500Y525000D02*
D03*
X262500D02*
D03*
X252500Y500000D02*
D03*
X262500D02*
D03*
X450000Y607500D02*
D03*
X460000D02*
D03*
X305000Y682500D02*
D03*
X295000D02*
D03*
X395000Y595000D02*
D03*
X385000D02*
D03*
D53*
X437500Y630000D02*
D03*
Y640000D02*
D03*
X270000Y282500D02*
D03*
Y292500D02*
D03*
X367500Y617500D02*
D03*
Y607500D02*
D03*
X415879Y512803D02*
D03*
Y522803D02*
D03*
D54*
X425000Y630000D02*
D03*
Y640000D02*
D03*
X330000Y270000D02*
D03*
Y260000D02*
D03*
Y320000D02*
D03*
Y330000D02*
D03*
X320000Y247500D02*
D03*
Y237500D02*
D03*
Y297500D02*
D03*
Y307500D02*
D03*
D55*
X549974Y623283D02*
D03*
X542903Y616212D02*
D03*
X576491Y596767D02*
D03*
X569420Y589696D02*
D03*
X444164Y561694D02*
D03*
X451235Y568765D02*
D03*
X437093D02*
D03*
X444164Y575836D02*
D03*
X430022Y561694D02*
D03*
X422951Y554623D02*
D03*
X437093D02*
D03*
X430022Y547552D02*
D03*
D56*
X553765Y572301D02*
D03*
X560836Y565230D02*
D03*
X473535Y433965D02*
D03*
X466465Y441035D02*
D03*
D57*
X536972Y562578D02*
D03*
X457422Y483029D02*
D03*
X568791Y530758D02*
D03*
X558185Y541365D02*
D03*
X561720Y537829D02*
D03*
X565256Y534294D02*
D03*
X540507Y559043D02*
D03*
X544043Y555507D02*
D03*
X547578Y551972D02*
D03*
X551114Y548436D02*
D03*
X554649Y544900D02*
D03*
X478635Y461815D02*
D03*
X489242Y451209D02*
D03*
X485706Y454744D02*
D03*
X482171Y458280D02*
D03*
X460958Y479493D02*
D03*
X475100Y465351D02*
D03*
X471564Y468886D02*
D03*
X468029Y472422D02*
D03*
X464493Y475958D02*
D03*
X529900Y569649D02*
D03*
X533436Y566114D02*
D03*
X515758Y583791D02*
D03*
X519294Y580256D02*
D03*
X522829Y576720D02*
D03*
X526365Y573185D02*
D03*
X450351Y490100D02*
D03*
X453886Y486564D02*
D03*
X436209Y504242D02*
D03*
X446815Y493635D02*
D03*
X443280Y497171D02*
D03*
X439744Y500706D02*
D03*
D58*
X551114Y486564D02*
D03*
X471564Y566114D02*
D03*
X568791Y504242D02*
D03*
X565256Y500706D02*
D03*
X561720Y497171D02*
D03*
X558185Y493635D02*
D03*
X554649Y490100D02*
D03*
X540507Y475958D02*
D03*
X547578Y483029D02*
D03*
X544043Y479493D02*
D03*
X536972Y472422D02*
D03*
X533436Y468886D02*
D03*
X529900Y465351D02*
D03*
X526365Y461815D02*
D03*
X522829Y458280D02*
D03*
X519294Y454744D02*
D03*
X515758Y451209D02*
D03*
X489242Y583791D02*
D03*
X475100Y569649D02*
D03*
X478635Y573185D02*
D03*
X482171Y576720D02*
D03*
X485706Y580256D02*
D03*
X460958Y555507D02*
D03*
X464493Y559043D02*
D03*
X468029Y562578D02*
D03*
X436209Y530758D02*
D03*
X439744Y534294D02*
D03*
X443280Y537829D02*
D03*
X446815Y541365D02*
D03*
X450351Y544900D02*
D03*
X453886Y548436D02*
D03*
X457422Y551972D02*
D03*
D59*
X262500Y562500D02*
Y655000D01*
Y550000D02*
Y562500D01*
Y537500D02*
Y550000D01*
Y525000D02*
Y537500D01*
Y500000D02*
Y525000D01*
Y487500D02*
Y500000D01*
X252500Y487500D02*
Y500000D01*
Y550000D02*
Y562500D01*
X380250Y607500D02*
Y608500D01*
X427066Y575483D02*
X429668D01*
X423021Y579528D02*
X427066Y575483D01*
X563824Y567500D02*
X572500D01*
X417004Y616750D02*
X422129Y611625D01*
X388500Y616750D02*
X417004D01*
X380250Y608500D02*
X388500Y616750D01*
X262500Y655000D02*
X285000Y677500D01*
X230000Y500000D02*
X252500D01*
X230800Y550000D02*
X252500D01*
X230000Y550800D02*
X230800Y550000D01*
X392500Y645000D02*
X402500D01*
X422129Y611625D02*
X426254Y607500D01*
X422129Y611625D02*
X424235Y613731D01*
Y619235D01*
X425000Y620000D01*
Y630000D01*
X437500D01*
X426254Y607500D02*
X450000D01*
X561553Y565230D02*
X563824Y567500D01*
X560836Y565230D02*
X561553D01*
X560836D02*
X560836D01*
X282500Y700500D02*
X291250Y709250D01*
Y713000D01*
X293750Y715500D01*
X282500Y700000D02*
Y700500D01*
X293750Y715500D02*
X294750D01*
X444164Y575836D02*
X451235Y568765D01*
X437093D02*
X444164Y561694D01*
X430022Y575483D02*
X436739Y568765D01*
X437093D01*
X423304Y568765D02*
Y569119D01*
Y568765D02*
X430022Y562048D01*
Y561694D02*
Y562048D01*
Y561694D02*
X437093Y554623D01*
D60*
X361931Y597500D02*
Y609966D01*
X407250Y558495D02*
X414378Y565622D01*
X407250Y542250D02*
Y558495D01*
X405000Y540000D02*
X407250Y542250D01*
X313085Y744250D02*
X323750Y733585D01*
X287368Y744250D02*
X313085D01*
X284000Y740882D02*
X287368Y744250D01*
X284000Y733000D02*
Y740882D01*
X276000Y725000D02*
X284000Y733000D01*
X323750Y702750D02*
Y733585D01*
Y702750D02*
X381500Y645000D01*
X266418Y267000D02*
X266772D01*
X260750Y261332D02*
X266418Y267000D01*
X260750Y253668D02*
Y261332D01*
Y253668D02*
X266168Y248250D01*
X279300D01*
X279550Y248000D01*
X266772Y267000D02*
X270000Y270228D01*
X260000Y322500D02*
X264200Y326700D01*
X260000Y312500D02*
Y322500D01*
Y312500D02*
X264200Y308300D01*
X285000Y677500D02*
X290000Y682500D01*
X266472Y326700D02*
X279250D01*
X294698Y672802D02*
Y682198D01*
X295000Y682500D01*
X354852Y612648D02*
X359250D01*
X294698Y672802D02*
X354852Y612648D01*
X359250D02*
X361931Y609966D01*
X312500Y685000D02*
Y729857D01*
X310000Y682500D02*
X312500Y685000D01*
X295000Y734250D02*
X308107D01*
X294750Y734500D02*
X295000Y734250D01*
X308107D02*
X312500Y729857D01*
X381500Y645000D02*
X392500D01*
X275000Y725000D02*
X276000D01*
X361931Y597500D02*
X372500D01*
X394393Y533107D02*
X400607D01*
X405000Y537500D01*
Y540000D01*
X372500Y555000D02*
X394393Y533107D01*
X372500Y555000D02*
Y592500D01*
X230000Y274600D02*
X231818Y276418D01*
X249388D01*
X255471Y282500D01*
X270000D01*
X230000Y300000D02*
X233500Y296500D01*
X249750D01*
X253750Y292500D01*
X270000D01*
X267700Y308300D02*
X270000Y306000D01*
Y292500D02*
Y306000D01*
X267700Y308300D02*
X279250D01*
X279550Y308000D01*
X279250Y326700D02*
X279550Y327000D01*
X270000Y270228D02*
Y282500D01*
X305450Y317500D02*
X315000D01*
X305450Y257500D02*
X315000D01*
X290000Y682500D02*
X295000D01*
X375000Y597500D02*
X380250Y602750D01*
X259431Y700000D02*
X268181Y691250D01*
X286250D01*
X295000Y682500D01*
X259431Y700000D02*
X272500D01*
X380250Y602750D02*
Y607500D01*
X380250Y607500D01*
X230000Y700000D02*
X257500D01*
X272500D02*
X272500Y700000D01*
X274800Y725200D02*
X275000Y725000D01*
X230200Y725200D02*
X274800D01*
X230000Y725400D02*
X230200Y725200D01*
D61*
X599196Y646130D02*
D03*
D62*
X300000Y385000D02*
D03*
Y410400D02*
D03*
Y435800D02*
D03*
Y461200D02*
D03*
Y486600D02*
D03*
Y512000D02*
D03*
Y537400D02*
D03*
Y562800D02*
D03*
Y588200D02*
D03*
Y613600D02*
D03*
Y639000D02*
D03*
X776250D02*
D03*
Y613600D02*
D03*
Y588200D02*
D03*
Y562800D02*
D03*
Y537400D02*
D03*
Y512000D02*
D03*
Y486600D02*
D03*
Y461200D02*
D03*
Y435800D02*
D03*
Y410400D02*
D03*
Y385000D02*
D03*
Y359600D02*
D03*
D63*
X300000D02*
D03*
D64*
X565400Y745000D02*
D03*
D65*
X540000D02*
D03*
X514600D02*
D03*
X489200D02*
D03*
X230000Y274600D02*
D03*
Y700000D02*
D03*
Y449200D02*
D03*
Y500000D02*
D03*
Y474600D02*
D03*
Y525400D02*
D03*
D66*
Y300000D02*
D03*
Y725400D02*
D03*
D67*
X560581Y598535D02*
D03*
X551600Y607515D02*
D03*
D68*
X230000Y550800D02*
D03*
D69*
X561027Y466773D02*
D03*
X552750Y461750D02*
D03*
X383250Y561250D02*
D03*
X423021Y579528D02*
D03*
X390578Y553078D02*
D03*
X570000Y405000D02*
D03*
X567528Y471773D02*
D03*
X322500Y682500D02*
D03*
X396348Y546348D02*
D03*
X362500Y510000D02*
D03*
X575000Y477500D02*
D03*
X355000Y517500D02*
D03*
X372500Y497500D02*
D03*
X542500Y410000D02*
D03*
X552500D02*
D03*
X562500Y407500D02*
D03*
D70*
X572500Y567500D02*
D03*
X565000Y577500D02*
D03*
X395000Y587500D02*
D03*
X462499Y442499D02*
D03*
X444999Y454999D02*
D03*
X270000Y257500D02*
D03*
Y317500D02*
D03*
X285000Y677500D02*
D03*
X370000Y727500D02*
D03*
X372500Y715000D02*
D03*
X372500Y737500D02*
D03*
X362500Y692500D02*
D03*
X362499Y702499D02*
D03*
X500000Y608061D02*
D03*
X425000Y620000D02*
D03*
X472500Y607500D02*
D03*
X415000Y387500D02*
D03*
X447500D02*
D03*
X437500D02*
D03*
X425000D02*
D03*
X417499Y424999D02*
D03*
X432500Y430000D02*
D03*
X445000Y417500D02*
D03*
X405000Y540000D02*
D03*
X467500Y427500D02*
D03*
X315000Y317500D02*
D03*
Y257500D02*
D03*
M02*
