G04*
G04 #@! TF.GenerationSoftware,Altium Limited,Altium Designer,19.1.5 (86)*
G04*
G04 Layer_Physical_Order=1*
G04 Layer_Color=255*
%FSLAX24Y24*%
%MOIN*%
G70*
G01*
G75*
%ADD11C,0.0197*%
%ADD13C,0.0100*%
G04:AMPARAMS|DCode=22|XSize=27.2mil|YSize=39mil|CornerRadius=0.3mil|HoleSize=0mil|Usage=FLASHONLY|Rotation=270.000|XOffset=0mil|YOffset=0mil|HoleType=Round|Shape=RoundedRectangle|*
%AMROUNDEDRECTD22*
21,1,0.0272,0.0384,0,0,270.0*
21,1,0.0266,0.0390,0,0,270.0*
1,1,0.0005,-0.0192,-0.0133*
1,1,0.0005,-0.0192,0.0133*
1,1,0.0005,0.0192,0.0133*
1,1,0.0005,0.0192,-0.0133*
%
%ADD22ROUNDEDRECTD22*%
%ADD23R,0.0315X0.0394*%
%ADD24R,0.0394X0.0315*%
G04:AMPARAMS|DCode=27|XSize=24.4mil|YSize=19.7mil|CornerRadius=0mil|HoleSize=0mil|Usage=FLASHONLY|Rotation=315.000|XOffset=0mil|YOffset=0mil|HoleType=Round|Shape=Rectangle|*
%AMROTATEDRECTD27*
4,1,4,-0.0156,0.0017,-0.0017,0.0156,0.0156,-0.0017,0.0017,-0.0156,-0.0156,0.0017,0.0*
%
%ADD27ROTATEDRECTD27*%

G04:AMPARAMS|DCode=51|XSize=19.7mil|YSize=19.7mil|CornerRadius=0.2mil|HoleSize=0mil|Usage=FLASHONLY|Rotation=180.000|XOffset=0mil|YOffset=0mil|HoleType=Round|Shape=RoundedRectangle|*
%AMROUNDEDRECTD51*
21,1,0.0197,0.0193,0,0,180.0*
21,1,0.0193,0.0197,0,0,180.0*
1,1,0.0004,-0.0096,0.0096*
1,1,0.0004,0.0096,0.0096*
1,1,0.0004,0.0096,-0.0096*
1,1,0.0004,-0.0096,-0.0096*
%
%ADD51ROUNDEDRECTD51*%
G04:AMPARAMS|DCode=52|XSize=19.7mil|YSize=19.7mil|CornerRadius=0.2mil|HoleSize=0mil|Usage=FLASHONLY|Rotation=270.000|XOffset=0mil|YOffset=0mil|HoleType=Round|Shape=RoundedRectangle|*
%AMROUNDEDRECTD52*
21,1,0.0197,0.0193,0,0,270.0*
21,1,0.0193,0.0197,0,0,270.0*
1,1,0.0004,-0.0096,-0.0096*
1,1,0.0004,-0.0096,0.0096*
1,1,0.0004,0.0096,0.0096*
1,1,0.0004,0.0096,-0.0096*
%
%ADD52ROUNDEDRECTD52*%
G04:AMPARAMS|DCode=53|XSize=19.7mil|YSize=23.6mil|CornerRadius=0.2mil|HoleSize=0mil|Usage=FLASHONLY|Rotation=0.000|XOffset=0mil|YOffset=0mil|HoleType=Round|Shape=RoundedRectangle|*
%AMROUNDEDRECTD53*
21,1,0.0197,0.0232,0,0,0.0*
21,1,0.0193,0.0236,0,0,0.0*
1,1,0.0004,0.0096,-0.0116*
1,1,0.0004,-0.0096,-0.0116*
1,1,0.0004,-0.0096,0.0116*
1,1,0.0004,0.0096,0.0116*
%
%ADD53ROUNDEDRECTD53*%
G04:AMPARAMS|DCode=54|XSize=19.7mil|YSize=23.6mil|CornerRadius=0.2mil|HoleSize=0mil|Usage=FLASHONLY|Rotation=270.000|XOffset=0mil|YOffset=0mil|HoleType=Round|Shape=RoundedRectangle|*
%AMROUNDEDRECTD54*
21,1,0.0197,0.0232,0,0,270.0*
21,1,0.0193,0.0236,0,0,270.0*
1,1,0.0004,-0.0116,-0.0096*
1,1,0.0004,-0.0116,0.0096*
1,1,0.0004,0.0116,0.0096*
1,1,0.0004,0.0116,-0.0096*
%
%ADD54ROUNDEDRECTD54*%
G04:AMPARAMS|DCode=55|XSize=19.7mil|YSize=19.7mil|CornerRadius=0.2mil|HoleSize=0mil|Usage=FLASHONLY|Rotation=225.000|XOffset=0mil|YOffset=0mil|HoleType=Round|Shape=RoundedRectangle|*
%AMROUNDEDRECTD55*
21,1,0.0197,0.0193,0,0,225.0*
21,1,0.0193,0.0197,0,0,225.0*
1,1,0.0004,-0.0136,0.0000*
1,1,0.0004,0.0000,0.0136*
1,1,0.0004,0.0136,0.0000*
1,1,0.0004,0.0000,-0.0136*
%
%ADD55ROUNDEDRECTD55*%
G04:AMPARAMS|DCode=56|XSize=19.7mil|YSize=19.7mil|CornerRadius=0.2mil|HoleSize=0mil|Usage=FLASHONLY|Rotation=315.000|XOffset=0mil|YOffset=0mil|HoleType=Round|Shape=RoundedRectangle|*
%AMROUNDEDRECTD56*
21,1,0.0197,0.0193,0,0,315.0*
21,1,0.0193,0.0197,0,0,315.0*
1,1,0.0004,0.0000,-0.0136*
1,1,0.0004,-0.0136,0.0000*
1,1,0.0004,0.0000,0.0136*
1,1,0.0004,0.0136,0.0000*
%
%ADD56ROUNDEDRECTD56*%
G04:AMPARAMS|DCode=57|XSize=57.1mil|YSize=9.8mil|CornerRadius=0.1mil|HoleSize=0mil|Usage=FLASHONLY|Rotation=45.000|XOffset=0mil|YOffset=0mil|HoleType=Round|Shape=RoundedRectangle|*
%AMROUNDEDRECTD57*
21,1,0.0571,0.0096,0,0,45.0*
21,1,0.0569,0.0098,0,0,45.0*
1,1,0.0002,0.0235,0.0167*
1,1,0.0002,-0.0167,-0.0235*
1,1,0.0002,-0.0235,-0.0167*
1,1,0.0002,0.0167,0.0235*
%
%ADD57ROUNDEDRECTD57*%
G04:AMPARAMS|DCode=58|XSize=57.1mil|YSize=9.8mil|CornerRadius=0.1mil|HoleSize=0mil|Usage=FLASHONLY|Rotation=315.000|XOffset=0mil|YOffset=0mil|HoleType=Round|Shape=RoundedRectangle|*
%AMROUNDEDRECTD58*
21,1,0.0571,0.0096,0,0,315.0*
21,1,0.0569,0.0098,0,0,315.0*
1,1,0.0002,0.0167,-0.0235*
1,1,0.0002,-0.0235,0.0167*
1,1,0.0002,-0.0167,0.0235*
1,1,0.0002,0.0235,-0.0167*
%
%ADD58ROUNDEDRECTD58*%
%ADD59C,0.0118*%
%ADD60C,0.0295*%
G04:AMPARAMS|DCode=61|XSize=110mil|YSize=140mil|CornerRadius=0mil|HoleSize=0mil|Usage=FLASHONLY|Rotation=315.000|XOffset=0mil|YOffset=0mil|HoleType=Round|Shape=Rectangle|*
%AMROTATEDRECTD61*
4,1,4,-0.0884,-0.0106,0.0106,0.0884,0.0884,0.0106,-0.0106,-0.0884,-0.0884,-0.0106,0.0*
%
%ADD61ROTATEDRECTD61*%

G04:AMPARAMS|DCode=62|XSize=74.8mil|YSize=59.1mil|CornerRadius=7.4mil|HoleSize=0mil|Usage=FLASHONLY|Rotation=90.000|XOffset=0mil|YOffset=0mil|HoleType=Round|Shape=RoundedRectangle|*
%AMROUNDEDRECTD62*
21,1,0.0748,0.0443,0,0,90.0*
21,1,0.0600,0.0591,0,0,90.0*
1,1,0.0148,0.0221,0.0300*
1,1,0.0148,0.0221,-0.0300*
1,1,0.0148,-0.0221,-0.0300*
1,1,0.0148,-0.0221,0.0300*
%
%ADD62ROUNDEDRECTD62*%
%ADD63O,0.0591X0.0748*%
%ADD64R,0.0669X0.0669*%
%ADD65C,0.0669*%
%ADD66R,0.0669X0.0669*%
G04:AMPARAMS|DCode=67|XSize=70.9mil|YSize=39.4mil|CornerRadius=9.8mil|HoleSize=0mil|Usage=FLASHONLY|Rotation=45.000|XOffset=0mil|YOffset=0mil|HoleType=Round|Shape=RoundedRectangle|*
%AMROUNDEDRECTD67*
21,1,0.0709,0.0197,0,0,45.0*
21,1,0.0512,0.0394,0,0,45.0*
1,1,0.0197,0.0251,0.0111*
1,1,0.0197,-0.0111,-0.0251*
1,1,0.0197,-0.0251,-0.0111*
1,1,0.0197,0.0111,0.0251*
%
%ADD67ROUNDEDRECTD67*%
G04:AMPARAMS|DCode=68|XSize=66.9mil|YSize=66.9mil|CornerRadius=8.4mil|HoleSize=0mil|Usage=FLASHONLY|Rotation=270.000|XOffset=0mil|YOffset=0mil|HoleType=Round|Shape=RoundedRectangle|*
%AMROUNDEDRECTD68*
21,1,0.0669,0.0502,0,0,270.0*
21,1,0.0502,0.0669,0,0,270.0*
1,1,0.0167,-0.0251,-0.0251*
1,1,0.0167,-0.0251,0.0251*
1,1,0.0167,0.0251,0.0251*
1,1,0.0167,0.0251,-0.0251*
%
%ADD68ROUNDEDRECTD68*%
%ADD69C,0.0236*%
%ADD70C,0.0276*%
G36*
X14230Y24072D02*
X14239Y24060D01*
X14230Y24014D01*
Y23986D01*
X14468D01*
Y23917D01*
X14537D01*
Y23678D01*
X14565D01*
X14619Y23689D01*
X14635Y23700D01*
X14685Y23673D01*
Y23593D01*
X14885D01*
X14923Y23543D01*
X14919Y23522D01*
Y23494D01*
X15157D01*
Y23425D01*
X15226D01*
Y23186D01*
X15254D01*
X15256Y23185D01*
Y23130D01*
X14468D01*
X14173Y23425D01*
Y24097D01*
X14197Y24101D01*
X14230Y24072D01*
D02*
G37*
%LPC*%
G36*
X14400Y23848D02*
X14230D01*
Y23821D01*
X14240Y23766D01*
X14271Y23720D01*
X14318Y23689D01*
X14372Y23678D01*
X14400D01*
Y23848D01*
D02*
G37*
G36*
X15089Y23356D02*
X14919D01*
Y23329D01*
X14929Y23274D01*
X14960Y23228D01*
X15006Y23197D01*
X15061Y23186D01*
X15089D01*
Y23356D01*
D02*
G37*
%LPD*%
D11*
X18175Y17455D02*
X18224Y17505D01*
X18224D02*
X18365Y17364D01*
X18224Y17505D02*
X18224D01*
X18365Y17364D02*
X18365D01*
X18175Y17455D02*
X18209Y17421D01*
X22244Y22736D02*
X22265D01*
X22229Y22721D02*
X22244Y22736D01*
X15551Y23130D02*
Y23425D01*
X22308Y24119D02*
X22696Y23731D01*
Y23495D02*
Y23731D01*
X22492Y22901D02*
X23031Y23440D01*
X22430Y22901D02*
X22492D01*
X22265Y22736D02*
X22430Y22901D01*
X23031Y23440D02*
Y23779D01*
X22308Y24119D02*
X22418Y24229D01*
X21919Y24508D02*
X22308Y24119D01*
X21683Y24508D02*
X21919D01*
X14961Y24311D02*
X15354Y24705D01*
X14468Y24311D02*
X14961D01*
X10503Y10512D02*
X11006D01*
X11516Y9586D02*
Y9941D01*
X11356Y10100D02*
X11516Y9941D01*
X11043Y10100D02*
X11356D01*
X10630Y10138D02*
X11006D01*
X10630Y12500D02*
X11006D01*
X10402Y12138D02*
X10539D01*
X10402Y12862D02*
X10491D01*
X22581Y24229D02*
X23031Y23779D01*
X22418Y24229D02*
X22581D01*
X12205Y26870D02*
X12697D01*
X12205D02*
X14468Y24606D01*
X14980Y23888D02*
Y23927D01*
X21991Y22721D02*
X22229D01*
X21802Y22532D02*
X21991Y22721D01*
X21802Y22532D02*
X21802D01*
X15669Y23543D02*
Y23868D01*
X15551Y23425D02*
X15669Y23543D01*
X12402Y10138D02*
X12423D01*
X12521Y10236D01*
X12992D01*
Y10630D02*
X13484D01*
X12972D02*
X12992D01*
X12854Y10512D02*
X12972Y10630D01*
X12026Y10512D02*
X12854D01*
X12992Y12992D02*
X13484D01*
X12521Y12598D02*
X12992D01*
X12697Y12992D02*
X12992D01*
X12579Y12874D02*
X12697Y12992D01*
X12026Y12874D02*
X12579D01*
X11006Y12500D02*
X11320D01*
X11516Y12304D01*
Y12008D02*
Y12304D01*
Y12008D02*
X11811Y11713D01*
X12598D01*
Y12106D02*
X13091D01*
X12045D02*
X12598D01*
X12026Y12126D02*
X12045Y12106D01*
X12598Y9744D02*
X13091D01*
X12045D02*
X12598D01*
X12026Y9764D02*
X12045Y9744D01*
X11516Y9586D02*
X11751Y9350D01*
X12598D01*
X11006Y10138D02*
X11043Y10100D01*
X14468Y24311D02*
Y24606D01*
X14980Y23888D02*
X15157Y23711D01*
X15669Y23868D02*
X15728Y23927D01*
X14468Y23917D02*
X14970D01*
X14980Y23927D01*
X15157Y23425D02*
Y23622D01*
X15157Y23622D02*
X15157Y23622D01*
X15157Y23622D02*
Y23711D01*
X21653Y24539D02*
X21683Y24508D01*
X22070Y23564D02*
X22418Y23216D01*
X22070Y23564D02*
X22070D01*
X21717Y23918D02*
X21717Y23918D01*
X21374Y24260D02*
X21717Y23918D01*
D13*
X22702Y18456D02*
X27923D01*
X30561Y21094D01*
Y21173D01*
X22119Y17873D02*
X22702Y18456D01*
X22088Y18377D02*
Y18487D01*
X21558Y19017D02*
X22088Y18487D01*
X21762Y18179D02*
Y18535D01*
X21419Y18878D02*
X21762Y18535D01*
X22183Y17685D02*
X22776Y18278D01*
X22257Y17506D02*
X22848Y18097D01*
X22331Y17327D02*
X22922Y17918D01*
X22996Y17739D02*
X30095D01*
X22405Y17148D02*
X22996Y17739D01*
X27948Y17580D02*
X29355Y16173D01*
X23062Y17580D02*
X27948D01*
X22471Y16989D02*
X23062Y17580D01*
X21080Y16989D02*
X22471D01*
X27882Y17421D02*
X30130Y15173D01*
X23128Y17421D02*
X27882D01*
X22537Y16830D02*
X23128Y17421D01*
X20195Y16830D02*
X22537D01*
X27603Y17210D02*
X30561Y14252D01*
X23224Y17210D02*
X27603D01*
X22665Y16652D02*
X23224Y17210D01*
X20121Y16652D02*
X22665D01*
X21200Y17148D02*
X22405D01*
X20445Y17903D02*
X21200Y17148D01*
X21588Y17873D02*
X22119D01*
X29355Y16173D02*
X30561D01*
X21001Y18460D02*
X21588Y17873D01*
X21499Y17685D02*
X22183D01*
X21399Y17506D02*
X22257D01*
X21299Y17327D02*
X22331D01*
X29085Y18278D02*
X29776Y18969D01*
Y19309D01*
X30561Y20094D01*
Y20173D01*
X22776Y18278D02*
X29085D01*
X20862Y18321D02*
X21499Y17685D01*
X29315Y18097D02*
X29766Y18549D01*
X30015D01*
X30561Y19094D01*
Y19173D01*
X22848Y18097D02*
X29315D01*
X20723Y18182D02*
X21399Y17506D01*
X29478Y17918D02*
X29733Y18173D01*
X30561D01*
X22922Y17918D02*
X29478D01*
X20584Y18043D02*
X21299Y17327D01*
X23075Y27262D02*
X24957Y25380D01*
Y24383D02*
Y25380D01*
X22611Y22037D02*
X24957Y24383D01*
X14273Y27262D02*
X23075D01*
X25136Y24309D02*
Y25454D01*
X23149Y27441D02*
X25136Y25454D01*
X14488Y27441D02*
X23149D01*
X25377Y24297D02*
Y25466D01*
X23223Y27620D02*
X25377Y25466D01*
X15195Y27620D02*
X23223D01*
X25555Y24223D02*
Y25540D01*
X23297Y27798D02*
X25555Y25540D01*
X15410Y27798D02*
X23297D01*
X25734Y24110D02*
Y25614D01*
X23371Y27977D02*
X25734Y25614D01*
X15724Y27977D02*
X23371D01*
X14272Y27264D02*
X14273Y27262D01*
X22431Y21491D02*
X22823D01*
X22332Y21669D02*
X22749D01*
X22194Y22037D02*
X22611D01*
X22143Y21986D02*
X22194Y22037D01*
X22091Y21986D02*
X22143D01*
X21697Y21592D02*
X22091Y21986D01*
X22685Y21859D02*
X25136Y24309D01*
X22268Y21859D02*
X22685D01*
X22217Y21807D02*
X22268Y21859D01*
X22191Y21807D02*
X22217D01*
X22749Y21669D02*
X25377Y24297D01*
X22823Y21491D02*
X25555Y24223D01*
X21837Y21453D02*
X22191Y21807D01*
X14272Y27657D02*
X14488Y27441D01*
X22936Y21312D02*
X25734Y24110D01*
X22532Y21312D02*
X22936D01*
X22255Y21035D02*
X22532Y21312D01*
X22254Y21035D02*
X22255D01*
X14665Y29035D02*
X15724Y27977D01*
X22115Y21174D02*
X22431Y21491D01*
X14567Y28642D02*
X15410Y27798D01*
X14665Y28150D02*
X15195Y27620D01*
X15089Y22290D02*
X15818Y23020D01*
X15089Y22096D02*
Y22290D01*
X16652Y21836D02*
Y22020D01*
X16381Y22290D02*
X16652Y22020D01*
X16381Y22290D02*
Y22892D01*
X16330Y23599D02*
X17507D01*
X15818Y23087D02*
X16330Y23599D01*
X15818Y23020D02*
Y23087D01*
X15385Y22334D02*
X15996Y22945D01*
X16404Y23420D02*
X17433D01*
X15996Y23013D02*
X16404Y23420D01*
X15996Y22945D02*
Y23013D01*
X15385Y21782D02*
Y22334D01*
X16478Y23242D02*
X17333D01*
X16175Y22939D02*
X16478Y23242D01*
X16175Y22871D02*
Y22939D01*
X16381Y22892D02*
X16552Y23063D01*
X17095D02*
X17208Y22949D01*
X16552Y23063D02*
X17095D01*
X17333Y23242D02*
X18426Y22149D01*
X15624Y21529D02*
Y22320D01*
X15604Y21510D02*
X15624Y21529D01*
Y22320D02*
X16175Y22871D01*
X17433Y23420D02*
X18566Y22288D01*
X17507Y23599D02*
X18679Y22427D01*
X18705D01*
X15377Y21775D02*
X15385Y21782D01*
X18148Y21870D02*
X18366Y21652D01*
Y21486D02*
Y21652D01*
X17399Y20519D02*
X18366Y21486D01*
X17272Y20519D02*
X17399D01*
X16782Y21128D02*
X16930Y21277D01*
X16782Y21010D02*
Y21128D01*
Y21010D02*
X17272Y20519D01*
X16930Y21277D02*
Y21557D01*
X16575Y21759D02*
X16652Y21836D01*
X16575Y20784D02*
Y21759D01*
X16373Y20583D02*
X16575Y20784D01*
X13043Y22173D02*
X16444Y18772D01*
X11811Y22173D02*
X13043D01*
X16444Y18772D02*
X17486D01*
X17870Y19156D01*
X12299Y23173D02*
X16522Y18951D01*
X17386D01*
X11811Y23173D02*
X12299D01*
X17386Y18951D02*
X17730Y19295D01*
X16852Y19487D02*
X17073D01*
X16373Y19965D02*
X16852Y19487D01*
X17073D02*
X17299Y19713D01*
X17173Y19308D02*
X17438Y19574D01*
X16777Y19308D02*
X17173D01*
X12844Y23241D02*
X16777Y19308D01*
X16703Y19130D02*
X17285D01*
X12598Y23235D02*
X16703Y19130D01*
X12598Y23235D02*
Y23386D01*
X17285Y19130D02*
X17590Y19434D01*
X16373Y19965D02*
Y20189D01*
X12844Y23241D02*
Y24061D01*
X11811Y25094D02*
X12844Y24061D01*
X11811Y25094D02*
Y25173D01*
X17438Y19574D02*
X17452D01*
X17299Y19713D02*
X17313D01*
X21976Y21314D02*
X22332Y21669D01*
X18365Y17364D02*
Y17703D01*
X30561Y14173D02*
Y14252D01*
X20102Y16671D02*
X20121Y16652D01*
X19648Y16671D02*
X20102D01*
X30130Y15173D02*
X30561D01*
X24483Y19067D02*
X28250Y22835D01*
X22343Y19067D02*
X24483D01*
X24417Y19226D02*
X28364Y23173D01*
X22463Y19226D02*
X24417D01*
X22115Y19574D02*
X22463Y19226D01*
X24351Y19385D02*
X29139Y24173D01*
X22582Y19385D02*
X24351D01*
X22254Y19713D02*
X22582Y19385D01*
X24285Y19544D02*
X29914Y25173D01*
X22701Y19544D02*
X24285D01*
X22393Y19852D02*
X22701Y19544D01*
X18836Y17483D02*
X19648Y16671D01*
X22033Y15537D02*
X22441Y15945D01*
X22344Y18574D02*
Y18601D01*
X22316Y18628D02*
X22344Y18601D01*
X21837Y19295D02*
X22307Y18825D01*
X18836Y17616D02*
X19122Y17902D01*
X18836Y17483D02*
Y17616D01*
X12086Y15895D02*
X21461D01*
X11811Y16170D02*
X12086Y15895D01*
X21818Y15716D02*
X22146Y16043D01*
X13101Y15716D02*
X21818D01*
X12558Y15173D02*
X13101Y15716D01*
X21461Y15895D02*
X21707Y16142D01*
X21752D01*
X13175Y15537D02*
X22033D01*
X11811Y14173D02*
X13175Y15537D01*
X11811Y15173D02*
X12558D01*
X12764Y16142D02*
X21358D01*
X11811Y17094D02*
X12764Y16142D01*
X17341Y16866D02*
Y16913D01*
X16941Y16466D02*
X17341Y16866D01*
X14145Y16466D02*
X16941D01*
X12437Y18173D02*
X14145Y16466D01*
X16437Y17460D02*
X17993Y19017D01*
X18009D01*
X16437Y16732D02*
Y17460D01*
X17536Y18307D02*
X17577D01*
X17028Y17798D02*
X17536Y18307D01*
X17028Y16929D02*
Y17798D01*
X17520Y17971D02*
X18287Y18738D01*
X17520Y17913D02*
Y17971D01*
X17361Y17377D02*
X17786Y17803D01*
X17361Y16913D02*
Y17377D01*
X17539Y16457D02*
Y17303D01*
X17520Y16437D02*
X17539Y16457D01*
Y17303D02*
X17965Y17729D01*
Y17860D02*
X18566Y18460D01*
X17965Y17729D02*
Y17860D01*
X17786Y17959D02*
X18426Y18599D01*
X17786Y17803D02*
Y17959D01*
X17618Y13878D02*
Y15256D01*
X13484Y9744D02*
X17618Y13878D01*
X9055Y20685D02*
X9063Y20677D01*
X9933D01*
X9941Y20669D01*
X19037Y23292D02*
X19685Y23939D01*
X19037Y23209D02*
Y23292D01*
Y23209D02*
X19261Y22985D01*
Y22984D02*
Y22985D01*
X20584Y22706D02*
X20965Y23086D01*
Y23524D01*
X19291Y25197D02*
X20965Y23524D01*
X17224Y25197D02*
X19291D01*
X16240Y25374D02*
Y25394D01*
Y25374D02*
X16417Y25197D01*
X16732D01*
X17224D01*
X18110Y23917D02*
X18602D01*
X18110D02*
X18159Y23869D01*
Y23808D02*
Y23869D01*
Y23808D02*
X19122Y22845D01*
X13583Y12106D02*
X16732Y15256D01*
X13484Y12106D02*
X13583D01*
X16339Y15157D02*
Y15256D01*
X14173Y12992D02*
X16339Y15157D01*
X13878Y12992D02*
X14173D01*
X13878Y10650D02*
X17224Y13996D01*
Y15256D01*
X16437Y16732D02*
X16437Y16732D01*
X13878Y10630D02*
Y10650D01*
X17577Y18307D02*
X18148Y18878D01*
X17283Y21621D02*
X17591Y21314D01*
X17283Y21621D02*
Y21692D01*
X17208Y21767D02*
X17283Y21692D01*
X17422Y21761D02*
X17730Y21453D01*
X17352Y21761D02*
X17422D01*
X17277Y21836D02*
X17352Y21761D01*
X17208Y21836D02*
X17277D01*
X14246Y20105D02*
X14272Y20079D01*
X11879Y20105D02*
X14246D01*
X11811Y20173D02*
X11879Y20105D01*
X18406Y16831D02*
Y16839D01*
X18643Y17077D01*
Y17085D01*
Y17703D02*
X18983Y18043D01*
X18643Y17085D02*
Y17703D01*
X18365D02*
X18844Y18182D01*
X20862Y22427D02*
X20863D01*
X22001Y23564D01*
X22070D01*
X21587Y23788D02*
X21717Y23918D01*
X21587Y23430D02*
Y23788D01*
X20723Y22566D02*
X21587Y23430D01*
X30095Y17739D02*
X30561Y17274D01*
X20305Y17764D02*
X21080Y16989D01*
X19261Y17764D02*
X20195Y16830D01*
X30561Y17173D02*
Y17274D01*
X22612Y18825D02*
X22638Y18799D01*
X21697Y19156D02*
X22225Y18628D01*
X21976Y19434D02*
X22343Y19067D01*
X22225Y18628D02*
X22316D01*
X11811Y21094D02*
X12531Y20374D01*
X11811Y21094D02*
Y21173D01*
X12531Y20374D02*
X13976D01*
X11811Y19173D02*
X14252D01*
X14665Y19587D01*
X17765Y21976D02*
Y22392D01*
X11811Y18173D02*
X12437D01*
X17208Y22949D02*
X17487Y22671D01*
X11811Y24173D02*
X12598Y23386D01*
X17590Y19434D02*
X17591D01*
X11811Y17094D02*
Y17173D01*
Y16170D02*
Y16173D01*
X22307Y18825D02*
X22612D01*
X28364Y23173D02*
X30561D01*
X29900Y22835D02*
X30561Y22173D01*
X28250Y22835D02*
X29900D01*
X19122Y17902D02*
Y17903D01*
X29914Y25173D02*
X30561D01*
X29139Y24173D02*
X30561D01*
X18009Y21731D02*
Y21732D01*
X17487Y22045D02*
Y22114D01*
Y22045D02*
X17562Y21970D01*
Y21900D02*
Y21970D01*
Y21900D02*
X17870Y21593D01*
Y21592D02*
Y21593D01*
X17765Y21976D02*
X18009Y21732D01*
X17208Y21767D02*
Y21836D01*
X16652D02*
X16930Y21557D01*
X21558Y21731D02*
X22080Y22253D01*
X21802Y22253D02*
Y22532D01*
X21419Y21870D02*
X21802Y22253D01*
D22*
X11006Y12126D02*
D03*
Y12500D02*
D03*
Y12874D02*
D03*
X12026D02*
D03*
Y12500D02*
D03*
Y12126D02*
D03*
X11006Y9764D02*
D03*
Y10138D02*
D03*
Y10512D02*
D03*
X12026D02*
D03*
Y10138D02*
D03*
Y9764D02*
D03*
D23*
X15354Y24705D02*
D03*
X15728Y23927D02*
D03*
X14980D02*
D03*
D24*
X11604Y28169D02*
D03*
Y28917D02*
D03*
X10827Y28543D02*
D03*
D27*
X16916Y22657D02*
D03*
X16666Y22406D02*
D03*
D51*
X9941Y21654D02*
D03*
X10335D02*
D03*
X9941Y20669D02*
D03*
X10335D02*
D03*
X9941Y19685D02*
D03*
X10335D02*
D03*
X17717Y23917D02*
D03*
X18110D02*
D03*
X12008Y26870D02*
D03*
X11614D02*
D03*
X15551Y23425D02*
D03*
X15157D02*
D03*
D52*
X17224Y24803D02*
D03*
Y25197D02*
D03*
X10630Y11122D02*
D03*
Y11516D02*
D03*
X14468Y24311D02*
D03*
Y23917D02*
D03*
X16373Y20189D02*
D03*
Y20583D02*
D03*
D53*
X16240Y25394D02*
D03*
X15846D02*
D03*
X13878Y10630D02*
D03*
X13484D02*
D03*
Y12992D02*
D03*
X13878D02*
D03*
X13484Y9744D02*
D03*
X13091D02*
D03*
Y12106D02*
D03*
X13484D02*
D03*
X11122Y27559D02*
D03*
X10728D02*
D03*
D54*
X16732Y24803D02*
D03*
Y25197D02*
D03*
X12992Y10630D02*
D03*
Y10236D02*
D03*
Y12598D02*
D03*
Y12992D02*
D03*
X12598Y9744D02*
D03*
Y9350D02*
D03*
Y11713D02*
D03*
Y12106D02*
D03*
D55*
X21653Y24539D02*
D03*
X21374Y24260D02*
D03*
X22696Y23495D02*
D03*
X22418Y23216D02*
D03*
X17487Y22114D02*
D03*
X17765Y22392D02*
D03*
X17208D02*
D03*
X17487Y22671D02*
D03*
X16930Y22114D02*
D03*
X16652Y21836D02*
D03*
X17208D02*
D03*
X16930Y21557D02*
D03*
D56*
X21802Y22532D02*
D03*
X22080Y22253D02*
D03*
X18643Y17085D02*
D03*
X18365Y17364D02*
D03*
D57*
X21141Y22149D02*
D03*
X18009Y19017D02*
D03*
X22393Y20896D02*
D03*
X21976Y21314D02*
D03*
X22115Y21174D02*
D03*
X22254Y21035D02*
D03*
X21280Y22010D02*
D03*
X21419Y21870D02*
D03*
X21558Y21731D02*
D03*
X21697Y21592D02*
D03*
X21837Y21453D02*
D03*
X18844Y18182D02*
D03*
X19261Y17764D02*
D03*
X19122Y17903D02*
D03*
X18983Y18043D02*
D03*
X18148Y18878D02*
D03*
X18705Y18321D02*
D03*
X18566Y18460D02*
D03*
X18426Y18599D02*
D03*
X18287Y18738D02*
D03*
X20862Y22427D02*
D03*
X21001Y22288D02*
D03*
X20305Y22984D02*
D03*
X20445Y22845D02*
D03*
X20584Y22706D02*
D03*
X20723Y22566D02*
D03*
X17730Y19295D02*
D03*
X17870Y19156D02*
D03*
X17174Y19852D02*
D03*
X17591Y19434D02*
D03*
X17452Y19574D02*
D03*
X17313Y19713D02*
D03*
D58*
X21697Y19156D02*
D03*
X18566Y22288D02*
D03*
X22393Y19852D02*
D03*
X22254Y19713D02*
D03*
X22115Y19574D02*
D03*
X21976Y19434D02*
D03*
X21837Y19295D02*
D03*
X21280Y18738D02*
D03*
X21558Y19017D02*
D03*
X21419Y18878D02*
D03*
X21141Y18599D02*
D03*
X21001Y18460D02*
D03*
X20862Y18321D02*
D03*
X20723Y18182D02*
D03*
X20584Y18043D02*
D03*
X20445Y17903D02*
D03*
X20305Y17764D02*
D03*
X19261Y22984D02*
D03*
X18705Y22427D02*
D03*
X18844Y22566D02*
D03*
X18983Y22706D02*
D03*
X19122Y22845D02*
D03*
X18148Y21870D02*
D03*
X18287Y22010D02*
D03*
X18426Y22149D02*
D03*
X17174Y20896D02*
D03*
X17313Y21035D02*
D03*
X17452Y21174D02*
D03*
X17591Y21314D02*
D03*
X17730Y21453D02*
D03*
X17870Y21592D02*
D03*
X18009Y21731D02*
D03*
D59*
X14970Y23917D02*
Y23957D01*
X16814Y22657D02*
X16916D01*
X16654Y22816D02*
X16814Y22657D01*
X22198Y22343D02*
X22539D01*
X16417Y24281D02*
X16619Y24080D01*
X15295Y24281D02*
X16417D01*
X14970Y23957D02*
X15295Y24281D01*
X10335Y25787D02*
X11220Y26673D01*
X10335Y21654D02*
Y25787D01*
Y20669D02*
Y21654D01*
Y19685D02*
Y20669D01*
X9055Y19685D02*
X9941D01*
X9087Y21654D02*
X9941D01*
X9055Y21685D02*
X9087Y21654D01*
X15453Y25394D02*
X15846D01*
X16619Y24080D02*
X16782Y23917D01*
X16619Y24080D02*
X16702Y24163D01*
Y24379D01*
X16732Y24409D01*
Y24803D01*
X17224D01*
X16782Y23917D02*
X17717D01*
X22108Y22253D02*
X22198Y22343D01*
X22080Y22253D02*
X22108D01*
X22080D02*
X22080D01*
X11122Y27579D02*
X11467Y27923D01*
Y28071D01*
X11565Y28169D01*
X11122Y27559D02*
Y27579D01*
X11565Y28169D02*
X11604D01*
X17487Y22671D02*
X17765Y22392D01*
X17208D02*
X17487Y22114D01*
X16930Y22657D02*
X17194Y22392D01*
X17208D01*
X16666Y22392D02*
Y22406D01*
Y22392D02*
X16930Y22128D01*
Y22114D02*
Y22128D01*
Y22114D02*
X17208Y21836D01*
D60*
X14249Y23524D02*
Y24014D01*
X16033Y21988D02*
X16314Y22269D01*
X16033Y21348D02*
Y21988D01*
X15945Y21260D02*
X16033Y21348D01*
X12326Y29301D02*
X12746Y28881D01*
X11314Y29301D02*
X12326D01*
X11181Y29169D02*
X11314Y29301D01*
X11181Y28858D02*
Y29169D01*
X10866Y28543D02*
X11181Y28858D01*
X12746Y27667D02*
Y28881D01*
Y27667D02*
X15020Y25394D01*
X10489Y10512D02*
X10503D01*
X10266Y10289D02*
X10489Y10512D01*
X10266Y9987D02*
Y10289D01*
Y9987D02*
X10479Y9774D01*
X10996D01*
X11006Y9764D01*
X10503Y10512D02*
X10630Y10639D01*
X10236Y12697D02*
X10402Y12862D01*
X10236Y12303D02*
Y12697D01*
Y12303D02*
X10402Y12138D01*
X11220Y26673D02*
X11417Y26870D01*
X10491Y12862D02*
X10994D01*
X11602Y26488D02*
Y26858D01*
X11614Y26870D01*
X13971Y24120D02*
X14144D01*
X11602Y26488D02*
X13971Y24120D01*
X14144D02*
X14249Y24014D01*
X12303Y26969D02*
Y28735D01*
X12205Y26870D02*
X12303Y26969D01*
X11614Y28907D02*
X12130D01*
X11604Y28917D02*
X11614Y28907D01*
X12130D02*
X12303Y28735D01*
X15020Y25394D02*
X15453D01*
X10827Y28543D02*
X10866D01*
X14249Y23524D02*
X14665D01*
X15527Y20988D02*
X15772D01*
X15945Y21161D01*
Y21260D01*
X14665Y21850D02*
X15527Y20988D01*
X14665Y21850D02*
Y23327D01*
X9055Y10811D02*
X9127Y10883D01*
X9818D01*
X10058Y11122D01*
X10630D01*
X9055Y11811D02*
X9193Y11673D01*
X9833D01*
X9990Y11516D01*
X10630D01*
X10539Y12138D02*
X10630Y12047D01*
Y11516D02*
Y12047D01*
X10539Y12138D02*
X10994D01*
X11006Y12126D01*
X10994Y12862D02*
X11006Y12874D01*
X10630Y10639D02*
Y11122D01*
X12026Y12500D02*
X12402D01*
X12026Y10138D02*
X12402D01*
X11417Y26870D02*
X11614D01*
X14764Y23524D02*
X14970Y23730D01*
X10214Y27559D02*
X10558Y27215D01*
X11270D01*
X11614Y26870D01*
X10214Y27559D02*
X10728D01*
X14970Y23730D02*
Y23917D01*
X14970Y23917D01*
X9055Y27559D02*
X10138D01*
X10728D02*
X10728Y27559D01*
X10819Y28551D02*
X10827Y28543D01*
X9063Y28551D02*
X10819D01*
X9055Y28559D02*
X9063Y28551D01*
D61*
X23590Y25438D02*
D03*
D62*
X11811Y14157D02*
D03*
D63*
X30561D02*
D03*
Y15157D02*
D03*
Y16157D02*
D03*
Y17157D02*
D03*
Y18157D02*
D03*
Y19157D02*
D03*
Y20157D02*
D03*
Y21157D02*
D03*
Y22157D02*
D03*
Y23157D02*
D03*
Y24157D02*
D03*
Y25157D02*
D03*
X11811D02*
D03*
Y24157D02*
D03*
Y23157D02*
D03*
Y22157D02*
D03*
Y21157D02*
D03*
Y20157D02*
D03*
Y19157D02*
D03*
Y18157D02*
D03*
Y17157D02*
D03*
Y16157D02*
D03*
Y15157D02*
D03*
D64*
X22260Y29331D02*
D03*
D65*
X21260D02*
D03*
X20260D02*
D03*
X19260D02*
D03*
X9055Y10811D02*
D03*
Y27559D02*
D03*
Y17685D02*
D03*
Y19685D02*
D03*
Y18685D02*
D03*
Y20685D02*
D03*
D66*
Y11811D02*
D03*
Y28559D02*
D03*
D67*
X22070Y23564D02*
D03*
X21717Y23918D02*
D03*
D68*
X9055Y21685D02*
D03*
D69*
X22088Y18377D02*
D03*
X21762Y18179D02*
D03*
X15089Y22096D02*
D03*
X16654Y22816D02*
D03*
X15377Y21775D02*
D03*
X22441Y15945D02*
D03*
X22344Y18574D02*
D03*
X12697Y26870D02*
D03*
X15604Y21510D02*
D03*
X14272Y20079D02*
D03*
X22638Y18799D02*
D03*
X13976Y20374D02*
D03*
X14665Y19587D02*
D03*
X21358Y16142D02*
D03*
X21752D02*
D03*
X22146Y16043D02*
D03*
D70*
X22539Y22343D02*
D03*
X22244Y22736D02*
D03*
X15551Y23130D02*
D03*
X18209Y17421D02*
D03*
X17520Y17913D02*
D03*
X10630Y10138D02*
D03*
Y12500D02*
D03*
X11220Y26673D02*
D03*
X14567Y28642D02*
D03*
X14665Y28150D02*
D03*
X14665Y29035D02*
D03*
X14272Y27264D02*
D03*
X14272Y27657D02*
D03*
X19685Y23939D02*
D03*
X16732Y24409D02*
D03*
X18602Y23917D02*
D03*
X16339Y15256D02*
D03*
X17618D02*
D03*
X17224D02*
D03*
X16732D02*
D03*
X16437Y16732D02*
D03*
X17028Y16929D02*
D03*
X17520Y16437D02*
D03*
X15945Y21260D02*
D03*
X18406Y16831D02*
D03*
X12402Y12500D02*
D03*
Y10138D02*
D03*
M02*
