G04*
G04 #@! TF.GenerationSoftware,Altium Limited,Altium Designer,19.1.5 (86)*
G04*
G04 Layer_Color=16751103*
%FSLAX44Y44*%
%MOMM*%
G71*
G01*
G75*
%ADD11C,0.5000*%
D11*
X750000Y820000D02*
G03*
X720000Y850000I-30000J0D01*
G01*
X230000D02*
G03*
X200000Y820000I0J-30000D01*
G01*
X720000Y150000D02*
G03*
X750000Y180000I0J30000D01*
G01*
X200000Y180000D02*
G03*
X230000Y150000I30000J0D01*
G01*
X820000Y520000D02*
G03*
X800000Y500000I0J-20000D01*
G01*
D02*
G03*
X820000Y480000I20000J0D01*
G01*
X770000Y320000D02*
G03*
X750000Y300000I0J-20000D01*
G01*
Y700000D02*
G03*
X770000Y680000I20000J0D01*
G01*
X830000Y660000D02*
X850000Y640000D01*
X810000Y680000D02*
X830000Y660000D01*
X830000Y340000D02*
X850000Y360000D01*
X810000Y320000D02*
X830000Y340000D01*
X830000D02*
X830000D01*
X820000Y480000D02*
X850000D01*
X820000Y520000D02*
X850000D01*
X230000Y150000D02*
X720000D01*
X750000Y180000D02*
Y300000D01*
X770000Y320000D02*
X810000D01*
X850000Y360000D02*
Y480000D01*
Y520000D02*
Y640000D01*
X770000Y680000D02*
X810000D01*
X750000Y700000D02*
Y820000D01*
X200000Y180000D02*
X200000Y820000D01*
X230000Y850000D02*
X720000D01*
M02*
