G04*
G04 #@! TF.GenerationSoftware,Altium Limited,Altium Designer,19.1.5 (86)*
G04*
G04 Layer_Color=8388736*
%FSLAX24Y24*%
%MOIN*%
G70*
G01*
G75*
G04:AMPARAMS|DCode=28|XSize=90mil|YSize=120mil|CornerRadius=0mil|HoleSize=0mil|Usage=FLASHONLY|Rotation=315.000|XOffset=0mil|YOffset=0mil|HoleType=Round|Shape=Rectangle|*
%AMROTATEDRECTD28*
4,1,4,-0.0742,-0.0106,0.0106,0.0742,0.0742,0.0106,-0.0106,-0.0742,-0.0742,-0.0106,0.0*
%
%ADD28ROTATEDRECTD28*%

G04:AMPARAMS|DCode=29|XSize=25.6mil|YSize=25.6mil|CornerRadius=3.2mil|HoleSize=0mil|Usage=FLASHONLY|Rotation=180.000|XOffset=0mil|YOffset=0mil|HoleType=Round|Shape=RoundedRectangle|*
%AMROUNDEDRECTD29*
21,1,0.0256,0.0193,0,0,180.0*
21,1,0.0193,0.0256,0,0,180.0*
1,1,0.0063,-0.0096,0.0096*
1,1,0.0063,0.0096,0.0096*
1,1,0.0063,0.0096,-0.0096*
1,1,0.0063,-0.0096,-0.0096*
%
%ADD29ROUNDEDRECTD29*%
G04:AMPARAMS|DCode=30|XSize=25.6mil|YSize=25.6mil|CornerRadius=3.2mil|HoleSize=0mil|Usage=FLASHONLY|Rotation=270.000|XOffset=0mil|YOffset=0mil|HoleType=Round|Shape=RoundedRectangle|*
%AMROUNDEDRECTD30*
21,1,0.0256,0.0193,0,0,270.0*
21,1,0.0193,0.0256,0,0,270.0*
1,1,0.0063,-0.0096,-0.0096*
1,1,0.0063,-0.0096,0.0096*
1,1,0.0063,0.0096,0.0096*
1,1,0.0063,0.0096,-0.0096*
%
%ADD30ROUNDEDRECTD30*%
G04:AMPARAMS|DCode=31|XSize=27.6mil|YSize=31.5mil|CornerRadius=4.1mil|HoleSize=0mil|Usage=FLASHONLY|Rotation=0.000|XOffset=0mil|YOffset=0mil|HoleType=Round|Shape=RoundedRectangle|*
%AMROUNDEDRECTD31*
21,1,0.0276,0.0232,0,0,0.0*
21,1,0.0193,0.0315,0,0,0.0*
1,1,0.0083,0.0096,-0.0116*
1,1,0.0083,-0.0096,-0.0116*
1,1,0.0083,-0.0096,0.0116*
1,1,0.0083,0.0096,0.0116*
%
%ADD31ROUNDEDRECTD31*%
G04:AMPARAMS|DCode=32|XSize=27.6mil|YSize=31.5mil|CornerRadius=4.1mil|HoleSize=0mil|Usage=FLASHONLY|Rotation=270.000|XOffset=0mil|YOffset=0mil|HoleType=Round|Shape=RoundedRectangle|*
%AMROUNDEDRECTD32*
21,1,0.0276,0.0232,0,0,270.0*
21,1,0.0193,0.0315,0,0,270.0*
1,1,0.0083,-0.0116,-0.0096*
1,1,0.0083,-0.0116,0.0096*
1,1,0.0083,0.0116,0.0096*
1,1,0.0083,0.0116,-0.0096*
%
%ADD32ROUNDEDRECTD32*%
G04:AMPARAMS|DCode=33|XSize=31.1mil|YSize=42.9mil|CornerRadius=2.2mil|HoleSize=0mil|Usage=FLASHONLY|Rotation=270.000|XOffset=0mil|YOffset=0mil|HoleType=Round|Shape=RoundedRectangle|*
%AMROUNDEDRECTD33*
21,1,0.0311,0.0384,0,0,270.0*
21,1,0.0266,0.0429,0,0,270.0*
1,1,0.0045,-0.0192,-0.0133*
1,1,0.0045,-0.0192,0.0133*
1,1,0.0045,0.0192,0.0133*
1,1,0.0045,0.0192,-0.0133*
%
%ADD33ROUNDEDRECTD33*%
%ADD34R,0.0354X0.0433*%
%ADD35R,0.0433X0.0354*%
G04:AMPARAMS|DCode=36|XSize=25.6mil|YSize=25.6mil|CornerRadius=3.2mil|HoleSize=0mil|Usage=FLASHONLY|Rotation=225.000|XOffset=0mil|YOffset=0mil|HoleType=Round|Shape=RoundedRectangle|*
%AMROUNDEDRECTD36*
21,1,0.0256,0.0193,0,0,225.0*
21,1,0.0193,0.0256,0,0,225.0*
1,1,0.0063,-0.0136,0.0000*
1,1,0.0063,0.0000,0.0136*
1,1,0.0063,0.0136,0.0000*
1,1,0.0063,0.0000,-0.0136*
%
%ADD36ROUNDEDRECTD36*%
G04:AMPARAMS|DCode=37|XSize=25.6mil|YSize=25.6mil|CornerRadius=3.2mil|HoleSize=0mil|Usage=FLASHONLY|Rotation=315.000|XOffset=0mil|YOffset=0mil|HoleType=Round|Shape=RoundedRectangle|*
%AMROUNDEDRECTD37*
21,1,0.0256,0.0193,0,0,315.0*
21,1,0.0193,0.0256,0,0,315.0*
1,1,0.0063,0.0000,-0.0136*
1,1,0.0063,-0.0136,0.0000*
1,1,0.0063,0.0000,0.0136*
1,1,0.0063,0.0136,0.0000*
%
%ADD37ROUNDEDRECTD37*%
G04:AMPARAMS|DCode=38|XSize=61mil|YSize=13.8mil|CornerRadius=2.1mil|HoleSize=0mil|Usage=FLASHONLY|Rotation=45.000|XOffset=0mil|YOffset=0mil|HoleType=Round|Shape=RoundedRectangle|*
%AMROUNDEDRECTD38*
21,1,0.0610,0.0096,0,0,45.0*
21,1,0.0569,0.0138,0,0,45.0*
1,1,0.0041,0.0235,0.0167*
1,1,0.0041,-0.0167,-0.0235*
1,1,0.0041,-0.0235,-0.0167*
1,1,0.0041,0.0167,0.0235*
%
%ADD38ROUNDEDRECTD38*%
G04:AMPARAMS|DCode=39|XSize=61mil|YSize=13.8mil|CornerRadius=2.1mil|HoleSize=0mil|Usage=FLASHONLY|Rotation=315.000|XOffset=0mil|YOffset=0mil|HoleType=Round|Shape=RoundedRectangle|*
%AMROUNDEDRECTD39*
21,1,0.0610,0.0096,0,0,315.0*
21,1,0.0569,0.0138,0,0,315.0*
1,1,0.0041,0.0167,-0.0235*
1,1,0.0041,-0.0235,0.0167*
1,1,0.0041,-0.0167,0.0235*
1,1,0.0041,0.0235,-0.0167*
%
%ADD39ROUNDEDRECTD39*%
G04:AMPARAMS|DCode=40|XSize=28.3mil|YSize=23.6mil|CornerRadius=0mil|HoleSize=0mil|Usage=FLASHONLY|Rotation=315.000|XOffset=0mil|YOffset=0mil|HoleType=Round|Shape=Rectangle|*
%AMROTATEDRECTD40*
4,1,4,-0.0184,0.0017,-0.0017,0.0184,0.0184,-0.0017,0.0017,-0.0184,-0.0184,0.0017,0.0*
%
%ADD40ROTATEDRECTD40*%

G04:AMPARAMS|DCode=41|XSize=78.7mil|YSize=63mil|CornerRadius=9.4mil|HoleSize=0mil|Usage=FLASHONLY|Rotation=90.000|XOffset=0mil|YOffset=0mil|HoleType=Round|Shape=RoundedRectangle|*
%AMROUNDEDRECTD41*
21,1,0.0787,0.0443,0,0,90.0*
21,1,0.0600,0.0630,0,0,90.0*
1,1,0.0187,0.0221,0.0300*
1,1,0.0187,0.0221,-0.0300*
1,1,0.0187,-0.0221,-0.0300*
1,1,0.0187,-0.0221,0.0300*
%
%ADD41ROUNDEDRECTD41*%
%ADD42O,0.0630X0.0787*%
%ADD43C,0.0039*%
%ADD44R,0.0709X0.0709*%
%ADD45C,0.0709*%
%ADD46R,0.0709X0.0709*%
G04:AMPARAMS|DCode=47|XSize=74.8mil|YSize=43.3mil|CornerRadius=11.8mil|HoleSize=0mil|Usage=FLASHONLY|Rotation=45.000|XOffset=0mil|YOffset=0mil|HoleType=Round|Shape=RoundedRectangle|*
%AMROUNDEDRECTD47*
21,1,0.0748,0.0197,0,0,45.0*
21,1,0.0512,0.0433,0,0,45.0*
1,1,0.0236,0.0251,0.0111*
1,1,0.0236,-0.0111,-0.0251*
1,1,0.0236,-0.0251,-0.0111*
1,1,0.0236,0.0111,0.0251*
%
%ADD47ROUNDEDRECTD47*%
G04:AMPARAMS|DCode=48|XSize=70.9mil|YSize=70.9mil|CornerRadius=10.3mil|HoleSize=0mil|Usage=FLASHONLY|Rotation=270.000|XOffset=0mil|YOffset=0mil|HoleType=Round|Shape=RoundedRectangle|*
%AMROUNDEDRECTD48*
21,1,0.0709,0.0502,0,0,270.0*
21,1,0.0502,0.0709,0,0,270.0*
1,1,0.0207,-0.0251,-0.0251*
1,1,0.0207,-0.0251,0.0251*
1,1,0.0207,0.0251,0.0251*
1,1,0.0207,0.0251,-0.0251*
%
%ADD48ROUNDEDRECTD48*%
%ADD49C,0.0276*%
%ADD50C,0.0315*%
D28*
X23590Y25438D02*
D03*
D29*
X9941Y21654D02*
D03*
X10335D02*
D03*
X9941Y20669D02*
D03*
X10335D02*
D03*
X9941Y19685D02*
D03*
X10335D02*
D03*
X17717Y23917D02*
D03*
X18110D02*
D03*
X12008Y26870D02*
D03*
X11614D02*
D03*
X15551Y23425D02*
D03*
X15157D02*
D03*
D30*
X17224Y24803D02*
D03*
Y25197D02*
D03*
X10630Y11122D02*
D03*
Y11516D02*
D03*
X14468Y24311D02*
D03*
Y23917D02*
D03*
X16373Y20189D02*
D03*
Y20583D02*
D03*
D31*
X16240Y25394D02*
D03*
X15846D02*
D03*
X13878Y10630D02*
D03*
X13484D02*
D03*
Y12992D02*
D03*
X13878D02*
D03*
X13484Y9744D02*
D03*
X13091D02*
D03*
Y12106D02*
D03*
X13484D02*
D03*
X11122Y27559D02*
D03*
X10728D02*
D03*
D32*
X16732Y24803D02*
D03*
Y25197D02*
D03*
X12992Y10630D02*
D03*
Y10236D02*
D03*
Y12598D02*
D03*
Y12992D02*
D03*
X12598Y9744D02*
D03*
Y9350D02*
D03*
Y11713D02*
D03*
Y12106D02*
D03*
D33*
X11006Y12126D02*
D03*
Y12500D02*
D03*
Y12874D02*
D03*
X12026D02*
D03*
Y12500D02*
D03*
Y12126D02*
D03*
X11006Y9764D02*
D03*
Y10138D02*
D03*
Y10512D02*
D03*
X12026D02*
D03*
Y10138D02*
D03*
Y9764D02*
D03*
D34*
X15354Y24705D02*
D03*
X15728Y23927D02*
D03*
X14980D02*
D03*
D35*
X11604Y28169D02*
D03*
Y28917D02*
D03*
X10827Y28543D02*
D03*
D36*
X21653Y24539D02*
D03*
X21374Y24260D02*
D03*
X22696Y23495D02*
D03*
X22418Y23216D02*
D03*
X17487Y22114D02*
D03*
X17765Y22392D02*
D03*
X17208D02*
D03*
X17487Y22671D02*
D03*
X16930Y22114D02*
D03*
X16652Y21836D02*
D03*
X17208D02*
D03*
X16930Y21557D02*
D03*
D37*
X21802Y22532D02*
D03*
X22080Y22253D02*
D03*
X18643Y17085D02*
D03*
X18365Y17364D02*
D03*
D38*
X21141Y22149D02*
D03*
X18009Y19017D02*
D03*
X22393Y20896D02*
D03*
X21976Y21314D02*
D03*
X22115Y21174D02*
D03*
X22254Y21035D02*
D03*
X21280Y22010D02*
D03*
X21419Y21870D02*
D03*
X21558Y21731D02*
D03*
X21697Y21592D02*
D03*
X21837Y21453D02*
D03*
X18844Y18182D02*
D03*
X19261Y17764D02*
D03*
X19122Y17903D02*
D03*
X18983Y18043D02*
D03*
X18148Y18878D02*
D03*
X18705Y18321D02*
D03*
X18566Y18460D02*
D03*
X18426Y18599D02*
D03*
X18287Y18738D02*
D03*
X20862Y22427D02*
D03*
X21001Y22288D02*
D03*
X20305Y22984D02*
D03*
X20445Y22845D02*
D03*
X20584Y22706D02*
D03*
X20723Y22566D02*
D03*
X17730Y19295D02*
D03*
X17870Y19156D02*
D03*
X17174Y19852D02*
D03*
X17591Y19434D02*
D03*
X17452Y19574D02*
D03*
X17313Y19713D02*
D03*
D39*
X21697Y19156D02*
D03*
X18566Y22288D02*
D03*
X22393Y19852D02*
D03*
X22254Y19713D02*
D03*
X22115Y19574D02*
D03*
X21976Y19434D02*
D03*
X21837Y19295D02*
D03*
X21280Y18738D02*
D03*
X21558Y19017D02*
D03*
X21419Y18878D02*
D03*
X21141Y18599D02*
D03*
X21001Y18460D02*
D03*
X20862Y18321D02*
D03*
X20723Y18182D02*
D03*
X20584Y18043D02*
D03*
X20445Y17903D02*
D03*
X20305Y17764D02*
D03*
X19261Y22984D02*
D03*
X18705Y22427D02*
D03*
X18844Y22566D02*
D03*
X18983Y22706D02*
D03*
X19122Y22845D02*
D03*
X18148Y21870D02*
D03*
X18287Y22010D02*
D03*
X18426Y22149D02*
D03*
X17174Y20896D02*
D03*
X17313Y21035D02*
D03*
X17452Y21174D02*
D03*
X17591Y21314D02*
D03*
X17730Y21453D02*
D03*
X17870Y21592D02*
D03*
X18009Y21731D02*
D03*
D40*
X16916Y22657D02*
D03*
X16666Y22406D02*
D03*
D41*
X11811Y14157D02*
D03*
D42*
X30561D02*
D03*
Y15157D02*
D03*
Y16157D02*
D03*
Y17157D02*
D03*
Y18157D02*
D03*
Y19157D02*
D03*
Y20157D02*
D03*
Y21157D02*
D03*
Y22157D02*
D03*
Y23157D02*
D03*
Y24157D02*
D03*
Y25157D02*
D03*
X11811D02*
D03*
Y24157D02*
D03*
Y23157D02*
D03*
Y22157D02*
D03*
Y21157D02*
D03*
Y20157D02*
D03*
Y19157D02*
D03*
Y18157D02*
D03*
Y17157D02*
D03*
Y16157D02*
D03*
Y15157D02*
D03*
D43*
X9449Y7480D02*
D03*
Y31890D02*
D03*
D44*
X22260Y29331D02*
D03*
D45*
X21260D02*
D03*
X20260D02*
D03*
X19260D02*
D03*
X9055Y10811D02*
D03*
Y27559D02*
D03*
Y17685D02*
D03*
Y19685D02*
D03*
Y18685D02*
D03*
Y20685D02*
D03*
D46*
Y11811D02*
D03*
Y28559D02*
D03*
D47*
X22070Y23564D02*
D03*
X21717Y23918D02*
D03*
D48*
X9055Y21685D02*
D03*
D49*
X22088Y18377D02*
D03*
X21762Y18179D02*
D03*
X15089Y22096D02*
D03*
X16654Y22816D02*
D03*
X15377Y21775D02*
D03*
X22441Y15945D02*
D03*
X22344Y18574D02*
D03*
X12697Y26870D02*
D03*
X15604Y21510D02*
D03*
X14272Y20079D02*
D03*
X22638Y18799D02*
D03*
X13976Y20374D02*
D03*
X14665Y19587D02*
D03*
X21358Y16142D02*
D03*
X21752D02*
D03*
X22146Y16043D02*
D03*
D50*
X22539Y22343D02*
D03*
X22244Y22736D02*
D03*
X15551Y23130D02*
D03*
X18209Y17421D02*
D03*
X17520Y17913D02*
D03*
X10630Y10138D02*
D03*
Y12500D02*
D03*
X11220Y26673D02*
D03*
X14567Y28642D02*
D03*
X14665Y28150D02*
D03*
X14665Y29035D02*
D03*
X14272Y27264D02*
D03*
X14272Y27657D02*
D03*
X19685Y23939D02*
D03*
X16732Y24409D02*
D03*
X18602Y23917D02*
D03*
X16339Y15256D02*
D03*
X17618D02*
D03*
X17224D02*
D03*
X16732D02*
D03*
X16437Y16732D02*
D03*
X17028Y16929D02*
D03*
X17520Y16437D02*
D03*
X15945Y21260D02*
D03*
X18406Y16831D02*
D03*
X12402Y12500D02*
D03*
Y10138D02*
D03*
M02*
