M48
;Layer_Color=9474304
;FILE_FORMAT=2:3
INCH,LZ
;TYPE=PLATED
T3F00S00C0.031
%
G90
G05
T03
G00X01181Y01404
M15
G01Y01431
M16
G00X01181Y01504
M15
G01Y01531
M16
G00X03056Y01504
M15
G01Y01531
M16
G00X03056Y01404
M15
G01Y01431
M16
G00X03056Y01604
M15
G01Y01631
M16
G00X03056Y01704
M15
G01Y01731
M16
G00X03056Y01804
M15
G01Y01831
M16
G00X03056Y01904
M15
G01Y01931
M16
G00X03056Y02004
M15
G01Y02031
M16
G00X03056Y02104
M15
G01Y02131
M16
G00X03056Y02204
M15
G01Y02231
M16
G00X03056Y02304
M15
G01Y02331
M16
G00X03056Y02404
M15
G01Y02431
M16
G00X03056Y02504
M15
G01Y02531
M16
G00X01181Y02504
M15
G01Y02531
M16
G00X01181Y02404
M15
G01Y02431
M16
G00X01181Y02304
M15
G01Y02331
M16
G00X01181Y02204
M15
G01Y02231
M16
G00X01181Y02104
M15
G01Y02131
M16
G00X01181Y02004
M15
G01Y02031
M16
G00X01181Y01904
M15
G01Y01931
M16
G00X01181Y01804
M15
G01Y01831
M16
G00X01181Y01704
M15
G01Y01731
M16
G00X01181Y01604
M15
G01Y01631
M16
M17
M30
