M48
;Layer_Color=9474304
;FILE_FORMAT=2:3
INCH,LZ
;TYPE=PLATED
T1F00S00C0.012
T2F00S00C0.020
T4F00S00C0.039
T5F00S00C0.043
%
T01
X01063Y01014
X0124
Y0125
X01063
X01634Y01526
X01673
X01722
X01762
X01752Y01644
X01703Y01693
X01644Y01673
X01841Y01683
X01811Y01752
X01742Y01801
X02195Y01801
X02224Y01821
X02234Y0186
X02264Y0188
X02244Y01594
X02215Y01604
X02175Y01614
X02136
X02254Y02234
X02224Y02274
X01969Y02394
X0186Y02392
X01673Y02441
X01663Y02283
X01594Y02126
X0156Y02151
X01538Y02177
X01516Y02205
X01555Y02313
X01427Y02008
X01398Y02037
X01467Y01959
X01427Y02726
X01427Y02766
X01467Y02815
X01457Y02864
X01467Y02904
X0127Y02687
X01122Y02667
T02
X02207Y02356
X02172Y02392
T04
X00906Y01769
Y01869
Y01969
Y02069
Y02169
T05
X00906Y01081
Y01181
X01926Y02933
X02026
X02126
X02226
X00906Y02856
Y02756
M30
