G04*
G04 #@! TF.GenerationSoftware,Altium Limited,Altium Designer,19.1.5 (86)*
G04*
G04 Layer_Physical_Order=2*
G04 Layer_Color=16711680*
%FSLAX44Y44*%
%MOMM*%
G71*
G01*
G75*
%ADD11C,0.5000*%
%ADD13C,0.2540*%
%ADD59C,0.3000*%
%ADD60C,0.7500*%
%ADD62O,1.5000X1.9000*%
G04:AMPARAMS|DCode=63|XSize=1.9mm|YSize=1.5mm|CornerRadius=0.1875mm|HoleSize=0mm|Usage=FLASHONLY|Rotation=90.000|XOffset=0mm|YOffset=0mm|HoleType=Round|Shape=RoundedRectangle|*
%AMROUNDEDRECTD63*
21,1,1.9000,1.1250,0,0,90.0*
21,1,1.5250,1.5000,0,0,90.0*
1,1,0.3750,0.5625,0.7625*
1,1,0.3750,0.5625,-0.7625*
1,1,0.3750,-0.5625,-0.7625*
1,1,0.3750,-0.5625,0.7625*
%
%ADD63ROUNDEDRECTD63*%
%ADD64R,1.7000X1.7000*%
%ADD65C,1.7000*%
%ADD66R,1.7000X1.7000*%
G04:AMPARAMS|DCode=67|XSize=1.8mm|YSize=1mm|CornerRadius=0.25mm|HoleSize=0mm|Usage=FLASHONLY|Rotation=45.000|XOffset=0mm|YOffset=0mm|HoleType=Round|Shape=RoundedRectangle|*
%AMROUNDEDRECTD67*
21,1,1.8000,0.5000,0,0,45.0*
21,1,1.3000,1.0000,0,0,45.0*
1,1,0.5000,0.6364,0.2828*
1,1,0.5000,-0.2828,-0.6364*
1,1,0.5000,-0.6364,-0.2828*
1,1,0.5000,0.2828,0.6364*
%
%ADD67ROUNDEDRECTD67*%
G04:AMPARAMS|DCode=68|XSize=1.7mm|YSize=1.7mm|CornerRadius=0.2125mm|HoleSize=0mm|Usage=FLASHONLY|Rotation=270.000|XOffset=0mm|YOffset=0mm|HoleType=Round|Shape=RoundedRectangle|*
%AMROUNDEDRECTD68*
21,1,1.7000,1.2750,0,0,270.0*
21,1,1.2750,1.7000,0,0,270.0*
1,1,0.4250,-0.6375,-0.6375*
1,1,0.4250,-0.6375,0.6375*
1,1,0.4250,0.6375,0.6375*
1,1,0.4250,0.6375,-0.6375*
%
%ADD68ROUNDEDRECTD68*%
%ADD69C,0.6000*%
%ADD70C,0.7000*%
%ADD71C,0.9144*%
D11*
X524809Y519809D02*
X572500Y567500D01*
X580000Y540000D02*
Y563686D01*
X580500Y564186D01*
Y570814D01*
X574196Y577117D02*
X580500Y570814D01*
X565000Y577500D02*
X565383Y577117D01*
X485028Y579528D02*
X559400Y653900D01*
X423021Y579528D02*
X485028D01*
X422972D02*
X423021D01*
X415000Y587500D02*
X422972Y579528D01*
X423021D02*
Y580521D01*
X430000Y587500D01*
X395000Y565000D02*
Y587500D01*
X415000D01*
X467500Y427500D02*
X580000Y540000D01*
X565383Y577117D02*
X574196D01*
X559400Y653900D02*
Y739000D01*
X454499Y439185D02*
X466185Y427500D01*
X454499Y439185D02*
Y459499D01*
X460000Y465000D01*
X466185Y427500D02*
X467500D01*
X462499Y442499D02*
Y447499D01*
X477500Y462500D01*
X559400Y739000D02*
X565400Y745000D01*
X477500Y462500D02*
X524809Y509809D01*
Y519809D01*
X430000Y587500D02*
Y605000D01*
X395000Y565000D02*
X477500Y482500D01*
X405000Y540000D02*
X460000Y485000D01*
Y465000D02*
Y485000D01*
X477500Y462500D02*
Y482500D01*
D13*
X295219Y710488D02*
X366781D01*
X213690Y628959D02*
X295219Y710488D01*
X290072Y692500D02*
X362500D01*
X223000Y625428D02*
X290072Y692500D01*
X223000Y557800D02*
Y625428D01*
X293650Y702499D02*
X362499D01*
X218230Y627078D02*
X293650Y702499D01*
X218230Y542190D02*
Y627078D01*
X213690Y516310D02*
Y628959D01*
X305811Y727500D02*
X370000D01*
X209150Y630839D02*
X305811Y727500D01*
X209150Y495450D02*
Y630839D01*
X309390Y737500D02*
X372500D01*
X204610Y632720D02*
X309390Y737500D01*
X204610Y474590D02*
Y632720D01*
X213690Y516310D02*
X230000Y500000D01*
X209150Y495450D02*
X230000Y474600D01*
X204610Y474590D02*
X230000Y449200D01*
X218230Y542190D02*
X218730Y541690D01*
Y536670D02*
Y541690D01*
X223000Y557800D02*
X230000Y550800D01*
X561027Y418527D02*
Y466773D01*
X552500Y410000D02*
X561027Y418527D01*
X552750Y420250D02*
Y461750D01*
X542500Y410000D02*
X552750Y420250D01*
X383250Y558250D02*
Y561250D01*
X355000Y530000D02*
X383250Y558250D01*
X390578Y538078D02*
Y553078D01*
X511750Y742150D02*
X514600Y745000D01*
X511750Y646750D02*
Y742150D01*
X472500Y607500D02*
X511750Y646750D01*
X570000Y405000D02*
X576500Y411500D01*
X567528Y471591D02*
Y471773D01*
X567500Y471564D02*
X567528Y471591D01*
X575000Y477500D02*
X576500Y476000D01*
Y411500D02*
Y476000D01*
X425000Y435000D02*
X444999Y454999D01*
X425000Y387500D02*
Y435000D01*
X366781Y710488D02*
X371293Y715000D01*
X372500D01*
X218730Y536670D02*
X230000Y525400D01*
X519043Y627104D02*
Y724043D01*
X540000Y745000D01*
X500000Y608061D02*
X519043Y627104D01*
X471647Y608353D02*
X472500Y607500D01*
X467398Y608353D02*
X471647D01*
X463287Y612465D02*
X467398Y608353D01*
X461500Y612465D02*
X463287D01*
X417499Y389999D02*
Y424999D01*
X415000Y387500D02*
X417499Y389999D01*
X447500Y387500D02*
Y392500D01*
X445000Y395000D02*
X447500Y392500D01*
X432500Y392500D02*
Y430000D01*
Y392500D02*
X437500Y387500D01*
X445000Y395000D02*
Y417500D01*
X355000Y517500D02*
Y530000D01*
X396348Y523848D02*
Y546348D01*
X373162Y500662D02*
X396348Y523848D01*
X362500Y510000D02*
X390578Y538078D01*
X372500Y497500D02*
X373162Y498162D01*
Y500662D01*
X570770Y415770D02*
Y468294D01*
X567500Y471564D02*
X570770Y468294D01*
X562500Y407500D02*
X570770Y415770D01*
D59*
X425000Y620000D02*
X489200Y684200D01*
Y745000D01*
D60*
X270000Y317500D02*
Y662500D01*
X285000Y677500D01*
X270000Y257500D02*
Y317500D01*
X317500Y682500D02*
X322500D01*
X282500Y647500D02*
X317500Y682500D01*
X282500Y350000D02*
Y647500D01*
Y350000D02*
X315000Y317500D01*
Y257500D02*
Y317500D01*
D62*
X300000Y385000D02*
D03*
Y410400D02*
D03*
Y435800D02*
D03*
Y461200D02*
D03*
Y486600D02*
D03*
Y512000D02*
D03*
Y537400D02*
D03*
Y562800D02*
D03*
Y588200D02*
D03*
Y613600D02*
D03*
Y639000D02*
D03*
X776250D02*
D03*
Y613600D02*
D03*
Y588200D02*
D03*
Y562800D02*
D03*
Y537400D02*
D03*
Y512000D02*
D03*
Y486600D02*
D03*
Y461200D02*
D03*
Y435800D02*
D03*
Y410400D02*
D03*
Y385000D02*
D03*
Y359600D02*
D03*
D63*
X300000D02*
D03*
D64*
X565400Y745000D02*
D03*
D65*
X540000D02*
D03*
X514600D02*
D03*
X489200D02*
D03*
X230000Y274600D02*
D03*
Y700000D02*
D03*
Y449200D02*
D03*
Y500000D02*
D03*
Y474600D02*
D03*
Y525400D02*
D03*
D66*
Y300000D02*
D03*
Y725400D02*
D03*
D67*
X560581Y598535D02*
D03*
X551600Y607515D02*
D03*
D68*
X230000Y550800D02*
D03*
D69*
X561027Y466773D02*
D03*
X552750Y461750D02*
D03*
X383250Y561250D02*
D03*
X423021Y579528D02*
D03*
X390578Y553078D02*
D03*
X570000Y405000D02*
D03*
X567528Y471773D02*
D03*
X322500Y682500D02*
D03*
X396348Y546348D02*
D03*
X362500Y510000D02*
D03*
X575000Y477500D02*
D03*
X355000Y517500D02*
D03*
X372500Y497500D02*
D03*
X542500Y410000D02*
D03*
X552500D02*
D03*
X562500Y407500D02*
D03*
D70*
X572500Y567500D02*
D03*
X565000Y577500D02*
D03*
X395000Y587500D02*
D03*
X462499Y442499D02*
D03*
X444999Y454999D02*
D03*
X270000Y257500D02*
D03*
Y317500D02*
D03*
X285000Y677500D02*
D03*
X370000Y727500D02*
D03*
X372500Y715000D02*
D03*
X372500Y737500D02*
D03*
X362500Y692500D02*
D03*
X362499Y702499D02*
D03*
X500000Y608061D02*
D03*
X425000Y620000D02*
D03*
X472500Y607500D02*
D03*
X415000Y387500D02*
D03*
X447500D02*
D03*
X437500D02*
D03*
X425000D02*
D03*
X417499Y424999D02*
D03*
X432500Y430000D02*
D03*
X445000Y417500D02*
D03*
X405000Y540000D02*
D03*
X467500Y427500D02*
D03*
X315000Y317500D02*
D03*
Y257500D02*
D03*
D71*
X461500Y612465D02*
D03*
X430000Y605000D02*
D03*
X430000Y631000D02*
D03*
M02*
