G04*
G04 #@! TF.GenerationSoftware,Altium Limited,Altium Designer,19.1.5 (86)*
G04*
G04 Layer_Color=2752767*
%FSLAX44Y44*%
%MOMM*%
G71*
G01*
G75*
%ADD74C,0.0508*%
%ADD75C,0.0677*%
D74*
X297968Y382968D02*
Y387032D01*
X302032D01*
Y382968D01*
X297968D01*
Y408368D02*
Y412432D01*
X302032D01*
Y408368D01*
X297968D01*
Y433768D02*
Y437832D01*
X302032D01*
Y433768D01*
X297968D01*
Y459168D02*
Y463232D01*
X302032D01*
Y459168D01*
X297968D01*
Y484568D02*
Y488632D01*
X302032D01*
Y484568D01*
X297968D01*
Y509968D02*
Y514032D01*
X302032D01*
Y509968D01*
X297968D01*
Y535368D02*
Y539432D01*
X302032D01*
Y535368D01*
X297968D01*
Y560768D02*
Y564832D01*
X302032D01*
Y560768D01*
X297968D01*
Y586168D02*
Y590232D01*
X302032D01*
Y586168D01*
X297968D01*
Y611568D02*
Y615632D01*
X302032D01*
Y611568D01*
X297968D01*
Y636968D02*
Y641032D01*
X302032D01*
Y636968D01*
X297968D01*
X774218D02*
Y641032D01*
X778282D01*
Y636968D01*
X774218D01*
Y611568D02*
Y615632D01*
X778282D01*
Y611568D01*
X774218D01*
Y586168D02*
Y590232D01*
X778282D01*
Y586168D01*
X774218D01*
Y560768D02*
Y564832D01*
X778282D01*
Y560768D01*
X774218D01*
Y535368D02*
Y539432D01*
X778282D01*
Y535368D01*
X774218D01*
Y509968D02*
Y514032D01*
X778282D01*
Y509968D01*
X774218D01*
Y484568D02*
Y488632D01*
X778282D01*
Y484568D01*
X774218D01*
Y459168D02*
Y463232D01*
X778282D01*
Y459168D01*
X774218D01*
Y433768D02*
Y437832D01*
X778282D01*
Y433768D01*
X774218D01*
Y408368D02*
Y412432D01*
X778282D01*
Y408368D01*
X774218D01*
Y382968D02*
Y387032D01*
X778282D01*
Y382968D01*
X774218D01*
Y357568D02*
Y361632D01*
X778282D01*
Y357568D01*
X774218D01*
X297968D02*
Y361632D01*
X302032D01*
Y357568D01*
X297968D01*
X565400Y742968D02*
X563368Y747032D01*
X567432D01*
X565400Y742968D01*
X540000D02*
X537968Y747032D01*
X542032D01*
X540000Y742968D01*
X514600D02*
X512568Y747032D01*
X516632D01*
X514600Y742968D01*
X489200D02*
X487168Y747032D01*
X491232D01*
X489200Y742968D01*
X230000Y272568D02*
X227968Y276632D01*
X232032D01*
X230000Y272568D01*
Y297968D02*
X227968Y302032D01*
X232032D01*
X230000Y297968D01*
Y697968D02*
X227968Y702032D01*
X232032D01*
X230000Y697968D01*
Y723368D02*
X227968Y727432D01*
X232032D01*
X230000Y723368D01*
X560581Y596502D02*
X561597Y597519D01*
X562613D01*
X561597Y598535D01*
X562613Y599551D01*
X561597D01*
X560581Y600566D01*
X559565Y599551D01*
X558549D01*
X559565Y598535D01*
X558549Y597519D01*
X559565D01*
X560581Y596502D01*
X551600Y605483D02*
X552617Y606499D01*
X553633D01*
X552617Y607515D01*
X553633Y608531D01*
X552617D01*
X551600Y609547D01*
X550584Y608531D01*
X549568D01*
X550584Y607515D01*
X549568Y606499D01*
X550584D01*
X551600Y605483D01*
X227968Y447168D02*
Y451232D01*
X232032D01*
Y447168D01*
X227968D01*
Y497968D02*
Y502032D01*
X232032D01*
Y497968D01*
X227968D01*
Y472568D02*
Y476632D01*
X232032D01*
Y472568D01*
X227968D01*
Y523368D02*
Y527432D01*
X232032D01*
Y523368D01*
X227968D01*
Y548768D02*
Y552832D01*
X232032D01*
Y548768D01*
X227968D01*
X558995Y464741D02*
X560011Y466773D01*
X558995Y468805D01*
X561027Y467789D01*
X563059Y468805D01*
X562043Y466773D01*
X563059Y464741D01*
X561027Y465757D01*
X558995Y464741D01*
X550718Y459718D02*
X551734Y461750D01*
X550718Y463782D01*
X552750Y462766D01*
X554782Y463782D01*
X553766Y461750D01*
X554782Y459718D01*
X552750Y460734D01*
X550718Y459718D01*
X570468Y565468D02*
X571484Y567500D01*
X570468Y569532D01*
X572500Y568516D01*
X574532Y569532D01*
X573516Y567500D01*
X574532Y565468D01*
X572500Y566484D01*
X570468Y565468D01*
X562968Y575468D02*
X563984Y577500D01*
X562968Y579532D01*
X565000Y578516D01*
X567032Y579532D01*
X566016Y577500D01*
X567032Y575468D01*
X565000Y576484D01*
X562968Y575468D01*
X381218Y559218D02*
X382234Y561250D01*
X381218Y563282D01*
X383250Y562266D01*
X385282Y563282D01*
X384266Y561250D01*
X385282Y559218D01*
X383250Y560234D01*
X381218Y559218D01*
X420989Y577496D02*
X422005Y579528D01*
X420989Y581560D01*
X423021Y580544D01*
X425053Y581560D01*
X424037Y579528D01*
X425053Y577496D01*
X423021Y578512D01*
X420989Y577496D01*
X388545Y551045D02*
X389562Y553078D01*
X388545Y555109D01*
X390578Y554094D01*
X392609Y555109D01*
X391594Y553078D01*
X392609Y551045D01*
X390578Y552062D01*
X388545Y551045D01*
X392968Y585468D02*
X393984Y587500D01*
X392968Y589532D01*
X395000Y588516D01*
X397032Y589532D01*
X396016Y587500D01*
X397032Y585468D01*
X395000Y586484D01*
X392968Y585468D01*
X567968Y402968D02*
X568984Y405000D01*
X567968Y407032D01*
X570000Y406016D01*
X572032Y407032D01*
X571016Y405000D01*
X572032Y402968D01*
X570000Y403984D01*
X567968Y402968D01*
X565496Y469741D02*
X566512Y471773D01*
X565496Y473805D01*
X567528Y472789D01*
X569560Y473805D01*
X568544Y471773D01*
X569560Y469741D01*
X567528Y470757D01*
X565496Y469741D01*
X460467Y440467D02*
X461483Y442499D01*
X460467Y444531D01*
X462499Y443515D01*
X464531Y444531D01*
X463515Y442499D01*
X464531Y440467D01*
X462499Y441483D01*
X460467Y440467D01*
X442967Y452967D02*
X443983Y454999D01*
X442967Y457031D01*
X444999Y456015D01*
X447031Y457031D01*
X446015Y454999D01*
X447031Y452967D01*
X444999Y453983D01*
X442967Y452967D01*
X267968Y255468D02*
X268984Y257500D01*
X267968Y259532D01*
X270000Y258516D01*
X272032Y259532D01*
X271016Y257500D01*
X272032Y255468D01*
X270000Y256484D01*
X267968Y255468D01*
Y315468D02*
X268984Y317500D01*
X267968Y319532D01*
X270000Y318516D01*
X272032Y319532D01*
X271016Y317500D01*
X272032Y315468D01*
X270000Y316484D01*
X267968Y315468D01*
X282968Y675468D02*
X283984Y677500D01*
X282968Y679532D01*
X285000Y678516D01*
X287032Y679532D01*
X286016Y677500D01*
X287032Y675468D01*
X285000Y676484D01*
X282968Y675468D01*
X367968Y725468D02*
X368984Y727500D01*
X367968Y729532D01*
X370000Y728516D01*
X372032Y729532D01*
X371016Y727500D01*
X372032Y725468D01*
X370000Y726484D01*
X367968Y725468D01*
X370468Y712968D02*
X371484Y715000D01*
X370468Y717032D01*
X372500Y716016D01*
X374532Y717032D01*
X373516Y715000D01*
X374532Y712968D01*
X372500Y713984D01*
X370468Y712968D01*
X370468Y735468D02*
X371484Y737500D01*
X370468Y739532D01*
X372500Y738516D01*
X374532Y739532D01*
X373516Y737500D01*
X374532Y735468D01*
X372500Y736484D01*
X370468Y735468D01*
X360468Y690468D02*
X361484Y692500D01*
X360468Y694532D01*
X362500Y693516D01*
X364532Y694532D01*
X363516Y692500D01*
X364532Y690468D01*
X362500Y691484D01*
X360468Y690468D01*
X320468Y680468D02*
X321484Y682500D01*
X320468Y684532D01*
X322500Y683516D01*
X324532Y684532D01*
X323516Y682500D01*
X324532Y680468D01*
X322500Y681484D01*
X320468Y680468D01*
X360467Y700467D02*
X361483Y702499D01*
X360467Y704531D01*
X362499Y703515D01*
X364531Y704531D01*
X363515Y702499D01*
X364531Y700467D01*
X362499Y701483D01*
X360467Y700467D01*
X497968Y606029D02*
X498984Y608061D01*
X497968Y610093D01*
X500000Y609077D01*
X502032Y610093D01*
X501016Y608061D01*
X502032Y606029D01*
X500000Y607045D01*
X497968Y606029D01*
X422968Y617968D02*
X423984Y620000D01*
X422968Y622032D01*
X425000Y621016D01*
X427032Y622032D01*
X426016Y620000D01*
X427032Y617968D01*
X425000Y618984D01*
X422968Y617968D01*
X470468Y605468D02*
X471484Y607500D01*
X470468Y609532D01*
X472500Y608516D01*
X474532Y609532D01*
X473516Y607500D01*
X474532Y605468D01*
X472500Y606484D01*
X470468Y605468D01*
X412968Y385468D02*
X413984Y387500D01*
X412968Y389532D01*
X415000Y388516D01*
X417032Y389532D01*
X416016Y387500D01*
X417032Y385468D01*
X415000Y386484D01*
X412968Y385468D01*
X445468D02*
X446484Y387500D01*
X445468Y389532D01*
X447500Y388516D01*
X449532Y389532D01*
X448516Y387500D01*
X449532Y385468D01*
X447500Y386484D01*
X445468Y385468D01*
X435468D02*
X436484Y387500D01*
X435468Y389532D01*
X437500Y388516D01*
X439532Y389532D01*
X438516Y387500D01*
X439532Y385468D01*
X437500Y386484D01*
X435468Y385468D01*
X422968D02*
X423984Y387500D01*
X422968Y389532D01*
X425000Y388516D01*
X427032Y389532D01*
X426016Y387500D01*
X427032Y385468D01*
X425000Y386484D01*
X422968Y385468D01*
X415467Y422967D02*
X416483Y424999D01*
X415467Y427031D01*
X417499Y426015D01*
X419531Y427031D01*
X418515Y424999D01*
X419531Y422967D01*
X417499Y423983D01*
X415467Y422967D01*
X430468Y427968D02*
X431484Y430000D01*
X430468Y432032D01*
X432500Y431016D01*
X434532Y432032D01*
X433516Y430000D01*
X434532Y427968D01*
X432500Y428984D01*
X430468Y427968D01*
X442968Y415468D02*
X443984Y417500D01*
X442968Y419532D01*
X445000Y418516D01*
X447032Y419532D01*
X446016Y417500D01*
X447032Y415468D01*
X445000Y416484D01*
X442968Y415468D01*
X394315Y544315D02*
X395331Y546348D01*
X394315Y548380D01*
X396348Y547364D01*
X398380Y548380D01*
X397364Y546348D01*
X398380Y544315D01*
X396348Y545331D01*
X394315Y544315D01*
X360468Y507968D02*
X361484Y510000D01*
X360468Y512032D01*
X362500Y511016D01*
X364532Y512032D01*
X363516Y510000D01*
X364532Y507968D01*
X362500Y508984D01*
X360468Y507968D01*
X402968Y537968D02*
X403984Y540000D01*
X402968Y542032D01*
X405000Y541016D01*
X407032Y542032D01*
X406016Y540000D01*
X407032Y537968D01*
X405000Y538984D01*
X402968Y537968D01*
X465468Y425468D02*
X466484Y427500D01*
X465468Y429532D01*
X467500Y428516D01*
X469532Y429532D01*
X468516Y427500D01*
X469532Y425468D01*
X467500Y426484D01*
X465468Y425468D01*
X312968Y315468D02*
X313984Y317500D01*
X312968Y319532D01*
X315000Y318516D01*
X317032Y319532D01*
X316016Y317500D01*
X317032Y315468D01*
X315000Y316484D01*
X312968Y315468D01*
Y255468D02*
X313984Y257500D01*
X312968Y259532D01*
X315000Y258516D01*
X317032Y259532D01*
X316016Y257500D01*
X317032Y255468D01*
X315000Y256484D01*
X312968Y255468D01*
X572968Y475468D02*
X573984Y477500D01*
X572968Y479532D01*
X575000Y478516D01*
X577032Y479532D01*
X576016Y477500D01*
X577032Y475468D01*
X575000Y476484D01*
X572968Y475468D01*
X352968Y515468D02*
X353984Y517500D01*
X352968Y519532D01*
X355000Y518516D01*
X357032Y519532D01*
X356016Y517500D01*
X357032Y515468D01*
X355000Y516484D01*
X352968Y515468D01*
X370468Y495468D02*
X371484Y497500D01*
X370468Y499532D01*
X372500Y498516D01*
X374532Y499532D01*
X373516Y497500D01*
X374532Y495468D01*
X372500Y496484D01*
X370468Y495468D01*
X540468Y407968D02*
X541484Y410000D01*
X540468Y412032D01*
X542500Y411016D01*
X544532Y412032D01*
X543516Y410000D01*
X544532Y407968D01*
X542500Y408984D01*
X540468Y407968D01*
X550468D02*
X551484Y410000D01*
X550468Y412032D01*
X552500Y411016D01*
X554532Y412032D01*
X553516Y410000D01*
X554532Y407968D01*
X552500Y408984D01*
X550468Y407968D01*
X560468Y405468D02*
X561484Y407500D01*
X560468Y409532D01*
X562500Y408516D01*
X564532Y409532D01*
X563516Y407500D01*
X564532Y405468D01*
X562500Y406484D01*
X560468Y405468D01*
D75*
X252032Y190000D02*
G03*
X252032Y190000I-2032J0D01*
G01*
Y810000D02*
G03*
X252032Y810000I-2032J0D01*
G01*
M02*
